Merritest-BoldItalic.ufo
<glyph name="numbersign" format="1">
  <advance width="1405"/>
  <unicode hex="0023"/>
  <outline>
    <contour>
      <point x="252" y="0" type="line"/>
      <point x="310" y="365" type="line"/>
      <point x="111" y="365" type="line"/>
      <point x="127" y="519" type="line"/>
      <point x="337" y="519" type="line"/>
      <point x="392" y="874" type="line"/>
      <point x="185" y="874" type="line"/>
      <point x="197" y="1025" type="line"/>
      <point x="414" y="1025" type="line"/>
      <point x="467" y="1357" type="line"/>
      <point x="662" y="1357" type="line"/>
      <point x="611" y="1025" type="line"/>
      <point x="892" y="1025" type="line"/>
      <point x="948" y="1357" type="line"/>
      <point x="1143" y="1357" type="line"/>
      <point x="1089" y="1025" type="line"/>
      <point x="1306" y="1025" type="line"/>
      <point x="1294" y="874" type="line"/>
      <point x="1067" y="874" type="line"/>
      <point x="1011" y="519" type="line"/>
      <point x="1224" y="519" type="line"/>
      <point x="1208" y="365" type="line"/>
      <point x="984" y="365" type="line"/>
      <point x="927" y="0" type="line"/>
      <point x="737" y="0" type="line"/>
      <point x="788" y="365" type="line"/>
      <point x="506" y="365" type="line"/>
      <point x="444" y="0" type="line"/>
    </contour>
    <contour>
      <point x="533" y="519" type="line"/>
      <point x="815" y="519" type="line"/>
      <point x="870" y="874" type="line"/>
      <point x="589" y="874" type="line"/>
    </contour>
  </outline>
</glyph>
<glyph name="percent" format="1">
  <advance width="1911"/>
  <unicode hex="0025"/>
  <outline>
    <contour>
      <point x="381" y="0" type="line"/>
      <point x="1328" y="1530" type="line"/>
      <point x="1517" y="1530" type="line"/>
      <point x="570" y="0" type="line"/>
    </contour>
    <contour>
      <point x="473" y="740" type="curve" smooth="yes"/>
      <point x="283" y="740"/>
      <point x="180" y="879"/>
      <point x="180" y="1055" type="curve" smooth="yes"/>
      <point x="180" y="1267"/>
      <point x="358" y="1485"/>
      <point x="603" y="1485" type="curve" smooth="yes"/>
      <point x="808" y="1485"/>
      <point x="900" y="1357"/>
      <point x="900" y="1185" type="curve" smooth="yes"/>
      <point x="900" y="966"/>
      <point x="731" y="740"/>
    </contour>
    <contour>
      <point x="502" y="848" type="curve" smooth="yes"/>
      <point x="634" y="848"/>
      <point x="690" y="1055"/>
      <point x="690" y="1177" type="curve" smooth="yes"/>
      <point x="690" y="1300"/>
      <point x="655" y="1378"/>
      <point x="575" y="1378" type="curve" smooth="yes"/>
      <point x="441" y="1378"/>
      <point x="381" y="1183"/>
      <point x="381" y="1057" type="curve" smooth="yes"/>
      <point x="381" y="933"/>
      <point x="416" y="848"/>
    </contour>
    <contour>
      <point x="1027" y="376" type="curve" smooth="yes"/>
      <point x="1027" y="588"/>
      <point x="1205" y="806"/>
      <point x="1450" y="806" type="curve" smooth="yes"/>
      <point x="1655" y="806"/>
      <point x="1747" y="678"/>
      <point x="1747" y="506" type="curve" smooth="yes"/>
      <point x="1747" y="287"/>
      <point x="1578" y="61"/>
      <point x="1320" y="61" type="curve" smooth="yes"/>
      <point x="1130" y="61"/>
      <point x="1027" y="200"/>
    </contour>
    <contour>
      <point x="1228" y="378" type="curve" smooth="yes"/>
      <point x="1228" y="254"/>
      <point x="1263" y="169"/>
      <point x="1349" y="169" type="curve" smooth="yes"/>
      <point x="1481" y="169"/>
      <point x="1537" y="376"/>
      <point x="1537" y="498" type="curve" smooth="yes"/>
      <point x="1537" y="621"/>
      <point x="1502" y="699"/>
      <point x="1422" y="699" type="curve" smooth="yes"/>
      <point x="1288" y="699"/>
      <point x="1228" y="504"/>
    </contour>
  </outline>
</glyph>
<glyph name="ampersand" format="1">
  <advance width="1673"/>
  <unicode hex="0026"/>
  <outline>
    <contour>
      <point x="60" y="354" type="curve" smooth="yes"/>
      <point x="60" y="579"/>
      <point x="234" y="689"/>
      <point x="430" y="781" type="curve"/>
      <point x="384" y="890"/>
      <point x="346" y="1027"/>
      <point x="346" y="1131" type="curve" smooth="yes"/>
      <point x="346" y="1397"/>
      <point x="561" y="1559"/>
      <point x="844" y="1559" type="curve" smooth="yes"/>
      <point x="1118" y="1559"/>
      <point x="1224" y="1419"/>
      <point x="1224" y="1268" type="curve" smooth="yes"/>
      <point x="1224" y="1017"/>
      <point x="963" y="904"/>
      <point x="724" y="783" type="curve"/>
      <point x="851" y="557"/>
      <point x="961" y="413"/>
      <point x="1109" y="278" type="curve"/>
      <point x="1112" y="274" type="line"/>
      <point x="1158" y="341"/>
      <point x="1180" y="426"/>
      <point x="1180" y="527" type="curve" smooth="yes"/>
      <point x="1180" y="570"/>
      <point x="1176" y="607"/>
      <point x="1171" y="639" type="curve"/>
      <point x="1159" y="640"/>
      <point x="1147" y="640"/>
      <point x="1135" y="640" type="curve" smooth="yes"/>
      <point x="1072" y="640"/>
      <point x="1012" y="621"/>
      <point x="983" y="602" type="curve"/>
      <point x="983" y="782" type="line"/>
      <point x="1001" y="800"/>
      <point x="1050" y="831"/>
      <point x="1138" y="831" type="curve" smooth="yes"/>
      <point x="1213" y="831"/>
      <point x="1275" y="811"/>
      <point x="1367" y="811" type="curve" smooth="yes"/>
      <point x="1473" y="811"/>
      <point x="1523" y="845"/>
      <point x="1542" y="968" type="curve"/>
      <point x="1637" y="968" type="line"/>
      <point x="1665" y="783"/>
      <point x="1606" y="616"/>
      <point x="1447" y="616" type="curve" smooth="yes"/>
      <point x="1433" y="616"/>
      <point x="1419" y="617"/>
      <point x="1404" y="618" type="curve"/>
      <point x="1405" y="603"/>
      <point x="1406" y="588"/>
      <point x="1406" y="571" type="curve" smooth="yes"/>
      <point x="1406" y="410"/>
      <point x="1336" y="278"/>
      <point x="1226" y="180" type="curve"/>
      <point x="1244" y="167"/>
      <point x="1262" y="156"/>
      <point x="1276" y="149" type="curve" smooth="yes"/>
      <point x="1331" y="125"/>
      <point x="1415" y="111"/>
      <point x="1472" y="114" type="curve"/>
      <point x="1466" y="9" type="line"/>
      <point x="1391" y="-15"/>
      <point x="1329" y="-20"/>
      <point x="1234" y="-20" type="curve" smooth="yes"/>
      <point x="1140" y="-20"/>
      <point x="1060" y="1"/>
      <point x="993" y="41" type="curve"/>
      <point x="878" y="-4"/>
      <point x="749" y="-27"/>
      <point x="620" y="-27" type="curve" smooth="yes"/>
      <point x="315" y="-27"/>
      <point x="60" y="101"/>
    </contour>
    <contour>
      <point x="669" y="891" type="curve"/>
      <point x="832" y="973"/>
      <point x="965" y="1070"/>
      <point x="965" y="1249" type="curve" smooth="yes"/>
      <point x="965" y="1339"/>
      <point x="939" y="1446"/>
      <point x="828" y="1446" type="curve" smooth="yes"/>
      <point x="673" y="1446"/>
      <point x="606" y="1328"/>
      <point x="606" y="1177" type="curve" smooth="yes"/>
      <point x="606" y="1066"/>
      <point x="638" y="965"/>
    </contour>
    <contour>
      <point x="335" y="377" type="curve" smooth="yes"/>
      <point x="335" y="192"/>
      <point x="476" y="99"/>
      <point x="653" y="99" type="curve" smooth="yes"/>
      <point x="744" y="99"/>
      <point x="821" y="108"/>
      <point x="887" y="126" type="curve"/>
      <point x="701" y="299"/>
      <point x="609" y="462"/>
      <point x="497" y="651" type="curve"/>
      <point x="401" y="580"/>
      <point x="335" y="494"/>
    </contour>
  </outline>
</glyph>
<glyph name="quotesingle" format="1">
  <advance width="558"/>
  <unicode hex="0027"/>
  <outline>
    <contour>
      <point x="219" y="966" type="line"/>
      <point x="298" y="1687" type="line"/>
      <point x="555" y="1687" type="line"/>
      <point x="389" y="966" type="line"/>
    </contour>
  </outline>
</glyph>
<glyph name="parenright" format="1">
  <advance width="874"/>
  <unicode hex="0029"/>
  <outline>
    <contour>
      <point x="687" y="923" type="curve" smooth="yes"/>
      <point x="687" y="854"/>
      <point x="682" y="781"/>
      <point x="672" y="704" type="curve" smooth="yes"/>
      <point x="594" y="117"/>
      <point x="145" y="-275"/>
      <point x="47" y="-328" type="curve"/>
      <point x="-60" y="-254" type="line"/>
      <point x="24" y="-200"/>
      <point x="337" y="128"/>
      <point x="423" y="655" type="curve"/>
      <point x="435" y="738"/>
      <point x="443" y="842"/>
      <point x="443" y="916" type="curve" smooth="yes"/>
      <point x="443" y="1357"/>
      <point x="257" y="1628"/>
      <point x="186" y="1688" type="curve"/>
      <point x="309" y="1762" type="line"/>
      <point x="326" y="1762" type="line"/>
      <point x="400" y="1712"/>
      <point x="687" y="1436"/>
    </contour>
  </outline>
</glyph>
<glyph name="asterisk" format="1">
  <advance width="1366"/>
  <unicode hex="002A"/>
  <outline>
    <contour>
      <point x="336" y="800" type="line"/>
      <point x="250" y="988" type="line"/>
      <point x="583" y="1122" type="line"/>
      <point x="670" y="1151" type="line"/>
      <point x="591" y="1179" type="line"/>
      <point x="282" y="1314" type="line"/>
      <point x="410" y="1499" type="line"/>
      <point x="664" y="1288" type="line"/>
      <point x="725" y="1231" type="line"/>
      <point x="716" y="1319" type="line"/>
      <point x="709" y="1663" type="line"/>
      <point x="931" y="1662" type="line"/>
      <point x="851" y="1317" type="line"/>
      <point x="827" y="1233" type="line"/>
      <point x="898" y="1289" type="line"/>
      <point x="1198" y="1500" type="line"/>
      <point x="1284" y="1313" type="line"/>
      <point x="951" y="1179" type="line"/>
      <point x="864" y="1149" type="line"/>
      <point x="943" y="1121" type="line"/>
      <point x="1252" y="987" type="line"/>
      <point x="1124" y="802" type="line"/>
      <point x="870" y="1012" type="line"/>
      <point x="808" y="1072" type="line"/>
      <point x="817" y="982" type="line"/>
      <point x="824" y="637" type="line"/>
      <point x="602" y="638" type="line"/>
      <point x="681" y="984" type="line"/>
      <point x="706" y="1069" type="line"/>
      <point x="636" y="1011" type="line"/>
    </contour>
  </outline>
</glyph>
<glyph name="period" format="1">
  <advance width="541"/>
  <unicode hex="002E"/>
  <outline>
    <contour>
      <point x="74" y="122" type="curve" smooth="yes"/>
      <point x="80" y="226"/>
      <point x="166" y="296"/>
      <point x="249" y="296" type="curve" smooth="yes"/>
      <point x="346" y="296"/>
      <point x="387" y="228"/>
      <point x="383" y="153" type="curve" smooth="yes"/>
      <point x="377" y="40"/>
      <point x="285" y="-21"/>
      <point x="198" y="-21" type="curve" smooth="yes"/>
      <point x="125" y="-21"/>
      <point x="69" y="37"/>
    </contour>
  </outline>
</glyph>
<glyph name="zero" format="1">
  <advance width="1278"/>
  <unicode hex="0030"/>
  <outline>
    <contour>
      <point x="97" y="450" type="curve" smooth="yes"/>
      <point x="97" y="853"/>
      <point x="375" y="1162"/>
      <point x="734" y="1162" type="curve" smooth="yes"/>
      <point x="1069" y="1162"/>
      <point x="1191" y="971"/>
      <point x="1191" y="697" type="curve" smooth="yes"/>
      <point x="1191" y="321"/>
      <point x="937" y="-16"/>
      <point x="559" y="-16" type="curve" smooth="yes"/>
      <point x="227" y="-16"/>
      <point x="97" y="198"/>
    </contour>
    <contour>
      <point x="581" y="94" type="curve"/>
      <point x="818" y="76"/>
      <point x="911" y="406"/>
      <point x="911" y="677" type="curve" smooth="yes"/>
      <point x="911" y="900"/>
      <point x="853" y="1052"/>
      <point x="707" y="1053" type="curve" smooth="yes"/>
      <point x="444" y="1056"/>
      <point x="378" y="694"/>
      <point x="378" y="466" type="curve" smooth="yes"/>
      <point x="378" y="266"/>
      <point x="436" y="96"/>
    </contour>
  </outline>
</glyph>
<glyph name="one" format="1">
  <advance width="930"/>
  <unicode hex="0031"/>
  <outline>
    <contour>
      <point x="86" y="0" type="line"/>
      <point x="96" y="97" type="line"/>
      <point x="296" y="124" type="line"/>
      <point x="403" y="902" type="line"/>
      <point x="326" y="883"/>
      <point x="244" y="865"/>
      <point x="157" y="850" type="curve"/>
      <point x="140" y="960" type="line"/>
      <point x="280" y="991"/>
      <point x="475" y="1089"/>
      <point x="581" y="1162" type="curve"/>
      <point x="705" y="1134" type="line"/>
      <point x="563" y="125" type="line"/>
      <point x="774" y="97" type="line"/>
      <point x="764" y="0" type="line"/>
    </contour>
  </outline>
</glyph>
<glyph name="three" format="1">
  <advance width="1104"/>
  <unicode hex="0033"/>
  <outline>
    <contour>
      <point x="40" y="-185" type="line"/>
      <point x="84" y="-193"/>
      <point x="144" y="-198"/>
      <point x="178" y="-198" type="curve" smooth="yes"/>
      <point x="467" y="-198"/>
      <point x="656" y="-54"/>
      <point x="656" y="152" type="curve" smooth="yes"/>
      <point x="656" y="283"/>
      <point x="581" y="379"/>
      <point x="380" y="369" type="curve"/>
      <point x="254" y="337" type="line"/>
      <point x="272" y="482" type="line"/>
      <point x="451" y="518"/>
      <point x="676" y="649"/>
      <point x="676" y="829" type="curve" smooth="yes"/>
      <point x="676" y="924"/>
      <point x="611" y="991"/>
      <point x="507" y="991" type="curve" smooth="yes"/>
      <point x="374" y="991"/>
      <point x="272" y="936"/>
      <point x="183" y="865" type="curve"/>
      <point x="131" y="978" type="line"/>
      <point x="199" y="1049"/>
      <point x="381" y="1162"/>
      <point x="600" y="1162" type="curve" smooth="yes"/>
      <point x="785" y="1162"/>
      <point x="952" y="1067"/>
      <point x="952" y="876" type="curve" smooth="yes"/>
      <point x="952" y="695"/>
      <point x="787" y="546"/>
      <point x="594" y="482" type="curve"/>
      <point x="836" y="477"/>
      <point x="938" y="339"/>
      <point x="938" y="173" type="curve" smooth="yes"/>
      <point x="938" y="-151"/>
      <point x="601" y="-339"/>
      <point x="204" y="-339" type="curve" smooth="yes"/>
      <point x="146" y="-339"/>
      <point x="75" y="-331"/>
      <point x="22" y="-321" type="curve"/>
    </contour>
  </outline>
</glyph>
<glyph name="seven" format="1">
  <advance width="1096"/>
  <unicode hex="0037"/>
  <outline>
    <contour>
      <point x="211" y="-249" type="line"/>
      <point x="845" y="994" type="line"/>
      <point x="354" y="977" type="line"/>
      <point x="255" y="771" type="line"/>
      <point x="72" y="775" type="line"/>
      <point x="150" y="1146" type="line"/>
      <point x="1057" y="1146" type="line"/>
      <point x="1089" y="1103" type="line"/>
      <point x="484" y="-330" type="line"/>
    </contour>
  </outline>
</glyph>
<glyph name="eight" format="1">
  <advance width="1255"/>
  <unicode hex="0038"/>
  <outline>
    <contour>
      <point x="112" y="354" type="curve" smooth="yes"/>
      <point x="112" y="553"/>
      <point x="278" y="716"/>
      <point x="461" y="818" type="curve"/>
      <point x="354" y="906"/>
      <point x="267" y="1023"/>
      <point x="267" y="1176" type="curve" smooth="yes"/>
      <point x="267" y="1418"/>
      <point x="465" y="1569"/>
      <point x="750" y="1569" type="curve" smooth="yes"/>
      <point x="978" y="1569"/>
      <point x="1159" y="1447"/>
      <point x="1159" y="1235" type="curve" smooth="yes"/>
      <point x="1159" y="1047"/>
      <point x="1002" y="908"/>
      <point x="837" y="813" type="curve"/>
      <point x="983" y="711"/>
      <point x="1106" y="571"/>
      <point x="1106" y="403" type="curve" smooth="yes"/>
      <point x="1106" y="137"/>
      <point x="839" y="-20"/>
      <point x="568" y="-20" type="curve" smooth="yes"/>
      <point x="356" y="-20"/>
      <point x="112" y="83"/>
    </contour>
    <contour>
      <point x="720" y="900" type="curve"/>
      <point x="837" y="961"/>
      <point x="932" y="1077"/>
      <point x="932" y="1235" type="curve" smooth="yes"/>
      <point x="932" y="1397"/>
      <point x="834" y="1460"/>
      <point x="734" y="1460" type="curve" smooth="yes"/>
      <point x="609" y="1460"/>
      <point x="514" y="1372"/>
      <point x="514" y="1212" type="curve" smooth="yes"/>
      <point x="514" y="1089"/>
      <point x="597" y="988"/>
    </contour>
    <contour>
      <point x="356" y="373" type="curve"/>
      <point x="356" y="233"/>
      <point x="438" y="96"/>
      <point x="588" y="96" type="curve" smooth="yes"/>
      <point x="730" y="96"/>
      <point x="849" y="193"/>
      <point x="849" y="355" type="curve" smooth="yes"/>
      <point x="849" y="503"/>
      <point x="733" y="621"/>
      <point x="572" y="736" type="curve"/>
      <point x="450" y="667"/>
      <point x="358" y="536"/>
    </contour>
  </outline>
</glyph>
<glyph name="less" format="1">
  <advance width="1368"/>
  <unicode hex="003C"/>
  <outline>
    <contour>
      <point x="195" y="686" type="line"/>
      <point x="211" y="814" type="line"/>
      <point x="1220" y="1324" type="line"/>
      <point x="1192" y="1097" type="line"/>
      <point x="453" y="749" type="line"/>
      <point x="1110" y="395" type="line"/>
      <point x="1085" y="176" type="line"/>
    </contour>
  </outline>
</glyph>
<glyph name="greater" format="1">
  <advance width="1368"/>
  <unicode hex="003E"/>
  <outline>
    <contour>
      <point x="1275" y="817" type="line"/>
      <point x="1259" y="689" type="line"/>
      <point x="250" y="179" type="line"/>
      <point x="278" y="406" type="line"/>
      <point x="1017" y="754" type="line"/>
      <point x="360" y="1108" type="line"/>
      <point x="385" y="1327" type="line"/>
    </contour>
  </outline>
</glyph>
<glyph name="at" format="1">
  <advance width="1969"/>
  <unicode hex="0040"/>
  <outline>
    <contour>
      <point x="88" y="336" type="curve" smooth="yes"/>
      <point x="88" y="1069"/>
      <point x="633" y="1560"/>
      <point x="1198" y="1560" type="curve" smooth="yes"/>
      <point x="1606" y="1560"/>
      <point x="1890" y="1315"/>
      <point x="1890" y="911" type="curve" smooth="yes"/>
      <point x="1890" y="347"/>
      <point x="1565" y="6"/>
      <point x="1275" y="6" type="curve" smooth="yes"/>
      <point x="1185" y="6"/>
      <point x="1168" y="91"/>
      <point x="1168" y="210" type="curve" smooth="yes"/>
      <point x="1168" y="257"/>
      <point x="1180" y="351"/>
      <point x="1201" y="442" type="curve"/>
      <point x="1111" y="229"/>
      <point x="960" y="7"/>
      <point x="812" y="7" type="curve" smooth="yes"/>
      <point x="662" y="7"/>
      <point x="506" y="141"/>
      <point x="509" y="438" type="curve" smooth="yes"/>
      <point x="512" y="743"/>
      <point x="701" y="1105"/>
      <point x="1081" y="1105" type="curve" smooth="yes"/>
      <point x="1136" y="1105"/>
      <point x="1238" y="1085"/>
      <point x="1294" y="1046" type="curve"/>
      <point x="1479" y="1086" type="line"/>
      <point x="1440" y="933"/>
      <point x="1389" y="616"/>
      <point x="1370" y="415" type="curve" smooth="yes"/>
      <point x="1360" y="312"/>
      <point x="1368" y="257"/>
      <point x="1368" y="216" type="curve" smooth="yes"/>
      <point x="1368" y="180"/>
      <point x="1378" y="169"/>
      <point x="1388" y="169" type="curve" smooth="yes"/>
      <point x="1556" y="169"/>
      <point x="1715" y="518"/>
      <point x="1715" y="831" type="curve" smooth="yes"/>
      <point x="1715" y="1258"/>
      <point x="1406" y="1410"/>
      <point x="1110" y="1410" type="curve" smooth="yes"/>
      <point x="585" y="1410"/>
      <point x="275" y="898"/>
      <point x="275" y="408" type="curve" smooth="yes"/>
      <point x="275" y="-86"/>
      <point x="586" y="-282"/>
      <point x="941" y="-282" type="curve" smooth="yes"/>
      <point x="1055" y="-282"/>
      <point x="1223" y="-251"/>
      <point x="1289" y="-219" type="curve"/>
      <point x="1326" y="-316" type="line"/>
      <point x="1233" y="-386"/>
      <point x="1078" y="-433"/>
      <point x="906" y="-433" type="curve" smooth="yes"/>
      <point x="452" y="-433"/>
      <point x="88" y="-192"/>
    </contour>
    <contour>
      <point x="724" y="447" type="curve" smooth="yes"/>
      <point x="724" y="325"/>
      <point x="759" y="198"/>
      <point x="850" y="198" type="curve" smooth="yes"/>
      <point x="974" y="198"/>
      <point x="1210" y="664"/>
      <point x="1237" y="881" type="curve"/>
      <point x="1209" y="931"/>
      <point x="1118" y="966"/>
      <point x="1063" y="966" type="curve" smooth="yes"/>
      <point x="812" y="966"/>
      <point x="724" y="685"/>
    </contour>
  </outline>
</glyph>
<glyph name="D" format="1">
  <advance width="1472"/>
  <unicode hex="0044"/>
  <outline>
    <contour>
      <point x="-8" y="0" type="line"/>
      <point x="3" y="96" type="line"/>
      <point x="156" y="126" type="line"/>
      <point x="321" y="1400" type="line"/>
      <point x="183" y="1425" type="line"/>
      <point x="194" y="1530" type="line"/>
      <point x="501" y="1530" type="line"/>
      <point x="601" y="1531"/>
      <point x="706" y="1546"/>
      <point x="812" y="1546" type="curve" smooth="yes"/>
      <point x="1257" y="1547"/>
      <point x="1424" y="1282"/>
      <point x="1427" y="922" type="curve" smooth="yes"/>
      <point x="1432" y="382"/>
      <point x="1142" y="-22"/>
      <point x="589" y="-16" type="curve" smooth="yes"/>
      <point x="565" y="-16"/>
      <point x="520" y="-12"/>
      <point x="495" y="-9" type="curve" smooth="yes"/>
      <point x="447" y="-5"/>
      <point x="346" y="0"/>
      <point x="287" y="0" type="curve" smooth="yes"/>
    </contour>
    <contour>
      <point x="432" y="134" type="line"/>
      <point x="481" y="117"/>
      <point x="573" y="107"/>
      <point x="625" y="106" type="curve"/>
      <point x="1002" y="120"/>
      <point x="1140" y="540"/>
      <point x="1137" y="896" type="curve" smooth="yes"/>
      <point x="1134" y="1278"/>
      <point x="1024" y="1425"/>
      <point x="766" y="1425" type="curve" smooth="yes"/>
      <point x="700" y="1425"/>
      <point x="623" y="1413"/>
      <point x="594" y="1402" type="curve"/>
    </contour>
  </outline>
</glyph>
<glyph name="G" format="1">
  <advance width="1396"/>
  <unicode hex="0047"/>
  <outline>
    <contour>
      <point x="619" y="-16" type="curve" smooth="yes"/>
      <point x="239" y="-16"/>
      <point x="87" y="302"/>
      <point x="81" y="627" type="curve" smooth="yes"/>
      <point x="71" y="1175"/>
      <point x="389" y="1548"/>
      <point x="869" y="1548" type="curve" smooth="yes"/>
      <point x="1096" y="1548"/>
      <point x="1206" y="1511"/>
      <point x="1286" y="1490" type="curve"/>
      <point x="1336" y="1479" type="line"/>
      <point x="1274" y="1153" type="line"/>
      <point x="1087" y="1153" type="line"/>
      <point x="1072" y="1373" type="line"/>
      <point x="1024" y="1404"/>
      <point x="957" y="1424"/>
      <point x="859" y="1424" type="curve" smooth="yes"/>
      <point x="482" y="1424"/>
      <point x="369" y="1006"/>
      <point x="372" y="653" type="curve" smooth="yes"/>
      <point x="374" y="376"/>
      <point x="463" y="118"/>
      <point x="682" y="118" type="curve" smooth="yes"/>
      <point x="781" y="118"/>
      <point x="869" y="129"/>
      <point x="941" y="170" type="curve"/>
      <point x="994" y="590" type="line"/>
      <point x="776" y="607" type="line"/>
      <point x="792" y="738" type="line"/>
      <point x="1288" y="738" type="line"/>
      <point x="1203" y="89" type="line"/>
      <point x="1162" y="85"/>
      <point x="1101" y="72"/>
      <point x="1044" y="56" type="curve" smooth="yes"/>
      <point x="935" y="26"/>
      <point x="792" y="-16"/>
    </contour>
  </outline>
</glyph>
<glyph name="N" format="1">
  <advance width="1531"/>
  <unicode hex="004E"/>
  <outline>
    <contour>
      <point x="1" y="0" type="line"/>
      <point x="9" y="96" type="line"/>
      <point x="151" y="125" type="line"/>
      <point x="329" y="1400" type="line"/>
      <point x="171" y="1425" type="line"/>
      <point x="187" y="1530" type="line"/>
      <point x="635" y="1530" type="line"/>
      <point x="1059" y="477" type="line"/>
      <point x="1128" y="265" type="line"/>
      <point x="1264" y="1401" type="line"/>
      <point x="1108" y="1425" type="line"/>
      <point x="1120" y="1530" type="line"/>
      <point x="1596" y="1530" type="line"/>
      <point x="1586" y="1425" type="line"/>
      <point x="1451" y="1400" type="line"/>
      <point x="1244" y="0" type="line"/>
      <point x="971" y="0" type="line"/>
      <point x="536" y="1062" type="line"/>
      <point x="469" y="1280" type="line"/>
      <point x="346" y="126" type="line"/>
      <point x="518" y="97" type="line"/>
      <point x="509" y="0" type="line"/>
    </contour>
  </outline>
</glyph>
<glyph name="P" format="1">
  <advance width="1274"/>
  <unicode hex="0050"/>
  <outline>
    <contour>
      <point x="4" y="0" type="line"/>
      <point x="14" y="96" type="line"/>
      <point x="157" y="126" type="line"/>
      <point x="322" y="1400" type="line"/>
      <point x="181" y="1425" type="line"/>
      <point x="194" y="1530" type="line"/>
      <point x="479" y="1530" type="line" smooth="yes"/>
      <point x="587" y="1530"/>
      <point x="666" y="1547"/>
      <point x="770" y="1547" type="curve" smooth="yes"/>
      <point x="1127" y="1547"/>
      <point x="1281" y="1412"/>
      <point x="1287" y="1148" type="curve" smooth="yes"/>
      <point x="1297" y="755"/>
      <point x="1018" y="529"/>
      <point x="629" y="529" type="curve" smooth="yes"/>
      <point x="553" y="529"/>
      <point x="515" y="530"/>
      <point x="484" y="533" type="curve"/>
      <point x="436" y="126" type="line"/>
      <point x="673" y="97" type="line"/>
      <point x="665" y="0" type="line"/>
    </contour>
    <contour>
      <point x="500" y="666" type="line"/>
      <point x="551" y="656"/>
      <point x="597" y="655"/>
      <point x="638" y="655" type="curve" smooth="yes"/>
      <point x="890" y="658"/>
      <point x="1007" y="842"/>
      <point x="1010" y="1136" type="curve" smooth="yes"/>
      <point x="1012" y="1332"/>
      <point x="928" y="1428"/>
      <point x="736" y="1424" type="curve" smooth="yes"/>
      <point x="697" y="1424"/>
      <point x="643" y="1419"/>
      <point x="598" y="1409" type="curve"/>
    </contour>
  </outline>
</glyph>
<glyph name="Q" format="1">
  <advance width="1444"/>
  <unicode hex="0051"/>
  <outline>
    <contour>
      <point x="594" y="-18" type="curve"/>
      <point x="260" y="1"/>
      <point x="83" y="257"/>
      <point x="79" y="629" type="curve" smooth="yes"/>
      <point x="74" y="1127"/>
      <point x="361" y="1550"/>
      <point x="834" y="1550" type="curve" smooth="yes"/>
      <point x="1210" y="1550"/>
      <point x="1381" y="1247"/>
      <point x="1384" y="898" type="curve" smooth="yes"/>
      <point x="1387" y="454"/>
      <point x="1170" y="56"/>
      <point x="760" y="-10" type="curve"/>
      <point x="763" y="-167"/>
      <point x="907" y="-181"/>
      <point x="1048" y="-181" type="curve" smooth="yes"/>
      <point x="1100" y="-181"/>
      <point x="1217" y="-167"/>
      <point x="1289" y="-140" type="curve"/>
      <point x="1291" y="-301" type="line"/>
      <point x="1240" y="-341"/>
      <point x="1116" y="-397"/>
      <point x="958" y="-397" type="curve" smooth="yes"/>
      <point x="723" y="-397"/>
      <point x="550" y="-268"/>
    </contour>
    <contour>
      <point x="666" y="101" type="curve" smooth="yes"/>
      <point x="934" y="100"/>
      <point x="1097" y="438"/>
      <point x="1093" y="873" type="curve" smooth="yes"/>
      <point x="1090" y="1224"/>
      <point x="998" y="1426"/>
      <point x="803" y="1426" type="curve" smooth="yes"/>
      <point x="542" y="1426"/>
      <point x="368" y="1073"/>
      <point x="372" y="680" type="curve" smooth="yes"/>
      <point x="375" y="363"/>
      <point x="436" y="102"/>
    </contour>
  </outline>
</glyph>
<glyph name="T" format="1">
  <advance width="1343"/>
  <unicode hex="0054"/>
  <outline>
    <contour>
      <point x="214" y="0" type="line"/>
      <point x="225" y="100" type="line"/>
      <point x="472" y="126" type="line"/>
      <point x="644" y="1409" type="line"/>
      <point x="363" y="1382" type="line"/>
      <point x="243" y="1049" type="line"/>
      <point x="92" y="1048" type="line"/>
      <point x="170" y="1530" type="line"/>
      <point x="1425" y="1530" type="line"/>
      <point x="1365" y="1049" type="line"/>
      <point x="1220" y="1041" type="line"/>
      <point x="1197" y="1383" type="line"/>
      <point x="920" y="1409" type="line"/>
      <point x="747" y="126" type="line"/>
      <point x="1013" y="100" type="line"/>
      <point x="1005" y="0" type="line"/>
    </contour>
  </outline>
</glyph>
<glyph name="U" format="1">
  <advance width="1413"/>
  <unicode hex="0055"/>
  <outline>
    <contour>
      <point x="137" y="428" type="curve" smooth="yes"/>
      <point x="136" y="480"/>
      <point x="138" y="534"/>
      <point x="144" y="593" type="curve"/>
      <point x="248" y="1401" type="line"/>
      <point x="109" y="1425" type="line"/>
      <point x="122" y="1530" type="line"/>
      <point x="715" y="1530" type="line"/>
      <point x="705" y="1426" type="line"/>
      <point x="531" y="1400" type="line"/>
      <point x="430" y="617" type="line"/>
      <point x="422" y="540"/>
      <point x="416" y="472"/>
      <point x="416" y="420" type="curve" smooth="yes"/>
      <point x="418" y="217"/>
      <point x="507" y="97"/>
      <point x="680" y="97" type="curve" smooth="yes"/>
      <point x="916" y="97"/>
      <point x="1032" y="294"/>
      <point x="1073" y="626" type="curve"/>
      <point x="1177" y="1400" type="line"/>
      <point x="1026" y="1425" type="line"/>
      <point x="1037" y="1530" type="line"/>
      <point x="1495" y="1530" type="line"/>
      <point x="1482" y="1425" type="line"/>
      <point x="1356" y="1401" type="line"/>
      <point x="1255" y="627" type="line"/>
      <point x="1195" y="156"/>
      <point x="988" y="-20"/>
      <point x="634" y="-20" type="curve" smooth="yes"/>
      <point x="279" y="-20"/>
      <point x="139" y="166"/>
    </contour>
  </outline>
</glyph>
<glyph name="Z" format="1">
  <advance width="1220"/>
  <unicode hex="005A"/>
  <outline>
    <contour>
      <point x="-2" y="0" type="line"/>
      <point x="-33" y="89" type="line"/>
      <point x="811" y="1261" type="line"/>
      <point x="957" y="1409" type="line"/>
      <point x="457" y="1397" type="line"/>
      <point x="335" y="1138" type="line"/>
      <point x="189" y="1161" type="line"/>
      <point x="242" y="1530" type="line"/>
      <point x="1231" y="1530" type="line"/>
      <point x="1259" y="1444" type="line"/>
      <point x="421" y="269" type="line"/>
      <point x="288" y="122" type="line"/>
      <point x="850" y="146" type="line"/>
      <point x="1005" y="438" type="line"/>
      <point x="1149" y="407" type="line"/>
      <point x="1058" y="0" type="line"/>
    </contour>
  </outline>
</glyph>
<glyph name="bracketleft" format="1">
  <advance width="864"/>
  <unicode hex="005B"/>
  <outline>
    <contour>
      <point x="149" y="42" type="curve"/>
      <point x="160" y="226"/>
      <point x="322" y="1274"/>
      <point x="352" y="1501" type="curve" smooth="yes"/>
      <point x="377" y="1693"/>
      <point x="464" y="1753"/>
      <point x="622" y="1753" type="curve" smooth="yes"/>
      <point x="710" y="1753"/>
      <point x="882" y="1706"/>
      <point x="882" y="1706" type="curve"/>
      <point x="866" y="1601" type="line"/>
      <point x="591" y="1601" type="line"/>
      <point x="368" y="-55" type="line"/>
      <point x="412" y="-55"/>
      <point x="599" y="-57"/>
      <point x="643" y="-57" type="curve"/>
      <point x="630" y="-164" type="line"/>
      <point x="539" y="-190"/>
      <point x="466" y="-211"/>
      <point x="357" y="-211" type="curve" smooth="yes"/>
      <point x="231" y="-211"/>
      <point x="145" y="-178"/>
      <point x="145" y="-68" type="curve" smooth="yes"/>
      <point x="145" y="-34"/>
      <point x="145" y="2"/>
    </contour>
  </outline>
</glyph>
<glyph name="backslash" format="1">
  <advance width="854"/>
  <unicode hex="005C"/>
  <outline>
    <contour>
      <point x="652" y="-362" type="line"/>
      <point x="76" y="1597" type="line"/>
      <point x="277" y="1597" type="line"/>
      <point x="854" y="-362" type="line"/>
    </contour>
  </outline>
</glyph>
<glyph name="bracketright" format="1">
  <advance width="864"/>
  <unicode hex="005D"/>
  <outline>
    <contour>
      <point x="751" y="1514" type="curve"/>
      <point x="740" y="1330"/>
      <point x="578" y="282"/>
      <point x="548" y="55" type="curve" smooth="yes"/>
      <point x="523" y="-137"/>
      <point x="436" y="-197"/>
      <point x="278" y="-197" type="curve" smooth="yes"/>
      <point x="190" y="-197"/>
      <point x="18" y="-150"/>
      <point x="18" y="-150" type="curve"/>
      <point x="34" y="-45" type="line"/>
      <point x="309" y="-45" type="line"/>
      <point x="532" y="1611" type="line"/>
      <point x="488" y="1611"/>
      <point x="301" y="1613"/>
      <point x="257" y="1613" type="curve"/>
      <point x="270" y="1720" type="line"/>
      <point x="361" y="1746"/>
      <point x="434" y="1767"/>
      <point x="543" y="1767" type="curve" smooth="yes"/>
      <point x="669" y="1767"/>
      <point x="755" y="1734"/>
      <point x="755" y="1624" type="curve" smooth="yes"/>
      <point x="755" y="1590"/>
      <point x="755" y="1554"/>
    </contour>
  </outline>
</glyph>
<glyph name="asciicircum" format="1">
  <advance width="1364"/>
  <unicode hex="005E"/>
  <outline>
    <contour>
      <point x="157" y="510" type="line"/>
      <point x="673" y="1531" type="line"/>
      <point x="900" y="1531" type="line"/>
      <point x="1167" y="510" type="line"/>
      <point x="957" y="510" type="line"/>
      <point x="760" y="1252" type="line"/>
      <point x="372" y="510" type="line"/>
    </contour>
  </outline>
</glyph>
<glyph name="grave" format="1">
  <advance width="541"/>
  <unicode hex="0060"/>
  <outline>
    <contour>
      <point x="411" y="1246" type="line"/>
      <point x="328" y="1281"/>
      <point x="89" y="1459"/>
      <point x="25" y="1571" type="curve"/>
      <point x="203" y="1743" type="line"/>
      <point x="491" y="1311" type="line"/>
    </contour>
  </outline>
</glyph>
<glyph name="c" format="1">
  <advance width="923"/>
  <unicode hex="0063"/>
  <outline>
    <contour>
      <point x="73" y="440" type="curve" smooth="yes"/>
      <point x="70" y="763"/>
      <point x="276" y="1163"/>
      <point x="690" y="1163" type="curve" smooth="yes"/>
      <point x="767" y="1163"/>
      <point x="866" y="1148"/>
      <point x="928" y="1120" type="curve"/>
      <point x="856" y="867" type="line"/>
      <point x="799" y="903"/>
      <point x="703" y="1011"/>
      <point x="631" y="1011" type="curve" smooth="yes"/>
      <point x="492" y="1011"/>
      <point x="344" y="791"/>
      <point x="348" y="460" type="curve" smooth="yes"/>
      <point x="350" y="236"/>
      <point x="418" y="144"/>
      <point x="538" y="144" type="curve" smooth="yes"/>
      <point x="651" y="144"/>
      <point x="720" y="191"/>
      <point x="802" y="265" type="curve"/>
      <point x="853" y="173" type="line"/>
      <point x="801" y="101"/>
      <point x="659" y="-20"/>
      <point x="446" y="-20" type="curve" smooth="yes"/>
      <point x="215" y="-20"/>
      <point x="75" y="143"/>
    </contour>
  </outline>
</glyph>
<glyph name="k" format="1">
  <advance width="1118"/>
  <unicode hex="006B"/>
  <outline>
    <contour>
      <point x="84" y="0" type="line"/>
      <point x="278" y="1482" type="line"/>
      <point x="156" y="1525" type="line"/>
      <point x="172" y="1608" type="line"/>
      <point x="510" y="1650" type="line"/>
      <point x="563" y="1623" type="line"/>
      <point x="348" y="0" type="line"/>
    </contour>
    <contour>
      <point x="673" y="95" type="curve" smooth="yes"/>
      <point x="437" y="610" type="line"/>
      <point x="440" y="611" type="line"/>
      <point x="437" y="611" type="line"/>
      <point x="555" y="690"/>
      <point x="649" y="742"/>
      <point x="756" y="885" type="curve" smooth="yes"/>
      <point x="796" y="938"/>
      <point x="805" y="989"/>
      <point x="809" y="1042" type="curve" smooth="yes"/>
      <point x="816" y="1133"/>
      <point x="897" y="1163"/>
      <point x="959" y="1163" type="curve" smooth="yes"/>
      <point x="1030" y="1163"/>
      <point x="1076" y="1113"/>
      <point x="1077" y="1050" type="curve" smooth="yes"/>
      <point x="1078" y="997"/>
      <point x="1058" y="953"/>
      <point x="1031" y="915" type="curve" smooth="yes"/>
      <point x="948" y="801"/>
      <point x="782" y="699"/>
      <point x="664" y="639" type="curve"/>
      <point x="890" y="245" type="line" smooth="yes"/>
      <point x="924" y="187"/>
      <point x="970" y="152"/>
      <point x="1001" y="152" type="curve" smooth="yes"/>
      <point x="1026" y="152"/>
      <point x="1074" y="169"/>
      <point x="1115" y="204" type="curve"/>
      <point x="1149" y="138" type="line"/>
      <point x="1110" y="83"/>
      <point x="990" y="-20"/>
      <point x="849" y="-20" type="curve" smooth="yes"/>
      <point x="764" y="-20"/>
      <point x="707" y="20"/>
    </contour>
  </outline>
</glyph>
<glyph name="l" format="1">
  <advance width="621"/>
  <unicode hex="006C"/>
  <outline>
    <contour>
      <point x="113" y="115" type="curve" smooth="yes"/>
      <point x="113" y="136"/>
      <point x="117" y="172"/>
      <point x="120" y="192" type="curve" smooth="yes"/>
      <point x="297" y="1482" type="line"/>
      <point x="170" y="1525" type="line"/>
      <point x="190" y="1608" type="line"/>
      <point x="524" y="1650" type="line"/>
      <point x="574" y="1623" type="line"/>
      <point x="381" y="207" type="line" smooth="yes"/>
      <point x="374" y="160"/>
      <point x="383" y="131"/>
      <point x="409" y="131" type="curve" smooth="yes"/>
      <point x="429" y="131"/>
      <point x="453" y="140"/>
      <point x="509" y="187" type="curve"/>
      <point x="538" y="125" type="line"/>
      <point x="519" y="96"/>
      <point x="419" y="-20"/>
      <point x="278" y="-20" type="curve" smooth="yes"/>
      <point x="184" y="-20"/>
      <point x="114" y="18"/>
    </contour>
  </outline>
</glyph>
<glyph name="n" format="1">
  <advance width="1279"/>
  <unicode hex="006E"/>
  <outline>
    <contour>
      <point x="107" y="0" type="line"/>
      <point x="237" y="963" type="line"/>
      <point x="135" y="1022" type="line"/>
      <point x="152" y="1111" type="line"/>
      <point x="460" y="1163" type="line"/>
      <point x="510" y="1139" type="line"/>
      <point x="492" y="931" type="line"/>
      <point x="590" y="1064"/>
      <point x="731" y="1163"/>
      <point x="883" y="1163" type="curve" smooth="yes"/>
      <point x="1029" y="1163"/>
      <point x="1129" y="1086"/>
      <point x="1129" y="861" type="curve" smooth="yes"/>
      <point x="1129" y="781"/>
      <point x="1098" y="617"/>
      <point x="1079" y="505" type="curve" smooth="yes"/>
      <point x="1061" y="403"/>
      <point x="1038" y="285"/>
      <point x="1035" y="196" type="curve" smooth="yes"/>
      <point x="1034" y="148"/>
      <point x="1046" y="131"/>
      <point x="1065" y="131" type="curve" smooth="yes"/>
      <point x="1085" y="131"/>
      <point x="1107" y="140"/>
      <point x="1154" y="177" type="curve"/>
      <point x="1183" y="114" type="line"/>
      <point x="1165" y="87"/>
      <point x="1066" y="-21"/>
      <point x="921" y="-21" type="curve" smooth="yes"/>
      <point x="791" y="-21"/>
      <point x="755" y="44"/>
      <point x="758" y="131" type="curve" smooth="yes"/>
      <point x="760" y="206"/>
      <point x="785" y="331"/>
      <point x="805" y="443" type="curve" smooth="yes"/>
      <point x="825" y="555"/>
      <point x="857" y="717"/>
      <point x="856" y="838" type="curve" smooth="yes"/>
      <point x="855" y="965"/>
      <point x="821" y="985"/>
      <point x="759" y="985" type="curve" smooth="yes"/>
      <point x="670" y="985"/>
      <point x="549" y="879"/>
      <point x="468" y="745" type="curve"/>
      <point x="366" y="0" type="line"/>
    </contour>
  </outline>
</glyph>
<glyph name="p" format="1">
  <advance width="1195"/>
  <unicode hex="0070"/>
  <outline>
    <contour>
      <point x="348" y="-8" type="curve"/>
      <point x="277" y="-520" type="line"/>
      <point x="23" y="-520" type="line"/>
      <point x="225" y="982" type="line"/>
      <point x="111" y="1032" type="line"/>
      <point x="130" y="1111" type="line"/>
      <point x="457" y="1163" type="line"/>
      <point x="507" y="1139" type="line"/>
      <point x="493" y="1037" type="line"/>
      <point x="557" y="1104"/>
      <point x="653" y="1163"/>
      <point x="777" y="1163" type="curve" smooth="yes"/>
      <point x="1008" y="1163"/>
      <point x="1121" y="993"/>
      <point x="1121" y="730" type="curve" smooth="yes"/>
      <point x="1121" y="367"/>
      <point x="871" y="-20"/>
      <point x="465" y="-20" type="curve" smooth="yes"/>
      <point x="427" y="-20"/>
      <point x="387" y="-15"/>
    </contour>
    <contour>
      <point x="368" y="134" type="line"/>
      <point x="402" y="116"/>
      <point x="443" y="110"/>
      <point x="494" y="110" type="curve" smooth="yes"/>
      <point x="745" y="110"/>
      <point x="846" y="449"/>
      <point x="846" y="723" type="curve" smooth="yes"/>
      <point x="846" y="889"/>
      <point x="791" y="1004"/>
      <point x="690" y="1004" type="curve" smooth="yes"/>
      <point x="598" y="1004"/>
      <point x="521" y="936"/>
      <point x="471" y="868" type="curve"/>
    </contour>
  </outline>
</glyph>
<glyph name="v" format="1">
  <advance width="1070"/>
  <unicode hex="0076"/>
  <outline>
    <contour>
      <point x="323" y="-21" type="line"/>
      <point x="255" y="355" type="line"/>
      <point x="145" y="945" type="line" smooth="yes"/>
      <point x="137" y="986"/>
      <point x="124" y="1000"/>
      <point x="104" y="1001" type="curve" smooth="yes"/>
      <point x="81" y="1002"/>
      <point x="56" y="988"/>
      <point x="35" y="973" type="curve"/>
      <point x="6" y="1043" type="line"/>
      <point x="23" y="1066"/>
      <point x="116" y="1163"/>
      <point x="238" y="1163" type="curve" smooth="yes"/>
      <point x="349" y="1163"/>
      <point x="393" y="1114"/>
      <point x="405" y="1026" type="curve" smooth="yes"/>
      <point x="491" y="405" type="line"/>
      <point x="512" y="205" type="line"/>
      <point x="606" y="353" type="line"/>
      <point x="698" y="511"/>
      <point x="774" y="652"/>
      <point x="796" y="851" type="curve"/>
      <point x="801" y="918"/>
      <point x="765" y="983"/>
      <point x="765" y="1040" type="curve" smooth="yes"/>
      <point x="765" y="1116"/>
      <point x="812" y="1163"/>
      <point x="892" y="1163" type="curve" smooth="yes"/>
      <point x="1010" y="1163"/>
      <point x="1041" y="1071"/>
      <point x="1042" y="955" type="curve" smooth="yes"/>
      <point x="1044" y="770"/>
      <point x="867" y="482"/>
      <point x="740" y="303" type="curve"/>
      <point x="495" y="-9" type="line"/>
    </contour>
  </outline>
</glyph>
<glyph name="x" format="1">
  <advance width="1019"/>
  <unicode hex="0078"/>
  <outline>
    <contour>
      <point x="-61" y="0" type="line"/>
      <point x="386" y="587" type="line"/>
      <point x="212" y="939" type="line"/>
      <point x="192" y="977"/>
      <point x="174" y="1008"/>
      <point x="148" y="1008" type="curve" smooth="yes"/>
      <point x="122" y="1008"/>
      <point x="103" y="1002"/>
      <point x="66" y="976" type="curve"/>
      <point x="29" y="1045" type="line"/>
      <point x="46" y="1069"/>
      <point x="152" y="1163"/>
      <point x="292" y="1163" type="curve" smooth="yes"/>
      <point x="390" y="1163"/>
      <point x="433" y="1126"/>
      <point x="456" y="1059" type="curve" smooth="yes"/>
      <point x="556" y="762" type="line"/>
      <point x="812" y="1155" type="line"/>
      <point x="1071" y="1155" type="line"/>
      <point x="627" y="574" type="line"/>
      <point x="805" y="233" type="line" smooth="yes"/>
      <point x="824" y="196"/>
      <point x="853" y="145"/>
      <point x="880" y="145" type="curve" smooth="yes"/>
      <point x="900" y="145"/>
      <point x="926" y="152"/>
      <point x="981" y="197" type="curve"/>
      <point x="1021" y="128" type="line"/>
      <point x="1005" y="100"/>
      <point x="892" y="-20"/>
      <point x="731" y="-20" type="curve" smooth="yes"/>
      <point x="636" y="-20"/>
      <point x="599" y="22"/>
      <point x="576" y="85" type="curve" smooth="yes"/>
      <point x="460" y="403" type="line"/>
      <point x="202" y="0" type="line"/>
    </contour>
  </outline>
</glyph>
<glyph name="z" format="1">
  <advance width="1035"/>
  <unicode hex="007A"/>
  <outline>
    <contour>
      <point x="-12" y="39" type="line"/>
      <point x="632" y="829" type="line"/>
      <point x="750" y="931" type="line"/>
      <point x="404" y="932" type="line" smooth="yes"/>
      <point x="304" y="932"/>
      <point x="235" y="863"/>
      <point x="225" y="776" type="curve"/>
      <point x="149" y="776" type="line"/>
      <point x="142" y="869"/>
      <point x="150" y="1104"/>
      <point x="223" y="1142" type="curve" smooth="yes"/>
      <point x="239" y="1151"/>
      <point x="274" y="1163"/>
      <point x="324" y="1163" type="curve" smooth="yes"/>
      <point x="477" y="1163"/>
      <point x="759" y="1128"/>
      <point x="882" y="1128" type="curve" smooth="yes"/>
      <point x="921" y="1128"/>
      <point x="965" y="1138"/>
      <point x="994" y="1161" type="curve"/>
      <point x="996" y="1163" type="line"/>
      <point x="1051" y="1103" type="line"/>
      <point x="402" y="298" type="line"/>
      <point x="297" y="205" type="line"/>
      <point x="672" y="205" type="line" smooth="yes"/>
      <point x="774" y="205"/>
      <point x="845" y="277"/>
      <point x="857" y="367" type="curve"/>
      <point x="930" y="367" type="line"/>
      <point x="936" y="274"/>
      <point x="927" y="45"/>
      <point x="855" y="-3" type="curve" smooth="yes"/>
      <point x="838" y="-15"/>
      <point x="803" y="-23"/>
      <point x="753" y="-23" type="curve" smooth="yes"/>
      <point x="600" y="-23"/>
      <point x="280" y="10"/>
      <point x="158" y="10" type="curve" smooth="yes"/>
      <point x="131" y="10"/>
      <point x="84" y="4"/>
      <point x="57" y="-18" type="curve"/>
      <point x="53" y="-23" type="line"/>
    </contour>
  </outline>
</glyph>
<glyph name="bar" format="1">
  <advance width="854"/>
  <unicode hex="007C"/>
  <outline>
    <contour>
      <point x="350" y="-186" type="line"/>
      <point x="350" y="1780" type="line"/>
      <point x="543" y="1780" type="line"/>
      <point x="543" y="-186" type="line"/>
    </contour>
  </outline>
</glyph>
<glyph name="braceright" format="1">
  <advance width="1034"/>
  <unicode hex="007D"/>
  <outline>
    <contour>
      <point x="796" y="1611" type="curve" smooth="yes"/>
      <point x="795" y="1582"/>
      <point x="704" y="967"/>
      <point x="704" y="967" type="curve"/>
      <point x="704" y="945"/>
      <point x="724" y="921"/>
      <point x="756" y="900" type="curve" smooth="yes"/>
      <point x="799" y="871"/>
      <point x="862" y="846"/>
      <point x="921" y="832" type="curve"/>
      <point x="903" y="708" type="line"/>
      <point x="838" y="692"/>
      <point x="763" y="670"/>
      <point x="711" y="643" type="curve" smooth="yes"/>
      <point x="675" y="624"/>
      <point x="650" y="603"/>
      <point x="646" y="580" type="curve" smooth="yes"/>
      <point x="565" y="48" type="line" smooth="yes"/>
      <point x="534" y="-150"/>
      <point x="447" y="-204"/>
      <point x="290" y="-204" type="curve" smooth="yes"/>
      <point x="201" y="-204"/>
      <point x="30" y="-157"/>
      <point x="30" y="-157" type="curve"/>
      <point x="30" y="-157"/>
      <point x="46" y="-74"/>
      <point x="47" y="-55" type="curve"/>
      <point x="323" y="-55" type="line"/>
      <point x="419" y="576" type="line" smooth="yes"/>
      <point x="427" y="630"/>
      <point x="464" y="667"/>
      <point x="517" y="700" type="curve" smooth="yes"/>
      <point x="546" y="717"/>
      <point x="662" y="770"/>
      <point x="662" y="770" type="curve"/>
      <point x="603" y="801"/>
      <point x="549" y="832"/>
      <point x="520" y="862" type="curve" smooth="yes"/>
      <point x="490" y="893"/>
      <point x="473" y="930"/>
      <point x="479" y="971" type="curve" smooth="yes"/>
      <point x="574" y="1601" type="line"/>
      <point x="299" y="1601" type="line"/>
      <point x="302" y="1616"/>
      <point x="313" y="1707"/>
      <point x="313" y="1707" type="curve"/>
      <point x="404" y="1733"/>
      <point x="478" y="1754"/>
      <point x="588" y="1754" type="curve" smooth="yes"/>
      <point x="713" y="1754"/>
      <point x="797" y="1721"/>
    </contour>
  </outline>
</glyph>
<glyph name="exclamdown" format="1">
  <advance width="701"/>
  <unicode hex="00A1"/>
  <outline>
    <contour>
      <point x="485" y="836" type="line"/>
      <point x="354" y="-434" type="line"/>
      <point x="64" y="-434" type="line"/>
      <point x="314" y="836" type="line"/>
    </contour>
    <contour>
      <point x="610" y="1222" type="curve" smooth="yes"/>
      <point x="604" y="1118"/>
      <point x="509" y="1048"/>
      <point x="426" y="1048" type="curve" smooth="yes"/>
      <point x="329" y="1048"/>
      <point x="288" y="1116"/>
      <point x="292" y="1191" type="curve" smooth="yes"/>
      <point x="298" y="1304"/>
      <point x="395" y="1365"/>
      <point x="482" y="1365" type="curve" smooth="yes"/>
      <point x="554" y="1365"/>
      <point x="615" y="1307"/>
    </contour>
  </outline>
</glyph>
<glyph name="yen" format="1">
  <advance width="1483"/>
  <unicode hex="00A5"/>
  <outline>
    <contour>
      <point x="330" y="0" type="line"/>
      <point x="340" y="97" type="line"/>
      <point x="588" y="127" type="line"/>
      <point x="618" y="376" type="line"/>
      <point x="234" y="376" type="line"/>
      <point x="250" y="515" type="line"/>
      <point x="634" y="515" type="line"/>
      <point x="659" y="716" type="line"/>
      <point x="273" y="716" type="line"/>
      <point x="289" y="857" type="line"/>
      <point x="595" y="857" type="line"/>
      <point x="298" y="1414" type="line"/>
      <point x="182" y="1436" type="line"/>
      <point x="195" y="1542" type="line"/>
      <point x="785" y="1542" type="line"/>
      <point x="772" y="1436" type="line"/>
      <point x="594" y="1415" type="line"/>
      <point x="778" y="1010" type="line"/>
      <point x="826" y="884" type="line"/>
      <point x="906" y="1014" type="line"/>
      <point x="1168" y="1419" type="line"/>
      <point x="1039" y="1436" type="line"/>
      <point x="1052" y="1542" type="line"/>
      <point x="1563" y="1542" type="line"/>
      <point x="1550" y="1437" type="line"/>
      <point x="1417" y="1409" type="line"/>
      <point x="997" y="857" type="line"/>
      <point x="1285" y="857" type="line"/>
      <point x="1269" y="716" type="line"/>
      <point x="897" y="716" type="line"/>
      <point x="872" y="515" type="line"/>
      <point x="1245" y="515" type="line"/>
      <point x="1229" y="376" type="line"/>
      <point x="855" y="376" type="line"/>
      <point x="825" y="127" type="line"/>
      <point x="1081" y="97" type="line"/>
      <point x="1072" y="0" type="line"/>
    </contour>
  </outline>
</glyph>
<glyph name="section" format="1">
  <advance width="1194"/>
  <unicode hex="00A7"/>
  <outline>
    <contour>
      <point x="53" y="-106" type="curve"/>
      <point x="101" y="234" type="line"/>
      <point x="247" y="234" type="line"/>
      <point x="278" y="18" type="line"/>
      <point x="326" y="-34"/>
      <point x="421" y="-57"/>
      <point x="522" y="-57" type="curve" smooth="yes"/>
      <point x="631" y="-56"/>
      <point x="774" y="-5"/>
      <point x="785" y="150" type="curve"/>
      <point x="801" y="399"/>
      <point x="118" y="379"/>
      <point x="141" y="795" type="curve" smooth="yes"/>
      <point x="147" y="909"/>
      <point x="207" y="1008"/>
      <point x="280" y="1083" type="curve"/>
      <point x="233" y="1139"/>
      <point x="205" y="1207"/>
      <point x="211" y="1296" type="curve" smooth="yes"/>
      <point x="228" y="1552"/>
      <point x="510" y="1673"/>
      <point x="731" y="1673" type="curve" smooth="yes"/>
      <point x="938" y="1673"/>
      <point x="1080" y="1632"/>
      <point x="1134" y="1598" type="curve"/>
      <point x="1088" y="1283" type="line"/>
      <point x="946" y="1283" type="line"/>
      <point x="905" y="1491" type="line"/>
      <point x="871" y="1526"/>
      <point x="805" y="1550"/>
      <point x="709" y="1549" type="curve" smooth="yes"/>
      <point x="614" y="1548"/>
      <point x="460" y="1522"/>
      <point x="449" y="1366" type="curve"/>
      <point x="431" y="1077"/>
      <point x="1110" y="1125"/>
      <point x="1085" y="704" type="curve"/>
      <point x="1079" y="579"/>
      <point x="1024" y="477"/>
      <point x="955" y="401" type="curve"/>
      <point x="999" y="346"/>
      <point x="1025" y="280"/>
      <point x="1020" y="195" type="curve" smooth="yes"/>
      <point x="1004" y="-52"/>
      <point x="740" y="-186"/>
      <point x="499" y="-186" type="curve" smooth="yes"/>
      <point x="314" y="-186"/>
      <point x="105" y="-140"/>
    </contour>
    <contour>
      <point x="366" y="868" type="curve" smooth="yes"/>
      <point x="354" y="681"/>
      <point x="637" y="628"/>
      <point x="835" y="503" type="curve"/>
      <point x="853" y="535"/>
      <point x="865" y="571"/>
      <point x="867" y="608" type="curve" smooth="yes"/>
      <point x="881" y="802"/>
      <point x="602" y="859"/>
      <point x="404" y="981" type="curve"/>
      <point x="384" y="948"/>
      <point x="369" y="911"/>
    </contour>
  </outline>
</glyph>
<glyph name="dieresis" format="1">
  <advance width="809"/>
  <unicode hex="00A8"/>
  <outline>
    <contour>
      <point x="604" y="1363" type="curve" smooth="yes"/>
      <point x="532" y="1363"/>
      <point x="473" y="1433"/>
      <point x="475" y="1507" type="curve" smooth="yes"/>
      <point x="478" y="1599"/>
      <point x="543" y="1676"/>
      <point x="636" y="1676" type="curve" smooth="yes"/>
      <point x="721" y="1676"/>
      <point x="774" y="1609"/>
      <point x="772" y="1538" type="curve" smooth="yes"/>
      <point x="769" y="1444"/>
      <point x="708" y="1363"/>
    </contour>
    <contour>
      <point x="168" y="1363" type="curve" smooth="yes"/>
      <point x="96" y="1363"/>
      <point x="37" y="1433"/>
      <point x="39" y="1507" type="curve" smooth="yes"/>
      <point x="42" y="1599"/>
      <point x="107" y="1676"/>
      <point x="200" y="1676" type="curve" smooth="yes"/>
      <point x="285" y="1676"/>
      <point x="338" y="1609"/>
      <point x="336" y="1538" type="curve" smooth="yes"/>
      <point x="333" y="1444"/>
      <point x="272" y="1363"/>
    </contour>
  </outline>
</glyph>
<glyph name="copyright" format="1">
  <advance width="1768"/>
  <unicode hex="00A9"/>
  <outline>
    <contour>
      <point x="168" y="806" type="curve" smooth="yes"/>
      <point x="168" y="1230"/>
      <point x="512" y="1569"/>
      <point x="933" y="1569" type="curve" smooth="yes"/>
      <point x="1355" y="1569"/>
      <point x="1699" y="1230"/>
      <point x="1699" y="806" type="curve" smooth="yes"/>
      <point x="1699" y="382"/>
      <point x="1355" y="42"/>
      <point x="933" y="42" type="curve" smooth="yes"/>
      <point x="512" y="42"/>
      <point x="168" y="382"/>
    </contour>
    <contour>
      <point x="297" y="806" type="curve" smooth="yes"/>
      <point x="297" y="449"/>
      <point x="577" y="158"/>
      <point x="933" y="158" type="curve" smooth="yes"/>
      <point x="1290" y="158"/>
      <point x="1570" y="449"/>
      <point x="1570" y="806" type="curve" smooth="yes"/>
      <point x="1570" y="1162"/>
      <point x="1290" y="1454"/>
      <point x="933" y="1454" type="curve" smooth="yes"/>
      <point x="577" y="1454"/>
      <point x="297" y="1162"/>
    </contour>
    <contour>
      <point x="542" y="802" type="curve" smooth="yes"/>
      <point x="540" y="1042"/>
      <point x="701" y="1247"/>
      <point x="969" y="1247" type="curve" smooth="yes"/>
      <point x="1059" y="1247"/>
      <point x="1162" y="1231"/>
      <point x="1203" y="1209" type="curve"/>
      <point x="1203" y="989" type="line"/>
      <point x="1114" y="989" type="line"/>
      <point x="1065" y="1109" type="line"/>
      <point x="1036" y="1135"/>
      <point x="991" y="1148"/>
      <point x="938" y="1148" type="curve" smooth="yes"/>
      <point x="818" y="1148"/>
      <point x="722" y="1042"/>
      <point x="721" y="861" type="curve" smooth="yes"/>
      <point x="719" y="582"/>
      <point x="847" y="489"/>
      <point x="959" y="489" type="curve" smooth="yes"/>
      <point x="1055" y="489"/>
      <point x="1135" y="519"/>
      <point x="1179" y="544" type="curve"/>
      <point x="1213" y="458" type="line"/>
      <point x="1156" y="411"/>
      <point x="1039" y="366"/>
      <point x="920" y="366" type="curve" smooth="yes"/>
      <point x="681" y="366"/>
      <point x="543" y="563"/>
    </contour>
  </outline>
</glyph>
<glyph name="ordfeminine" format="1">
  <advance width="854"/>
  <unicode hex="00AA"/>
  <outline>
    <contour>
      <point x="308" y="743" type="curve" smooth="yes"/>
      <point x="154" y="743"/>
      <point x="69" y="857"/>
      <point x="69" y="1040" type="curve" smooth="yes"/>
      <point x="69" y="1294"/>
      <point x="295" y="1576"/>
      <point x="598" y="1577" type="curve" smooth="yes"/>
      <point x="657" y="1577"/>
      <point x="725" y="1564"/>
      <point x="770" y="1549" type="curve"/>
      <point x="895" y="1586" type="line"/>
      <point x="776" y="906" type="line"/>
      <point x="772" y="873"/>
      <point x="777" y="852"/>
      <point x="788" y="852" type="curve" smooth="yes"/>
      <point x="799" y="852"/>
      <point x="813" y="855"/>
      <point x="844" y="872" type="curve"/>
      <point x="872" y="825" type="line"/>
      <point x="861" y="810"/>
      <point x="753" y="743"/>
      <point x="668" y="743" type="curve" smooth="yes"/>
      <point x="593" y="743"/>
      <point x="549" y="796"/>
      <point x="561" y="869" type="curve"/>
      <point x="511" y="809"/>
      <point x="438" y="743"/>
    </contour>
    <contour>
      <point x="413" y="871" type="curve" smooth="yes"/>
      <point x="464" y="871"/>
      <point x="522" y="907"/>
      <point x="562" y="944" type="curve"/>
      <point x="648" y="1442" type="line"/>
      <point x="625" y="1463"/>
      <point x="598" y="1475"/>
      <point x="573" y="1475" type="curve" smooth="yes"/>
      <point x="378" y="1475"/>
      <point x="303" y="1249"/>
      <point x="303" y="1055" type="curve" smooth="yes"/>
      <point x="303" y="935"/>
      <point x="330" y="871"/>
    </contour>
  </outline>
</glyph>
<glyph name="degree" format="1">
  <advance width="928"/>
  <unicode hex="00B0"/>
  <outline>
    <contour>
      <point x="523" y="945" type="curve" smooth="yes"/>
      <point x="332" y="945"/>
      <point x="190" y="1095"/>
      <point x="193" y="1278" type="curve" smooth="yes"/>
      <point x="196" y="1467"/>
      <point x="343" y="1611"/>
      <point x="543" y="1611" type="curve" smooth="yes"/>
      <point x="734" y="1611"/>
      <point x="878" y="1461"/>
      <point x="875" y="1278" type="curve" smooth="yes"/>
      <point x="872" y="1087"/>
      <point x="722" y="945"/>
    </contour>
    <contour>
      <point x="530" y="1084" type="curve" smooth="yes"/>
      <point x="637" y="1084"/>
      <point x="716" y="1167"/>
      <point x="717" y="1278" type="curve"/>
      <point x="719" y="1385"/>
      <point x="639" y="1472"/>
      <point x="537" y="1472" type="curve" smooth="yes"/>
      <point x="430" y="1472"/>
      <point x="353" y="1389"/>
      <point x="351" y="1278" type="curve" smooth="yes"/>
      <point x="349" y="1171"/>
      <point x="428" y="1084"/>
    </contour>
  </outline>
</glyph>
<glyph name="plusminus" format="1">
  <advance width="1350"/>
  <unicode hex="00B1"/>
  <outline>
    <contour>
      <point x="547" y="285" type="line"/>
      <point x="574" y="526" type="line"/>
      <point x="600" y="690" type="line"/>
      <point x="459" y="683" type="line"/>
      <point x="249" y="683" type="line"/>
      <point x="267" y="861" type="line"/>
      <point x="487" y="861" type="line"/>
      <point x="626" y="850" type="line"/>
      <point x="639" y="1015" type="line"/>
      <point x="666" y="1245" type="line"/>
      <point x="864" y="1245" type="line"/>
      <point x="838" y="1015" type="line"/>
      <point x="809" y="851" type="line"/>
      <point x="924" y="861" type="line"/>
      <point x="1164" y="861" type="line"/>
      <point x="1146" y="683" type="line"/>
      <point x="896" y="683" type="line"/>
      <point x="784" y="690" type="line"/>
      <point x="781" y="635"/>
      <point x="776" y="581"/>
      <point x="773" y="526" type="curve"/>
      <point x="746" y="285" type="line"/>
    </contour>
    <contour>
      <point x="180" y="15" type="line"/>
      <point x="197" y="180" type="line"/>
      <point x="1056" y="180" type="line"/>
      <point x="1039" y="15" type="line"/>
    </contour>
  </outline>
</glyph>
<glyph name="twosuperior" format="1">
  <advance width="1163"/>
  <unicode hex="00B2"/>
  <outline>
    <contour>
      <point x="220" y="637" type="line"/>
      <point x="175" y="733" type="line"/>
      <point x="334" y="823"/>
      <point x="784" y="1107"/>
      <point x="784" y="1343" type="curve" smooth="yes"/>
      <point x="784" y="1431"/>
      <point x="714" y="1489"/>
      <point x="610" y="1489" type="curve" smooth="yes"/>
      <point x="503" y="1489"/>
      <point x="394" y="1437"/>
      <point x="309" y="1346" type="curve"/>
      <point x="234" y="1450" type="line"/>
      <point x="294" y="1530"/>
      <point x="483" y="1655"/>
      <point x="670" y="1657" type="curve" smooth="yes"/>
      <point x="938" y="1661"/>
      <point x="1021" y="1516"/>
      <point x="1021" y="1397" type="curve" smooth="yes"/>
      <point x="1021" y="1157"/>
      <point x="801" y="974"/>
      <point x="492" y="778" type="curve"/>
      <point x="920" y="813" type="line"/>
      <point x="1010" y="948" type="line"/>
      <point x="1113" y="919" type="line"/>
      <point x="1023" y="637" type="line"/>
    </contour>
  </outline>
</glyph>
<glyph name="threesuperior" format="1">
  <advance width="1071"/>
  <unicode hex="00B3"/>
  <outline>
    <contour>
      <point x="170" y="620" type="curve"/>
      <point x="187" y="748" type="line"/>
      <point x="257" y="713"/>
      <point x="370" y="696"/>
      <point x="435" y="697" type="curve"/>
      <point x="566" y="697"/>
      <point x="732" y="748"/>
      <point x="734" y="915" type="curve"/>
      <point x="737" y="1008"/>
      <point x="664" y="1047"/>
      <point x="559" y="1050" type="curve"/>
      <point x="370" y="1005" type="line"/>
      <point x="395" y="1154" type="line"/>
      <point x="542" y="1182"/>
      <point x="730" y="1253"/>
      <point x="741" y="1411" type="curve" smooth="yes"/>
      <point x="745" y="1470"/>
      <point x="694" y="1512"/>
      <point x="585" y="1511" type="curve" smooth="yes"/>
      <point x="498" y="1510"/>
      <point x="396" y="1474"/>
      <point x="316" y="1417" type="curve"/>
      <point x="275" y="1534" type="line"/>
      <point x="383" y="1613"/>
      <point x="528" y="1658"/>
      <point x="664" y="1658" type="curve" smooth="yes"/>
      <point x="884" y="1658"/>
      <point x="991" y="1567"/>
      <point x="989" y="1430" type="curve" smooth="yes"/>
      <point x="987" y="1281"/>
      <point x="868" y="1196"/>
      <point x="706" y="1143" type="curve"/>
      <point x="926" y="1143"/>
      <point x="978" y="1005"/>
      <point x="976" y="912" type="curve" smooth="yes"/>
      <point x="972" y="667"/>
      <point x="695" y="548"/>
      <point x="450" y="548" type="curve" smooth="yes"/>
      <point x="379" y="548"/>
      <point x="247" y="571"/>
    </contour>
  </outline>
</glyph>
<glyph name="acute" format="1">
  <advance width="559"/>
  <unicode hex="00B4"/>
  <outline>
    <contour>
      <point x="128" y="1241" type="curve"/>
      <point x="50" y="1312" type="line"/>
      <point x="367" y="1743" type="line"/>
      <point x="534" y="1566" type="line"/>
      <point x="498" y="1498"/>
      <point x="247" y="1287"/>
    </contour>
  </outline>
</glyph>
<glyph name="paragraph" format="1">
  <advance width="1364"/>
  <unicode hex="00B6"/>
  <outline>
    <contour>
      <point x="196" y="0" type="line"/>
      <point x="204" y="87" type="line"/>
      <point x="389" y="117" type="line"/>
      <point x="469" y="726" type="line"/>
      <point x="262" y="729"/>
      <point x="112" y="877"/>
      <point x="110" y="1095" type="curve" smooth="yes"/>
      <point x="108" y="1391"/>
      <point x="286" y="1571"/>
      <point x="715" y="1571" type="curve" smooth="yes"/>
      <point x="883" y="1571"/>
      <point x="955" y="1555"/>
      <point x="1115" y="1552" type="curve"/>
      <point x="1393" y="1552" type="line"/>
      <point x="1382" y="1449" type="line"/>
      <point x="1215" y="1416" type="line"/>
      <point x="1166" y="1002"/>
      <point x="1100" y="531"/>
      <point x="1051" y="116" type="curve"/>
      <point x="1196" y="86" type="line"/>
      <point x="1187" y="0" type="line"/>
      <point x="801" y="0" type="line"/>
      <point x="976" y="1414" type="line"/>
      <point x="782" y="1414" type="line"/>
      <point x="605" y="0" type="line"/>
    </contour>
  </outline>
</glyph>
<glyph name="periodcentered" format="1">
  <advance width="701"/>
  <unicode hex="00B7"/>
  <outline>
    <contour>
      <point x="189" y="768" type="curve" smooth="yes"/>
      <point x="195" y="872"/>
      <point x="281" y="942"/>
      <point x="364" y="942" type="curve" smooth="yes"/>
      <point x="461" y="942"/>
      <point x="502" y="874"/>
      <point x="498" y="799" type="curve" smooth="yes"/>
      <point x="492" y="686"/>
      <point x="400" y="625"/>
      <point x="313" y="625" type="curve" smooth="yes"/>
      <point x="240" y="625"/>
      <point x="184" y="683"/>
    </contour>
  </outline>
</glyph>
<glyph name="cedilla" format="1">
  <advance width="479"/>
  <unicode hex="00B8"/>
  <outline>
    <contour>
      <point x="260" y="30" type="curve"/>
      <point x="327" y="34" type="line"/>
      <point x="395" y="30" type="line"/>
      <point x="423" y="-9"/>
      <point x="440" y="-121"/>
      <point x="435" y="-212" type="curve" smooth="yes"/>
      <point x="423" y="-399"/>
      <point x="335" y="-474"/>
      <point x="152" y="-474" type="curve" smooth="yes"/>
      <point x="99" y="-474"/>
      <point x="6" y="-462"/>
      <point x="-16" y="-446" type="curve"/>
      <point x="19" y="-304" type="line"/>
      <point x="36" y="-313"/>
      <point x="63" y="-319"/>
      <point x="94" y="-319" type="curve" smooth="yes"/>
      <point x="186" y="-319"/>
      <point x="259" y="-275"/>
      <point x="270" y="-137" type="curve" smooth="yes"/>
      <point x="276" y="-57"/>
      <point x="267" y="-2"/>
    </contour>
  </outline>
</glyph>
<glyph name="onequarter" format="1">
  <advance width="2560"/>
  <unicode hex="00BC"/>
  <outline>
    <contour>
      <point x="1862" y="-176" type="line"/>
      <point x="1909" y="161" type="line"/>
      <point x="1389" y="161" type="line"/>
      <point x="1352" y="256" type="line"/>
      <point x="1942" y="1113" type="line"/>
      <point x="2065" y="1114" type="line"/>
      <point x="2173" y="1010" type="line"/>
      <point x="1690" y="402" type="line"/>
      <point x="1587" y="289" type="line"/>
      <point x="1930" y="309" type="line"/>
      <point x="1965" y="561" type="line"/>
      <point x="2190" y="584" type="line"/>
      <point x="2154" y="322" type="line"/>
      <point x="2381" y="336" type="line"/>
      <point x="2361" y="161" type="line"/>
      <point x="2132" y="161" type="line"/>
      <point x="2087" y="-176" type="line"/>
    </contour>
    <contour>
      <point x="796" y="0" type="line"/>
      <point x="1477" y="1530" type="line"/>
      <point x="1666" y="1530" type="line"/>
      <point x="985" y="0" type="line"/>
    </contour>
    <contour>
      <point x="273" y="636" type="line"/>
      <point x="284" y="734" type="line"/>
      <point x="500" y="760" type="line"/>
      <point x="584" y="1385" type="line"/>
      <point x="343" y="1338" type="line"/>
      <point x="334" y="1446" type="line"/>
      <point x="454" y="1481"/>
      <point x="694" y="1604"/>
      <point x="745" y="1645" type="curve"/>
      <point x="839" y="1624" type="line"/>
      <point x="720" y="760" type="line"/>
      <point x="940" y="733" type="line"/>
      <point x="929" y="636" type="line"/>
    </contour>
  </outline>
</glyph>
<glyph name="onehalf" format="1">
  <advance width="2560"/>
  <unicode hex="00BD"/>
  <outline>
    <contour>
      <point x="1455" y="-78" type="line"/>
      <point x="1410" y="18" type="line"/>
      <point x="1569" y="108"/>
      <point x="2019" y="392"/>
      <point x="2019" y="628" type="curve" smooth="yes"/>
      <point x="2019" y="716"/>
      <point x="1949" y="774"/>
      <point x="1845" y="774" type="curve" smooth="yes"/>
      <point x="1738" y="774"/>
      <point x="1629" y="722"/>
      <point x="1544" y="631" type="curve"/>
      <point x="1469" y="735" type="line"/>
      <point x="1529" y="815"/>
      <point x="1718" y="940"/>
      <point x="1905" y="942" type="curve" smooth="yes"/>
      <point x="2173" y="946"/>
      <point x="2256" y="801"/>
      <point x="2256" y="682" type="curve" smooth="yes"/>
      <point x="2256" y="442"/>
      <point x="2036" y="259"/>
      <point x="1727" y="63" type="curve"/>
      <point x="2155" y="98" type="line"/>
      <point x="2245" y="233" type="line"/>
      <point x="2348" y="204" type="line"/>
      <point x="2258" y="-78" type="line"/>
    </contour>
    <contour>
      <point x="796" y="0" type="line"/>
      <point x="1477" y="1530" type="line"/>
      <point x="1666" y="1530" type="line"/>
      <point x="985" y="0" type="line"/>
    </contour>
    <contour>
      <point x="273" y="636" type="line"/>
      <point x="284" y="734" type="line"/>
      <point x="500" y="760" type="line"/>
      <point x="584" y="1385" type="line"/>
      <point x="343" y="1338" type="line"/>
      <point x="334" y="1446" type="line"/>
      <point x="454" y="1481"/>
      <point x="694" y="1604"/>
      <point x="745" y="1645" type="curve"/>
      <point x="839" y="1624" type="line"/>
      <point x="720" y="760" type="line"/>
      <point x="940" y="733" type="line"/>
      <point x="929" y="636" type="line"/>
    </contour>
  </outline>
</glyph>
<glyph name="threequarters" format="1">
  <advance width="2568"/>
  <unicode hex="00BE"/>
  <outline>
    <contour>
      <point x="1862" y="-176" type="line"/>
      <point x="1909" y="161" type="line"/>
      <point x="1389" y="161" type="line"/>
      <point x="1352" y="256" type="line"/>
      <point x="1942" y="1113" type="line"/>
      <point x="2065" y="1114" type="line"/>
      <point x="2173" y="1010" type="line"/>
      <point x="1690" y="402" type="line"/>
      <point x="1587" y="289" type="line"/>
      <point x="1930" y="309" type="line"/>
      <point x="1965" y="561" type="line"/>
      <point x="2190" y="584" type="line"/>
      <point x="2154" y="322" type="line"/>
      <point x="2381" y="336" type="line"/>
      <point x="2361" y="161" type="line"/>
      <point x="2132" y="161" type="line"/>
      <point x="2087" y="-176" type="line"/>
    </contour>
    <contour>
      <point x="212" y="620" type="curve"/>
      <point x="229" y="748" type="line"/>
      <point x="299" y="713"/>
      <point x="412" y="696"/>
      <point x="477" y="697" type="curve"/>
      <point x="608" y="697"/>
      <point x="774" y="748"/>
      <point x="776" y="915" type="curve"/>
      <point x="779" y="1008"/>
      <point x="706" y="1047"/>
      <point x="601" y="1050" type="curve"/>
      <point x="412" y="1005" type="line"/>
      <point x="437" y="1154" type="line"/>
      <point x="584" y="1182"/>
      <point x="772" y="1253"/>
      <point x="783" y="1411" type="curve" smooth="yes"/>
      <point x="787" y="1470"/>
      <point x="736" y="1512"/>
      <point x="627" y="1511" type="curve" smooth="yes"/>
      <point x="540" y="1510"/>
      <point x="438" y="1474"/>
      <point x="358" y="1417" type="curve"/>
      <point x="317" y="1534" type="line"/>
      <point x="425" y="1613"/>
      <point x="570" y="1658"/>
      <point x="706" y="1658" type="curve" smooth="yes"/>
      <point x="926" y="1658"/>
      <point x="1033" y="1567"/>
      <point x="1031" y="1430" type="curve" smooth="yes"/>
      <point x="1029" y="1281"/>
      <point x="910" y="1196"/>
      <point x="748" y="1143" type="curve"/>
      <point x="968" y="1143"/>
      <point x="1020" y="1005"/>
      <point x="1018" y="912" type="curve" smooth="yes"/>
      <point x="1014" y="667"/>
      <point x="737" y="548"/>
      <point x="492" y="548" type="curve" smooth="yes"/>
      <point x="421" y="548"/>
      <point x="289" y="571"/>
    </contour>
    <contour>
      <point x="824" y="0" type="line"/>
      <point x="1505" y="1530" type="line"/>
      <point x="1694" y="1530" type="line"/>
      <point x="1013" y="0" type="line"/>
    </contour>
  </outline>
</glyph>
<glyph name="Agrave" format="1">
  <advance width="1359"/>
  <unicode hex="00C0"/>
  <outline>
    <contour>
      <point x="7" y="125" type="line"/>
      <point x="687" y="1530" type="line"/>
      <point x="960" y="1530" type="line"/>
      <point x="1210" y="128" type="line"/>
      <point x="1368" y="96" type="line"/>
      <point x="1362" y="0" type="line"/>
      <point x="773" y="0" type="line"/>
      <point x="779" y="96" type="line"/>
      <point x="925" y="125" type="line"/>
      <point x="880" y="426" type="line"/>
      <point x="349" y="426" type="line"/>
      <point x="213" y="126" type="line"/>
      <point x="381" y="96" type="line"/>
      <point x="374" y="0" type="line"/>
      <point x="-141" y="0" type="line"/>
      <point x="-132" y="96" type="line"/>
    </contour>
    <contour>
      <point x="410" y="562" type="line"/>
      <point x="860" y="562" type="line"/>
      <point x="768" y="1177" type="line"/>
      <point x="758" y="1330" type="line"/>
    </contour>
    <contour>
      <point x="834" y="1592" type="line"/>
      <point x="738" y="1628"/>
      <point x="542" y="1739"/>
      <point x="490" y="1846" type="curve"/>
      <point x="650" y="2007" type="line"/>
      <point x="920" y="1665" type="line"/>
    </contour>
  </outline>
</glyph>
<glyph name="Adieresis" format="1">
  <advance width="1359"/>
  <unicode hex="00C4"/>
  <outline>
    <contour>
      <point x="7" y="125" type="line"/>
      <point x="687" y="1530" type="line"/>
      <point x="960" y="1530" type="line"/>
      <point x="1210" y="128" type="line"/>
      <point x="1368" y="96" type="line"/>
      <point x="1362" y="0" type="line"/>
      <point x="773" y="0" type="line"/>
      <point x="779" y="96" type="line"/>
      <point x="925" y="125" type="line"/>
      <point x="880" y="426" type="line"/>
      <point x="349" y="426" type="line"/>
      <point x="213" y="126" type="line"/>
      <point x="381" y="96" type="line"/>
      <point x="374" y="0" type="line"/>
      <point x="-141" y="0" type="line"/>
      <point x="-132" y="96" type="line"/>
    </contour>
    <contour>
      <point x="410" y="562" type="line"/>
      <point x="860" y="562" type="line"/>
      <point x="768" y="1177" type="line"/>
      <point x="758" y="1330" type="line"/>
    </contour>
    <contour>
      <point x="1034" y="1679" type="curve" smooth="yes"/>
      <point x="963" y="1679"/>
      <point x="908" y="1737"/>
      <point x="909" y="1812" type="curve" smooth="yes"/>
      <point x="910" y="1905"/>
      <point x="983" y="1972"/>
      <point x="1066" y="1972" type="curve" smooth="yes"/>
      <point x="1152" y="1972"/>
      <point x="1200" y="1915"/>
      <point x="1198" y="1843" type="curve" smooth="yes"/>
      <point x="1195" y="1749"/>
      <point x="1133" y="1679"/>
    </contour>
    <contour>
      <point x="599" y="1679" type="curve" smooth="yes"/>
      <point x="527" y="1679"/>
      <point x="472" y="1738"/>
      <point x="475" y="1812" type="curve"/>
      <point x="477" y="1905"/>
      <point x="547" y="1972"/>
      <point x="630" y="1972" type="curve" smooth="yes"/>
      <point x="716" y="1972"/>
      <point x="764" y="1915"/>
      <point x="762" y="1843" type="curve" smooth="yes"/>
      <point x="760" y="1749"/>
      <point x="697" y="1679"/>
    </contour>
  </outline>
</glyph>
<glyph name="Aring" format="1">
  <advance width="1359"/>
  <unicode hex="00C5"/>
  <outline>
    <contour>
      <point x="7" y="125" type="line"/>
      <point x="672" y="1500" type="line"/>
      <point x="567" y="1535"/>
      <point x="511" y="1615"/>
      <point x="518" y="1731" type="curve" smooth="yes"/>
      <point x="530" y="1940"/>
      <point x="732" y="2007"/>
      <point x="885" y="2007" type="curve" smooth="yes"/>
      <point x="1066" y="2007"/>
      <point x="1182" y="1920"/>
      <point x="1173" y="1763" type="curve" smooth="yes"/>
      <point x="1165" y="1623"/>
      <point x="1076" y="1539"/>
      <point x="965" y="1502" type="curve"/>
      <point x="1210" y="128" type="line"/>
      <point x="1368" y="96" type="line"/>
      <point x="1362" y="0" type="line"/>
      <point x="773" y="0" type="line"/>
      <point x="779" y="96" type="line"/>
      <point x="925" y="125" type="line"/>
      <point x="880" y="426" type="line"/>
      <point x="349" y="426" type="line"/>
      <point x="213" y="126" type="line"/>
      <point x="381" y="96" type="line"/>
      <point x="374" y="0" type="line"/>
      <point x="-141" y="0" type="line"/>
      <point x="-132" y="96" type="line"/>
    </contour>
    <contour>
      <point x="830" y="1592" type="curve" smooth="yes"/>
      <point x="919" y="1591"/>
      <point x="999" y="1621"/>
      <point x="1006" y="1746" type="curve" smooth="yes"/>
      <point x="1012" y="1836"/>
      <point x="947" y="1895"/>
      <point x="864" y="1895" type="curve" smooth="yes"/>
      <point x="776" y="1896"/>
      <point x="692" y="1859"/>
      <point x="685" y="1742" type="curve" smooth="yes"/>
      <point x="680" y="1656"/>
      <point x="749" y="1593"/>
    </contour>
    <contour>
      <point x="410" y="562" type="line"/>
      <point x="860" y="562" type="line"/>
      <point x="768" y="1177" type="line"/>
      <point x="758" y="1330" type="line"/>
    </contour>
  </outline>
</glyph>
<glyph name="AE" format="1">
  <advance width="1947"/>
  <unicode hex="00C6"/>
  <outline>
    <contour>
      <point x="4" y="126" type="line"/>
      <point x="740" y="1401" type="line"/>
      <point x="426" y="1425" type="line"/>
      <point x="441" y="1530" type="line"/>
      <point x="1882" y="1530" type="line"/>
      <point x="1860" y="1201" type="line"/>
      <point x="1701" y="1201" type="line"/>
      <point x="1660" y="1396" type="line"/>
      <point x="1286" y="1416" type="line"/>
      <point x="1217" y="868" type="line"/>
      <point x="1636" y="883" type="line"/>
      <point x="1619" y="696" type="line"/>
      <point x="1201" y="717" type="line"/>
      <point x="1125" y="126" type="line"/>
      <point x="1621" y="156" type="line"/>
      <point x="1728" y="397" type="line"/>
      <point x="1886" y="374" type="line"/>
      <point x="1818" y="0" type="line"/>
      <point x="684" y="0" type="line"/>
      <point x="696" y="96" type="line"/>
      <point x="851" y="126" type="line"/>
      <point x="890" y="446" type="line"/>
      <point x="417" y="446" type="line"/>
      <point x="247" y="126" type="line"/>
      <point x="436" y="96" type="line"/>
      <point x="429" y="0" type="line"/>
      <point x="-163" y="0" type="line"/>
      <point x="-152" y="96" type="line"/>
    </contour>
    <contour>
      <point x="489" y="582" type="line"/>
      <point x="906" y="582" type="line"/>
      <point x="1005" y="1397" type="line"/>
      <point x="923" y="1399" type="line"/>
    </contour>
  </outline>
</glyph>
<glyph name="Igrave" format="1">
  <advance width="745"/>
  <unicode hex="00CC"/>
  <outline>
    <contour>
      <point x="6" y="0" type="line"/>
      <point x="17" y="96" type="line"/>
      <point x="166" y="126" type="line"/>
      <point x="329" y="1400" type="line"/>
      <point x="189" y="1425" type="line"/>
      <point x="201" y="1530" type="line"/>
      <point x="778" y="1530" type="line"/>
      <point x="767" y="1425" type="line"/>
      <point x="604" y="1400" type="line"/>
      <point x="441" y="126" type="line"/>
      <point x="607" y="97" type="line"/>
      <point x="600" y="0" type="line"/>
    </contour>
    <contour>
      <point x="538" y="1592" type="line"/>
      <point x="442" y="1628"/>
      <point x="246" y="1739"/>
      <point x="194" y="1846" type="curve"/>
      <point x="354" y="2007" type="line"/>
      <point x="624" y="1665" type="line"/>
    </contour>
  </outline>
</glyph>
<glyph name="Iacute" format="1">
  <advance width="745"/>
  <unicode hex="00CD"/>
  <outline>
    <contour>
      <point x="6" y="0" type="line"/>
      <point x="17" y="96" type="line"/>
      <point x="166" y="126" type="line"/>
      <point x="329" y="1400" type="line"/>
      <point x="189" y="1425" type="line"/>
      <point x="201" y="1530" type="line"/>
      <point x="778" y="1530" type="line"/>
      <point x="767" y="1425" type="line"/>
      <point x="604" y="1400" type="line"/>
      <point x="441" y="126" type="line"/>
      <point x="607" y="97" type="line"/>
      <point x="600" y="0" type="line"/>
    </contour>
    <contour>
      <point x="532" y="1592" type="curve"/>
      <point x="448" y="1665" type="line"/>
      <point x="724" y="2007" type="line"/>
      <point x="879" y="1846" type="line"/>
      <point x="827" y="1740"/>
      <point x="628" y="1628"/>
    </contour>
  </outline>
</glyph>
<glyph name="Icircumflex" format="1">
  <advance width="745"/>
  <unicode hex="00CE"/>
  <outline>
    <contour>
      <point x="6" y="0" type="line"/>
      <point x="17" y="96" type="line"/>
      <point x="166" y="126" type="line"/>
      <point x="329" y="1400" type="line"/>
      <point x="189" y="1425" type="line"/>
      <point x="201" y="1530" type="line"/>
      <point x="778" y="1530" type="line"/>
      <point x="767" y="1425" type="line"/>
      <point x="604" y="1400" type="line"/>
      <point x="441" y="126" type="line"/>
      <point x="607" y="97" type="line"/>
      <point x="600" y="0" type="line"/>
    </contour>
    <contour>
      <point x="264" y="1607" type="line"/>
      <point x="180" y="1665" type="line"/>
      <point x="516" y="2007" type="line"/>
      <point x="694" y="2007" type="line"/>
      <point x="905" y="1665" type="line"/>
      <point x="809" y="1606" type="line"/>
      <point x="588" y="1824" type="line"/>
    </contour>
  </outline>
</glyph>
<glyph name="Idieresis" format="1">
  <advance width="745"/>
  <unicode hex="00CF"/>
  <outline>
    <contour>
      <point x="6" y="0" type="line"/>
      <point x="17" y="96" type="line"/>
      <point x="166" y="126" type="line"/>
      <point x="329" y="1400" type="line"/>
      <point x="189" y="1425" type="line"/>
      <point x="201" y="1530" type="line"/>
      <point x="778" y="1530" type="line"/>
      <point x="767" y="1425" type="line"/>
      <point x="604" y="1400" type="line"/>
      <point x="441" y="126" type="line"/>
      <point x="607" y="97" type="line"/>
      <point x="600" y="0" type="line"/>
    </contour>
    <contour>
      <point x="738" y="1679" type="curve" smooth="yes"/>
      <point x="667" y="1679"/>
      <point x="612" y="1737"/>
      <point x="613" y="1812" type="curve" smooth="yes"/>
      <point x="614" y="1905"/>
      <point x="687" y="1972"/>
      <point x="770" y="1972" type="curve" smooth="yes"/>
      <point x="856" y="1972"/>
      <point x="904" y="1915"/>
      <point x="902" y="1843" type="curve" smooth="yes"/>
      <point x="899" y="1749"/>
      <point x="837" y="1679"/>
    </contour>
    <contour>
      <point x="303" y="1679" type="curve" smooth="yes"/>
      <point x="231" y="1679"/>
      <point x="176" y="1738"/>
      <point x="179" y="1812" type="curve"/>
      <point x="181" y="1905"/>
      <point x="251" y="1972"/>
      <point x="334" y="1972" type="curve" smooth="yes"/>
      <point x="420" y="1972"/>
      <point x="468" y="1915"/>
      <point x="466" y="1843" type="curve" smooth="yes"/>
      <point x="464" y="1749"/>
      <point x="401" y="1679"/>
    </contour>
  </outline>
</glyph>
<glyph name="Ntilde" format="1">
  <advance width="1531"/>
  <unicode hex="00D1"/>
  <outline>
    <contour>
      <point x="660" y="1697" type="curve"/>
      <point x="598" y="1801" type="line"/>
      <point x="640" y="1886"/>
      <point x="748" y="1970"/>
      <point x="850" y="1970" type="curve" smooth="yes"/>
      <point x="994" y="1970"/>
      <point x="1023" y="1825"/>
      <point x="1118" y="1825" type="curve" smooth="yes"/>
      <point x="1192" y="1825"/>
      <point x="1233" y="1882"/>
      <point x="1271" y="1930" type="curve"/>
      <point x="1344" y="1819" type="line"/>
      <point x="1310" y="1725"/>
      <point x="1202" y="1638"/>
      <point x="1093" y="1638" type="curve" smooth="yes"/>
      <point x="923" y="1638"/>
      <point x="923" y="1781"/>
      <point x="807" y="1783" type="curve" smooth="yes"/>
      <point x="754" y="1784"/>
      <point x="698" y="1737"/>
    </contour>
    <contour>
      <point x="1" y="0" type="line"/>
      <point x="9" y="96" type="line"/>
      <point x="151" y="125" type="line"/>
      <point x="329" y="1400" type="line"/>
      <point x="171" y="1425" type="line"/>
      <point x="187" y="1530" type="line"/>
      <point x="635" y="1530" type="line"/>
      <point x="1059" y="477" type="line"/>
      <point x="1128" y="265" type="line"/>
      <point x="1264" y="1401" type="line"/>
      <point x="1108" y="1425" type="line"/>
      <point x="1120" y="1530" type="line"/>
      <point x="1596" y="1530" type="line"/>
      <point x="1586" y="1425" type="line"/>
      <point x="1451" y="1400" type="line"/>
      <point x="1244" y="0" type="line"/>
      <point x="971" y="0" type="line"/>
      <point x="536" y="1062" type="line"/>
      <point x="469" y="1280" type="line"/>
      <point x="346" y="126" type="line"/>
      <point x="518" y="97" type="line"/>
      <point x="509" y="0" type="line"/>
    </contour>
  </outline>
</glyph>
<glyph name="multiply" format="1">
  <advance width="1370"/>
  <unicode hex="00D7"/>
  <outline>
    <contour>
      <point x="333" y="301" type="curve"/>
      <point x="217" y="439" type="line"/>
      <point x="600" y="766" type="line"/>
      <point x="299" y="1093" type="line"/>
      <point x="446" y="1230" type="line"/>
      <point x="727" y="880" type="line"/>
      <point x="787" y="936"/>
      <point x="1037" y="1174"/>
      <point x="1096" y="1230" type="curve"/>
      <point x="1211" y="1091" type="line"/>
      <point x="829" y="765" type="line"/>
      <point x="1130" y="438" type="line"/>
      <point x="982" y="300" type="line"/>
      <point x="701" y="650" type="line"/>
      <point x="642" y="594"/>
      <point x="392" y="356"/>
    </contour>
  </outline>
</glyph>
<glyph name="Thorn" format="1">
  <advance width="1262"/>
  <unicode hex="00DE"/>
  <outline>
    <contour>
      <point x="4" y="0" type="line"/>
      <point x="14" y="96" type="line"/>
      <point x="157" y="126" type="line"/>
      <point x="318" y="1400" type="line"/>
      <point x="179" y="1425" type="line"/>
      <point x="192" y="1530" type="line"/>
      <point x="771" y="1530" type="line"/>
      <point x="759" y="1425" type="line"/>
      <point x="593" y="1400" type="line"/>
      <point x="568" y="1200" type="line"/>
      <point x="633" y="1206"/>
      <point x="702" y="1211"/>
      <point x="771" y="1211" type="curve" smooth="yes"/>
      <point x="1117" y="1211"/>
      <point x="1235" y="1060"/>
      <point x="1238" y="855" type="curve" smooth="yes"/>
      <point x="1242" y="587"/>
      <point x="1055" y="346"/>
      <point x="603" y="346" type="curve" smooth="yes"/>
      <point x="528" y="346"/>
      <point x="489" y="347"/>
      <point x="460" y="350" type="curve"/>
      <point x="432" y="126" type="line"/>
      <point x="606" y="97" type="line"/>
      <point x="598" y="0" type="line"/>
    </contour>
    <contour>
      <point x="476" y="475" type="line"/>
      <point x="523" y="471"/>
      <point x="564" y="471"/>
      <point x="610" y="471" type="curve" smooth="yes"/>
      <point x="839" y="471"/>
      <point x="980" y="599"/>
      <point x="974" y="820" type="curve" smooth="yes"/>
      <point x="969" y="999"/>
      <point x="901" y="1089"/>
      <point x="705" y="1089" type="curve" smooth="yes"/>
      <point x="659" y="1089"/>
      <point x="598" y="1083"/>
      <point x="552" y="1074" type="curve"/>
    </contour>
  </outline>
</glyph>
<glyph name="acircumflex" format="1">
  <advance width="1194"/>
  <unicode hex="00E2"/>
  <outline>
    <contour>
      <point x="72" y="407" type="curve" smooth="yes"/>
      <point x="72" y="755"/>
      <point x="307" y="1163"/>
      <point x="739" y="1163" type="curve" smooth="yes"/>
      <point x="811" y="1163"/>
      <point x="898" y="1144"/>
      <point x="957" y="1124" type="curve"/>
      <point x="1092" y="1163" type="line"/>
      <point x="962" y="207" type="line"/>
      <point x="956" y="153"/>
      <point x="974" y="131"/>
      <point x="997" y="131" type="curve" smooth="yes"/>
      <point x="1015" y="131"/>
      <point x="1040" y="140"/>
      <point x="1087" y="177" type="curve"/>
      <point x="1117" y="114" type="line"/>
      <point x="1098" y="84"/>
      <point x="1000" y="-20"/>
      <point x="865" y="-20" type="curve" smooth="yes"/>
      <point x="774" y="-20"/>
      <point x="713" y="23"/>
      <point x="717" y="115" type="curve"/>
      <point x="715" y="118" type="line"/>
      <point x="650" y="47"/>
      <point x="547" y="-20"/>
      <point x="413" y="-20" type="curve" smooth="yes"/>
      <point x="176" y="-20"/>
      <point x="72" y="167"/>
    </contour>
    <contour>
      <point x="502" y="138" type="curve" smooth="yes"/>
      <point x="584" y="138"/>
      <point x="659" y="192"/>
      <point x="710" y="251" type="curve"/>
      <point x="812" y="1016" type="line"/>
      <point x="782" y="1027"/>
      <point x="748" y="1032"/>
      <point x="711" y="1032" type="curve" smooth="yes"/>
      <point x="447" y="1032"/>
      <point x="347" y="680"/>
      <point x="347" y="425" type="curve" smooth="yes"/>
      <point x="347" y="245"/>
      <point x="407" y="138"/>
    </contour>
    <contour>
      <point x="458" y="1229" type="line"/>
      <point x="376" y="1286" type="line"/>
      <point x="723" y="1660" type="line"/>
      <point x="901" y="1660" type="line"/>
      <point x="1101" y="1286" type="line"/>
      <point x="1002" y="1228" type="line"/>
      <point x="786" y="1462" type="line"/>
    </contour>
  </outline>
</glyph>
<glyph name="atilde" format="1">
  <advance width="1194"/>
  <unicode hex="00E3"/>
  <outline>
    <contour>
      <point x="72" y="407" type="curve" smooth="yes"/>
      <point x="72" y="755"/>
      <point x="307" y="1163"/>
      <point x="739" y="1163" type="curve" smooth="yes"/>
      <point x="811" y="1163"/>
      <point x="898" y="1144"/>
      <point x="957" y="1124" type="curve"/>
      <point x="1092" y="1163" type="line"/>
      <point x="962" y="207" type="line"/>
      <point x="956" y="153"/>
      <point x="974" y="131"/>
      <point x="997" y="131" type="curve" smooth="yes"/>
      <point x="1015" y="131"/>
      <point x="1040" y="140"/>
      <point x="1087" y="177" type="curve"/>
      <point x="1117" y="114" type="line"/>
      <point x="1098" y="84"/>
      <point x="1000" y="-20"/>
      <point x="865" y="-20" type="curve" smooth="yes"/>
      <point x="774" y="-20"/>
      <point x="713" y="23"/>
      <point x="717" y="115" type="curve"/>
      <point x="715" y="118" type="line"/>
      <point x="650" y="47"/>
      <point x="547" y="-20"/>
      <point x="413" y="-20" type="curve" smooth="yes"/>
      <point x="176" y="-20"/>
      <point x="72" y="167"/>
    </contour>
    <contour>
      <point x="502" y="138" type="curve" smooth="yes"/>
      <point x="584" y="138"/>
      <point x="659" y="192"/>
      <point x="710" y="251" type="curve"/>
      <point x="812" y="1016" type="line"/>
      <point x="782" y="1027"/>
      <point x="748" y="1032"/>
      <point x="711" y="1032" type="curve" smooth="yes"/>
      <point x="447" y="1032"/>
      <point x="347" y="680"/>
      <point x="347" y="425" type="curve" smooth="yes"/>
      <point x="347" y="245"/>
      <point x="407" y="138"/>
    </contour>
    <contour>
      <point x="444" y="1392" type="curve"/>
      <point x="382" y="1496" type="line"/>
      <point x="424" y="1581"/>
      <point x="532" y="1665"/>
      <point x="634" y="1665" type="curve" smooth="yes"/>
      <point x="778" y="1665"/>
      <point x="807" y="1520"/>
      <point x="902" y="1520" type="curve" smooth="yes"/>
      <point x="976" y="1520"/>
      <point x="1017" y="1577"/>
      <point x="1055" y="1625" type="curve"/>
      <point x="1128" y="1514" type="line"/>
      <point x="1094" y="1420"/>
      <point x="986" y="1333"/>
      <point x="877" y="1333" type="curve" smooth="yes"/>
      <point x="707" y="1333"/>
      <point x="707" y="1476"/>
      <point x="591" y="1478" type="curve" smooth="yes"/>
      <point x="538" y="1479"/>
      <point x="482" y="1432"/>
    </contour>
  </outline>
</glyph>
<glyph name="ae" format="1">
  <advance width="1711"/>
  <unicode hex="00E6"/>
  <outline>
    <contour>
      <point x="373" y="-20" type="curve" smooth="yes"/>
      <point x="144" y="-20"/>
      <point x="72" y="162"/>
      <point x="72" y="392" type="curve" smooth="yes"/>
      <point x="72" y="740"/>
      <point x="328" y="1163"/>
      <point x="774" y="1163" type="curve" smooth="yes"/>
      <point x="841" y="1163"/>
      <point x="923" y="1146"/>
      <point x="982" y="1128" type="curve"/>
      <point x="1083" y="1163" type="line"/>
      <point x="1069" y="1078" type="line"/>
      <point x="1154" y="1132"/>
      <point x="1251" y="1163"/>
      <point x="1357" y="1163" type="curve" smooth="yes"/>
      <point x="1567" y="1163"/>
      <point x="1658" y="1052"/>
      <point x="1661" y="911" type="curve" smooth="yes"/>
      <point x="1666" y="591"/>
      <point x="1246" y="464"/>
      <point x="1026" y="458" type="curve"/>
      <point x="1021" y="270"/>
      <point x="1066" y="139"/>
      <point x="1212" y="139" type="curve" smooth="yes"/>
      <point x="1345" y="139"/>
      <point x="1454" y="202"/>
      <point x="1541" y="290" type="curve"/>
      <point x="1596" y="197" type="line"/>
      <point x="1539" y="114"/>
      <point x="1377" y="-20"/>
      <point x="1146" y="-20" type="curve" smooth="yes"/>
      <point x="932" y="-20"/>
      <point x="816" y="86"/>
      <point x="770" y="243" type="curve"/>
      <point x="697" y="124"/>
      <point x="562" y="-20"/>
    </contour>
    <contour>
      <point x="1029" y="573" type="curve"/>
      <point x="1166" y="580"/>
      <point x="1401" y="691"/>
      <point x="1398" y="891" type="curve" smooth="yes"/>
      <point x="1396" y="989"/>
      <point x="1360" y="1036"/>
      <point x="1296" y="1036" type="curve" smooth="yes"/>
      <point x="1120" y="1036"/>
      <point x="1044" y="750"/>
    </contour>
    <contour>
      <point x="457" y="151" type="curve" smooth="yes"/>
      <point x="582" y="151"/>
      <point x="690" y="294"/>
      <point x="747" y="393" type="curve"/>
      <point x="747" y="422" type="line"/>
      <point x="729" y="402" type="line"/>
      <point x="826" y="1024" type="line"/>
      <point x="804" y="1030"/>
      <point x="780" y="1032"/>
      <point x="754" y="1032" type="curve" smooth="yes"/>
      <point x="473" y="1032"/>
      <point x="345" y="664"/>
      <point x="345" y="409" type="curve" smooth="yes"/>
      <point x="345" y="259"/>
      <point x="377" y="151"/>
    </contour>
  </outline>
</glyph>
<glyph name="egrave" format="1">
  <advance width="1050"/>
  <unicode hex="00E8"/>
  <outline>
    <contour>
      <point x="74" y="430" type="curve" smooth="yes"/>
      <point x="78" y="832"/>
      <point x="344" y="1163"/>
      <point x="693" y="1163" type="curve" smooth="yes"/>
      <point x="903" y="1163"/>
      <point x="997" y="1054"/>
      <point x="1000" y="913" type="curve" smooth="yes"/>
      <point x="1005" y="593"/>
      <point x="579" y="464"/>
      <point x="358" y="458" type="curve"/>
      <point x="351" y="290"/>
      <point x="410" y="139"/>
      <point x="559" y="139" type="curve" smooth="yes"/>
      <point x="688" y="139"/>
      <point x="794" y="202"/>
      <point x="878" y="290" type="curve"/>
      <point x="933" y="197" type="line"/>
      <point x="877" y="114"/>
      <point x="718" y="-20"/>
      <point x="493" y="-20" type="curve" smooth="yes"/>
      <point x="191" y="-20"/>
      <point x="71" y="202"/>
    </contour>
    <contour>
      <point x="360" y="573" type="curve"/>
      <point x="500" y="580"/>
      <point x="740" y="691"/>
      <point x="737" y="891" type="curve" smooth="yes"/>
      <point x="735" y="989"/>
      <point x="696" y="1036"/>
      <point x="633" y="1036" type="curve" smooth="yes"/>
      <point x="454" y="1036"/>
      <point x="376" y="750"/>
    </contour>
    <contour>
      <point x="646" y="1246" type="line"/>
      <point x="563" y="1281"/>
      <point x="324" y="1459"/>
      <point x="260" y="1571" type="curve"/>
      <point x="438" y="1743" type="line"/>
      <point x="726" y="1311" type="line"/>
    </contour>
  </outline>
</glyph>
<glyph name="eth" format="1">
  <advance width="1167"/>
  <unicode hex="00F0"/>
  <outline>
    <contour>
      <point x="65" y="443" type="curve" smooth="yes"/>
      <point x="65" y="859"/>
      <point x="322" y="1110"/>
      <point x="623" y="1110" type="curve" smooth="yes"/>
      <point x="714" y="1110"/>
      <point x="788" y="1092"/>
      <point x="833" y="1038" type="curve"/>
      <point x="811" y="1169"/>
      <point x="776" y="1283"/>
      <point x="672" y="1398" type="curve"/>
      <point x="532" y="1238" type="line"/>
      <point x="421" y="1331" type="line"/>
      <point x="570" y="1493" type="line"/>
      <point x="498" y="1552"/>
      <point x="417" y="1605"/>
      <point x="349" y="1625" type="curve"/>
      <point x="398" y="1764" type="line"/>
      <point x="476" y="1743"/>
      <point x="593" y="1687"/>
      <point x="690" y="1621" type="curve"/>
      <point x="755" y="1695"/>
      <point x="839" y="1800"/>
      <point x="839" y="1800" type="curve"/>
      <point x="947" y="1704" type="line"/>
      <point x="799" y="1536" type="line"/>
      <point x="1016" y="1338"/>
      <point x="1104" y="1082"/>
      <point x="1104" y="812" type="curve" smooth="yes"/>
      <point x="1104" y="344"/>
      <point x="882" y="-20"/>
      <point x="486" y="-20" type="curve" smooth="yes"/>
      <point x="200" y="-20"/>
      <point x="65" y="224"/>
    </contour>
    <contour>
      <point x="515" y="98" type="curve" smooth="yes"/>
      <point x="666" y="98"/>
      <point x="777" y="301"/>
      <point x="810" y="551" type="curve" smooth="yes"/>
      <point x="815" y="584"/>
      <point x="827" y="686"/>
      <point x="829" y="728" type="curve" smooth="yes"/>
      <point x="832" y="796"/>
      <point x="793" y="986"/>
      <point x="625" y="986" type="curve" smooth="yes"/>
      <point x="423" y="986"/>
      <point x="339" y="654"/>
      <point x="339" y="406" type="curve" smooth="yes"/>
      <point x="339" y="241"/>
      <point x="393" y="98"/>
    </contour>
  </outline>
</glyph>
<glyph name="ntilde" format="1">
  <advance width="1283"/>
  <unicode hex="00F1"/>
  <outline>
    <contour>
      <point x="109" y="0" type="line"/>
      <point x="239" y="963" type="line"/>
      <point x="137" y="1022" type="line"/>
      <point x="154" y="1111" type="line"/>
      <point x="462" y="1163" type="line"/>
      <point x="512" y="1139" type="line"/>
      <point x="494" y="931" type="line"/>
      <point x="592" y="1064"/>
      <point x="733" y="1163"/>
      <point x="885" y="1163" type="curve" smooth="yes"/>
      <point x="1031" y="1163"/>
      <point x="1131" y="1086"/>
      <point x="1131" y="861" type="curve" smooth="yes"/>
      <point x="1131" y="781"/>
      <point x="1100" y="617"/>
      <point x="1081" y="505" type="curve" smooth="yes"/>
      <point x="1063" y="403"/>
      <point x="1040" y="285"/>
      <point x="1037" y="196" type="curve" smooth="yes"/>
      <point x="1036" y="148"/>
      <point x="1048" y="131"/>
      <point x="1067" y="131" type="curve" smooth="yes"/>
      <point x="1087" y="131"/>
      <point x="1109" y="140"/>
      <point x="1156" y="177" type="curve"/>
      <point x="1185" y="114" type="line"/>
      <point x="1167" y="87"/>
      <point x="1068" y="-21"/>
      <point x="923" y="-21" type="curve" smooth="yes"/>
      <point x="793" y="-21"/>
      <point x="757" y="44"/>
      <point x="760" y="131" type="curve" smooth="yes"/>
      <point x="762" y="206"/>
      <point x="787" y="331"/>
      <point x="807" y="443" type="curve" smooth="yes"/>
      <point x="827" y="555"/>
      <point x="859" y="717"/>
      <point x="858" y="838" type="curve" smooth="yes"/>
      <point x="857" y="965"/>
      <point x="823" y="985"/>
      <point x="761" y="985" type="curve" smooth="yes"/>
      <point x="672" y="985"/>
      <point x="551" y="879"/>
      <point x="470" y="745" type="curve"/>
      <point x="368" y="0" type="line"/>
    </contour>
    <contour>
      <point x="433" y="1392" type="curve"/>
      <point x="371" y="1496" type="line"/>
      <point x="413" y="1581"/>
      <point x="521" y="1665"/>
      <point x="623" y="1665" type="curve" smooth="yes"/>
      <point x="767" y="1665"/>
      <point x="796" y="1520"/>
      <point x="891" y="1520" type="curve" smooth="yes"/>
      <point x="965" y="1520"/>
      <point x="1006" y="1577"/>
      <point x="1044" y="1625" type="curve"/>
      <point x="1117" y="1514" type="line"/>
      <point x="1083" y="1420"/>
      <point x="975" y="1333"/>
      <point x="866" y="1333" type="curve" smooth="yes"/>
      <point x="696" y="1333"/>
      <point x="696" y="1476"/>
      <point x="580" y="1478" type="curve" smooth="yes"/>
      <point x="527" y="1479"/>
      <point x="471" y="1432"/>
    </contour>
  </outline>
</glyph>
<glyph name="odieresis" format="1">
  <advance width="1170"/>
  <unicode hex="00F6"/>
  <outline>
    <contour>
      <point x="898" y="1363" type="curve" smooth="yes"/>
      <point x="826" y="1363"/>
      <point x="767" y="1433"/>
      <point x="769" y="1507" type="curve" smooth="yes"/>
      <point x="772" y="1599"/>
      <point x="837" y="1676"/>
      <point x="930" y="1676" type="curve" smooth="yes"/>
      <point x="1015" y="1676"/>
      <point x="1068" y="1609"/>
      <point x="1066" y="1538" type="curve" smooth="yes"/>
      <point x="1063" y="1444"/>
      <point x="1002" y="1363"/>
    </contour>
    <contour>
      <point x="462" y="1363" type="curve" smooth="yes"/>
      <point x="390" y="1363"/>
      <point x="331" y="1433"/>
      <point x="333" y="1507" type="curve" smooth="yes"/>
      <point x="336" y="1599"/>
      <point x="401" y="1676"/>
      <point x="494" y="1676" type="curve" smooth="yes"/>
      <point x="579" y="1676"/>
      <point x="632" y="1609"/>
      <point x="630" y="1538" type="curve" smooth="yes"/>
      <point x="627" y="1444"/>
      <point x="566" y="1363"/>
    </contour>
    <contour>
      <point x="74" y="439" type="curve"/>
      <point x="65" y="817"/>
      <point x="306" y="1163"/>
      <point x="670" y="1163" type="curve" smooth="yes"/>
      <point x="939" y="1163"/>
      <point x="1084" y="994"/>
      <point x="1091" y="703" type="curve" smooth="yes"/>
      <point x="1101" y="325"/>
      <point x="859" y="-20"/>
      <point x="494" y="-20" type="curve" smooth="yes"/>
      <point x="225" y="-20"/>
      <point x="82" y="148"/>
    </contour>
    <contour>
      <point x="534" y="105" type="curve" smooth="yes"/>
      <point x="738" y="105"/>
      <point x="813" y="446"/>
      <point x="807" y="705" type="curve"/>
      <point x="803" y="926"/>
      <point x="747" y="1033"/>
      <point x="635" y="1033" type="curve" smooth="yes"/>
      <point x="431" y="1033"/>
      <point x="350" y="693"/>
      <point x="356" y="438" type="curve" smooth="yes"/>
      <point x="361" y="216"/>
      <point x="414" y="105"/>
    </contour>
  </outline>
</glyph>
<glyph name="thorn" format="1">
  <advance width="1178"/>
  <unicode hex="00FE"/>
  <outline>
    <contour>
      <point x="81" y="-20" type="line"/>
      <point x="274" y="1483" type="line"/>
      <point x="175" y="1526" type="line"/>
      <point x="200" y="1611" type="line"/>
      <point x="496" y="1650" type="line"/>
      <point x="549" y="1623" type="line"/>
      <point x="471" y="1033" type="line"/>
      <point x="536" y="1101"/>
      <point x="635" y="1163"/>
      <point x="762" y="1163" type="curve" smooth="yes"/>
      <point x="993" y="1163"/>
      <point x="1104" y="993"/>
      <point x="1104" y="730" type="curve" smooth="yes"/>
      <point x="1104" y="367"/>
      <point x="858" y="-20"/>
      <point x="444" y="-20" type="curve" smooth="yes"/>
      <point x="408" y="-20"/>
      <point x="368" y="-15"/>
      <point x="331" y="-8" type="curve"/>
      <point x="316" y="-141" type="line"/>
      <point x="262" y="-520" type="line"/>
      <point x="10" y="-520" type="line"/>
    </contour>
    <contour>
      <point x="351" y="132" type="line"/>
      <point x="385" y="116"/>
      <point x="425" y="110"/>
      <point x="473" y="110" type="curve" smooth="yes"/>
      <point x="727" y="110"/>
      <point x="831" y="449"/>
      <point x="831" y="723" type="curve" smooth="yes"/>
      <point x="831" y="889"/>
      <point x="777" y="1004"/>
      <point x="675" y="1004" type="curve" smooth="yes"/>
      <point x="582" y="1004"/>
      <point x="500" y="934"/>
      <point x="448" y="865" type="curve"/>
    </contour>
  </outline>
</glyph>
<glyph name="amacron" format="1">
  <advance width="1194"/>
  <unicode hex="0101"/>
  <outline>
    <contour>
      <point x="72" y="407" type="curve" smooth="yes"/>
      <point x="72" y="755"/>
      <point x="307" y="1163"/>
      <point x="739" y="1163" type="curve" smooth="yes"/>
      <point x="811" y="1163"/>
      <point x="898" y="1144"/>
      <point x="957" y="1124" type="curve"/>
      <point x="1092" y="1163" type="line"/>
      <point x="962" y="207" type="line"/>
      <point x="956" y="153"/>
      <point x="974" y="131"/>
      <point x="997" y="131" type="curve" smooth="yes"/>
      <point x="1015" y="131"/>
      <point x="1040" y="140"/>
      <point x="1087" y="177" type="curve"/>
      <point x="1117" y="114" type="line"/>
      <point x="1098" y="84"/>
      <point x="1000" y="-20"/>
      <point x="865" y="-20" type="curve" smooth="yes"/>
      <point x="774" y="-20"/>
      <point x="713" y="23"/>
      <point x="717" y="115" type="curve"/>
      <point x="715" y="118" type="line"/>
      <point x="650" y="47"/>
      <point x="547" y="-20"/>
      <point x="413" y="-20" type="curve" smooth="yes"/>
      <point x="176" y="-20"/>
      <point x="72" y="167"/>
    </contour>
    <contour>
      <point x="502" y="138" type="curve" smooth="yes"/>
      <point x="584" y="138"/>
      <point x="659" y="192"/>
      <point x="710" y="251" type="curve"/>
      <point x="812" y="1016" type="line"/>
      <point x="782" y="1027"/>
      <point x="748" y="1032"/>
      <point x="711" y="1032" type="curve" smooth="yes"/>
      <point x="447" y="1032"/>
      <point x="347" y="680"/>
      <point x="347" y="425" type="curve" smooth="yes"/>
      <point x="347" y="245"/>
      <point x="407" y="138"/>
    </contour>
    <contour>
      <point x="452" y="1415" type="line"/>
      <point x="454" y="1594" type="line"/>
      <point x="994" y="1594" type="line"/>
      <point x="992" y="1415" type="line"/>
    </contour>
  </outline>
</glyph>
<glyph name="Cdotaccent" format="1">
  <advance width="1281"/>
  <unicode hex="010A"/>
  <outline>
    <contour>
      <point x="865" y="1652" type="curve" smooth="yes"/>
      <point x="788" y="1652"/>
      <point x="719" y="1721"/>
      <point x="721" y="1795" type="curve" smooth="yes"/>
      <point x="724" y="1888"/>
      <point x="804" y="1965"/>
      <point x="897" y="1965" type="curve" smooth="yes"/>
      <point x="988" y="1965"/>
      <point x="1051" y="1898"/>
      <point x="1049" y="1826" type="curve" smooth="yes"/>
      <point x="1046" y="1732"/>
      <point x="975" y="1652"/>
    </contour>
    <contour>
      <point x="635" y="-16" type="curve" smooth="yes"/>
      <point x="232" y="-16"/>
      <point x="79" y="302"/>
      <point x="77" y="632" type="curve" smooth="yes"/>
      <point x="72" y="1192"/>
      <point x="422" y="1548"/>
      <point x="889" y="1548" type="curve" smooth="yes"/>
      <point x="1090" y="1548"/>
      <point x="1178" y="1518"/>
      <point x="1246" y="1501" type="curve"/>
      <point x="1282" y="1491" type="line"/>
      <point x="1217" y="1107" type="line"/>
      <point x="1032" y="1107" type="line"/>
      <point x="1001" y="1392" type="line"/>
      <point x="963" y="1410"/>
      <point x="914" y="1424"/>
      <point x="849" y="1424" type="curve" smooth="yes"/>
      <point x="498" y="1424"/>
      <point x="370" y="969"/>
      <point x="377" y="653" type="curve" smooth="yes"/>
      <point x="384" y="353"/>
      <point x="470" y="123"/>
      <point x="686" y="123" type="curve" smooth="yes"/>
      <point x="755" y="123"/>
      <point x="870" y="138"/>
      <point x="928" y="212" type="curve"/>
      <point x="946" y="233"/>
      <point x="991" y="373"/>
      <point x="1002" y="411" type="curve"/>
      <point x="1163" y="411" type="line"/>
      <point x="1122" y="103" type="line"/>
      <point x="1049" y="61"/>
      <point x="895" y="-16"/>
    </contour>
  </outline>
</glyph>
<glyph name="cdotaccent" format="1">
  <advance width="923"/>
  <unicode hex="010B"/>
  <outline>
    <contour>
      <point x="73" y="440" type="curve" smooth="yes"/>
      <point x="70" y="763"/>
      <point x="276" y="1163"/>
      <point x="690" y="1163" type="curve" smooth="yes"/>
      <point x="767" y="1163"/>
      <point x="866" y="1148"/>
      <point x="928" y="1120" type="curve"/>
      <point x="856" y="867" type="line"/>
      <point x="799" y="903"/>
      <point x="703" y="1011"/>
      <point x="631" y="1011" type="curve" smooth="yes"/>
      <point x="492" y="1011"/>
      <point x="344" y="791"/>
      <point x="348" y="460" type="curve" smooth="yes"/>
      <point x="350" y="236"/>
      <point x="418" y="144"/>
      <point x="538" y="144" type="curve" smooth="yes"/>
      <point x="651" y="144"/>
      <point x="720" y="191"/>
      <point x="802" y="265" type="curve"/>
      <point x="853" y="173" type="line"/>
      <point x="801" y="101"/>
      <point x="659" y="-20"/>
      <point x="446" y="-20" type="curve" smooth="yes"/>
      <point x="215" y="-20"/>
      <point x="75" y="143"/>
    </contour>
    <contour>
      <point x="673" y="1363" type="curve" smooth="yes"/>
      <point x="596" y="1363"/>
      <point x="532" y="1433"/>
      <point x="534" y="1507" type="curve" smooth="yes"/>
      <point x="537" y="1600"/>
      <point x="612" y="1676"/>
      <point x="705" y="1676" type="curve" smooth="yes"/>
      <point x="797" y="1676"/>
      <point x="854" y="1609"/>
      <point x="851" y="1538" type="curve" smooth="yes"/>
      <point x="848" y="1444"/>
      <point x="783" y="1363"/>
    </contour>
  </outline>
</glyph>
<glyph name="dcroat" format="1">
  <advance width="1219"/>
  <unicode hex="0111"/>
  <outline>
    <contour>
      <point x="411" y="-20" type="curve" smooth="yes"/>
      <point x="174" y="-20"/>
      <point x="74" y="167"/>
      <point x="74" y="407" type="curve" smooth="yes"/>
      <point x="74" y="755"/>
      <point x="299" y="1163"/>
      <point x="736" y="1163" type="curve" smooth="yes"/>
      <point x="774" y="1163"/>
      <point x="816" y="1157"/>
      <point x="856" y="1149" type="curve"/>
      <point x="873" y="1262" type="line"/>
      <point x="607" y="1262" type="line"/>
      <point x="623" y="1392" type="line"/>
      <point x="892" y="1392" type="line"/>
      <point x="906" y="1482" type="line"/>
      <point x="766" y="1525" type="line"/>
      <point x="786" y="1608" type="line"/>
      <point x="1134" y="1650" type="line"/>
      <point x="1189" y="1623" type="line"/>
      <point x="1155" y="1392" type="line"/>
      <point x="1285" y="1392" type="line"/>
      <point x="1269" y="1262" type="line"/>
      <point x="1136" y="1262" type="line"/>
      <point x="984" y="208" type="line" smooth="yes"/>
      <point x="977" y="160"/>
      <point x="986" y="131"/>
      <point x="1012" y="131" type="curve" smooth="yes"/>
      <point x="1030" y="131"/>
      <point x="1053" y="140"/>
      <point x="1101" y="177" type="curve"/>
      <point x="1131" y="115" type="line"/>
      <point x="1111" y="89"/>
      <point x="1018" y="-20"/>
      <point x="880" y="-20" type="curve" smooth="yes"/>
      <point x="777" y="-20"/>
      <point x="731" y="33"/>
      <point x="732" y="144" type="curve"/>
      <point x="670" y="64"/>
      <point x="561" y="-20"/>
    </contour>
    <contour>
      <point x="498" y="138" type="curve" smooth="yes"/>
      <point x="592" y="138"/>
      <point x="676" y="212"/>
      <point x="726" y="281" type="curve"/>
      <point x="835" y="1006" type="line"/>
      <point x="799" y="1025"/>
      <point x="756" y="1032"/>
      <point x="709" y="1032" type="curve" smooth="yes"/>
      <point x="444" y="1032"/>
      <point x="347" y="675"/>
      <point x="347" y="420" type="curve" smooth="yes"/>
      <point x="347" y="240"/>
      <point x="404" y="138"/>
    </contour>
  </outline>
</glyph>
<glyph name="ebreve" format="1">
  <advance width="1050"/>
  <unicode hex="0115"/>
  <outline>
    <contour>
      <point x="74" y="430" type="curve" smooth="yes"/>
      <point x="78" y="832"/>
      <point x="344" y="1163"/>
      <point x="693" y="1163" type="curve" smooth="yes"/>
      <point x="903" y="1163"/>
      <point x="997" y="1054"/>
      <point x="1000" y="913" type="curve" smooth="yes"/>
      <point x="1005" y="593"/>
      <point x="579" y="464"/>
      <point x="358" y="458" type="curve"/>
      <point x="351" y="290"/>
      <point x="410" y="139"/>
      <point x="559" y="139" type="curve" smooth="yes"/>
      <point x="688" y="139"/>
      <point x="794" y="202"/>
      <point x="878" y="290" type="curve"/>
      <point x="933" y="197" type="line"/>
      <point x="877" y="114"/>
      <point x="718" y="-20"/>
      <point x="493" y="-20" type="curve" smooth="yes"/>
      <point x="191" y="-20"/>
      <point x="71" y="202"/>
    </contour>
    <contour>
      <point x="360" y="573" type="curve"/>
      <point x="500" y="580"/>
      <point x="740" y="691"/>
      <point x="737" y="891" type="curve" smooth="yes"/>
      <point x="735" y="989"/>
      <point x="696" y="1036"/>
      <point x="633" y="1036" type="curve" smooth="yes"/>
      <point x="454" y="1036"/>
      <point x="376" y="750"/>
    </contour>
    <contour>
      <point x="683" y="1300" type="curve" smooth="yes"/>
      <point x="471" y="1300"/>
      <point x="382" y="1468"/>
      <point x="382" y="1623" type="curve" smooth="yes"/>
      <point x="382" y="1637"/>
      <point x="383" y="1652"/>
      <point x="385" y="1666" type="curve"/>
      <point x="530" y="1666" type="line"/>
      <point x="530" y="1655"/>
      <point x="530" y="1642"/>
      <point x="531" y="1628" type="curve" smooth="yes"/>
      <point x="539" y="1564"/>
      <point x="567" y="1482"/>
      <point x="688" y="1482" type="curve" smooth="yes"/>
      <point x="835" y="1482"/>
      <point x="867" y="1596"/>
      <point x="880" y="1666" type="curve"/>
      <point x="1022" y="1666" type="line"/>
      <point x="1022" y="1655"/>
      <point x="1022" y="1644"/>
      <point x="1021" y="1633" type="curve" smooth="yes"/>
      <point x="1010" y="1476"/>
      <point x="893" y="1300"/>
    </contour>
  </outline>
</glyph>
<glyph name="Edotaccent" format="1">
  <advance width="1274"/>
  <unicode hex="0116"/>
  <outline>
    <contour>
      <point x="788" y="1652" type="curve" smooth="yes"/>
      <point x="711" y="1652"/>
      <point x="642" y="1721"/>
      <point x="644" y="1795" type="curve" smooth="yes"/>
      <point x="647" y="1888"/>
      <point x="727" y="1965"/>
      <point x="820" y="1965" type="curve" smooth="yes"/>
      <point x="911" y="1965"/>
      <point x="974" y="1898"/>
      <point x="972" y="1826" type="curve" smooth="yes"/>
      <point x="969" y="1732"/>
      <point x="898" y="1652"/>
    </contour>
    <contour>
      <point x="-14" y="0" type="line"/>
      <point x="-2" y="96" type="line"/>
      <point x="153" y="126" type="line"/>
      <point x="315" y="1400" type="line"/>
      <point x="176" y="1425" type="line"/>
      <point x="187" y="1530" type="line"/>
      <point x="1210" y="1530" type="line"/>
      <point x="1188" y="1190" type="line"/>
      <point x="1024" y="1190" type="line"/>
      <point x="983" y="1396" type="line"/>
      <point x="593" y="1416" type="line"/>
      <point x="521" y="868" type="line"/>
      <point x="962" y="883" type="line"/>
      <point x="944" y="696" type="line"/>
      <point x="505" y="717" type="line"/>
      <point x="425" y="126" type="line"/>
      <point x="935" y="156" type="line"/>
      <point x="1053" y="408" type="line"/>
      <point x="1211" y="385" type="line"/>
      <point x="1132" y="0" type="line"/>
    </contour>
  </outline>
</glyph>
<glyph name="edotaccent" format="1">
  <advance width="1050"/>
  <unicode hex="0117"/>
  <outline>
    <contour>
      <point x="74" y="430" type="curve" smooth="yes"/>
      <point x="78" y="832"/>
      <point x="344" y="1163"/>
      <point x="693" y="1163" type="curve" smooth="yes"/>
      <point x="903" y="1163"/>
      <point x="997" y="1054"/>
      <point x="1000" y="913" type="curve" smooth="yes"/>
      <point x="1005" y="593"/>
      <point x="579" y="464"/>
      <point x="358" y="458" type="curve"/>
      <point x="351" y="290"/>
      <point x="410" y="139"/>
      <point x="559" y="139" type="curve" smooth="yes"/>
      <point x="688" y="139"/>
      <point x="794" y="202"/>
      <point x="878" y="290" type="curve"/>
      <point x="933" y="197" type="line"/>
      <point x="877" y="114"/>
      <point x="718" y="-20"/>
      <point x="493" y="-20" type="curve" smooth="yes"/>
      <point x="191" y="-20"/>
      <point x="71" y="202"/>
    </contour>
    <contour>
      <point x="360" y="573" type="curve"/>
      <point x="500" y="580"/>
      <point x="740" y="691"/>
      <point x="737" y="891" type="curve" smooth="yes"/>
      <point x="735" y="989"/>
      <point x="696" y="1036"/>
      <point x="633" y="1036" type="curve" smooth="yes"/>
      <point x="454" y="1036"/>
      <point x="376" y="750"/>
    </contour>
    <contour>
      <point x="682" y="1363" type="curve" smooth="yes"/>
      <point x="605" y="1363"/>
      <point x="541" y="1433"/>
      <point x="543" y="1507" type="curve" smooth="yes"/>
      <point x="546" y="1600"/>
      <point x="621" y="1676"/>
      <point x="714" y="1676" type="curve" smooth="yes"/>
      <point x="806" y="1676"/>
      <point x="863" y="1609"/>
      <point x="860" y="1538" type="curve" smooth="yes"/>
      <point x="857" y="1444"/>
      <point x="792" y="1363"/>
    </contour>
  </outline>
</glyph>
<glyph name="gcommaaccent" format="1">
  <advance width="1187"/>
  <unicode hex="0123"/>
  <outline>
    <contour>
      <point x="721" y="1274" type="line"/>
      <point x="631" y="1293"/>
      <point x="571" y="1388"/>
      <point x="576" y="1492" type="curve" smooth="yes"/>
      <point x="584" y="1653"/>
      <point x="714" y="1771"/>
      <point x="805" y="1790" type="curve"/>
      <point x="875" y="1735" type="line"/>
      <point x="872" y="1709" type="line"/>
      <point x="836" y="1683"/>
      <point x="803" y="1641"/>
      <point x="799" y="1569" type="curve" smooth="yes"/>
      <point x="797" y="1520"/>
      <point x="828" y="1466"/>
      <point x="869" y="1459" type="curve"/>
      <point x="860" y="1386" type="line"/>
    </contour>
    <contour>
      <point x="162" y="-273" type="line"/>
      <point x="200" y="-296"/>
      <point x="322" y="-350"/>
      <point x="432" y="-350" type="curve" smooth="yes"/>
      <point x="585" y="-350"/>
      <point x="640" y="-319"/>
      <point x="664" y="-145" type="curve" smooth="yes"/>
      <point x="698" y="98" type="line"/>
      <point x="632" y="35"/>
      <point x="536" y="-20"/>
      <point x="414" y="-20" type="curve" smooth="yes"/>
      <point x="177" y="-20"/>
      <point x="73" y="167"/>
      <point x="73" y="407" type="curve" smooth="yes"/>
      <point x="73" y="755"/>
      <point x="308" y="1163"/>
      <point x="740" y="1163" type="curve" smooth="yes"/>
      <point x="823" y="1163"/>
      <point x="914" y="1140"/>
      <point x="972" y="1119" type="curve"/>
      <point x="1113" y="1163" type="line"/>
      <point x="933" y="-77" type="line"/>
      <point x="887" y="-411"/>
      <point x="588" y="-513"/>
      <point x="355" y="-513" type="curve" smooth="yes"/>
      <point x="262" y="-513"/>
      <point x="152" y="-491"/>
      <point x="112" y="-473" type="curve"/>
    </contour>
    <contour>
      <point x="501" y="138" type="curve" smooth="yes"/>
      <point x="588" y="138"/>
      <point x="669" y="201"/>
      <point x="721" y="265" type="curve"/>
      <point x="830" y="1010" type="line"/>
      <point x="795" y="1026"/>
      <point x="755" y="1032"/>
      <point x="712" y="1032" type="curve" smooth="yes"/>
      <point x="448" y="1032"/>
      <point x="348" y="675"/>
      <point x="348" y="420" type="curve" smooth="yes"/>
      <point x="348" y="240"/>
      <point x="407" y="138"/>
    </contour>
  </outline>
</glyph>
<glyph name="Hbar" format="1">
  <advance width="1593"/>
  <unicode hex="0126"/>
  <outline>
    <contour>
      <point x="-1" y="0" type="line"/>
      <point x="10" y="96" type="line"/>
      <point x="153" y="126" type="line"/>
      <point x="260" y="983" type="line"/>
      <point x="76" y="983" type="line"/>
      <point x="90" y="1123" type="line"/>
      <point x="278" y="1123" type="line"/>
      <point x="313" y="1400" type="line"/>
      <point x="174" y="1425" type="line"/>
      <point x="187" y="1530" type="line"/>
      <point x="766" y="1530" type="line"/>
      <point x="755" y="1425" type="line"/>
      <point x="588" y="1400" type="line"/>
      <point x="553" y="1123" type="line"/>
      <point x="1156" y="1123" type="line"/>
      <point x="1191" y="1400" type="line"/>
      <point x="1028" y="1425" type="line"/>
      <point x="1039" y="1530" type="line"/>
      <point x="1624" y="1530" type="line"/>
      <point x="1612" y="1425" type="line"/>
      <point x="1466" y="1400" type="line"/>
      <point x="1431" y="1123" type="line"/>
      <point x="1622" y="1123" type="line"/>
      <point x="1608" y="983" type="line"/>
      <point x="1413" y="983" type="line"/>
      <point x="1306" y="127" type="line"/>
      <point x="1460" y="96" type="line"/>
      <point x="1450" y="0" type="line"/>
      <point x="843" y="0" type="line"/>
      <point x="854" y="97" type="line"/>
      <point x="1031" y="127" type="line"/>
      <point x="1092" y="613" type="line"/>
      <point x="489" y="613" type="line"/>
      <point x="428" y="126" type="line"/>
      <point x="593" y="97" type="line"/>
      <point x="585" y="0" type="line"/>
    </contour>
    <contour>
      <point x="507" y="758" type="line"/>
      <point x="1110" y="758" type="line"/>
      <point x="1138" y="983" type="line"/>
      <point x="535" y="983" type="line"/>
    </contour>
  </outline>
</glyph>
<glyph name="Itilde" format="1">
  <advance width="745"/>
  <unicode hex="0128"/>
  <outline>
    <contour>
      <point x="6" y="0" type="line"/>
      <point x="17" y="96" type="line"/>
      <point x="166" y="126" type="line"/>
      <point x="329" y="1400" type="line"/>
      <point x="189" y="1425" type="line"/>
      <point x="201" y="1530" type="line"/>
      <point x="778" y="1530" type="line"/>
      <point x="767" y="1425" type="line"/>
      <point x="604" y="1400" type="line"/>
      <point x="441" y="126" type="line"/>
      <point x="607" y="97" type="line"/>
      <point x="600" y="0" type="line"/>
    </contour>
    <contour>
      <point x="263" y="1697" type="curve"/>
      <point x="201" y="1801" type="line"/>
      <point x="243" y="1886"/>
      <point x="351" y="1970"/>
      <point x="453" y="1970" type="curve" smooth="yes"/>
      <point x="597" y="1970"/>
      <point x="626" y="1825"/>
      <point x="721" y="1825" type="curve" smooth="yes"/>
      <point x="795" y="1825"/>
      <point x="836" y="1882"/>
      <point x="874" y="1930" type="curve"/>
      <point x="947" y="1819" type="line"/>
      <point x="913" y="1725"/>
      <point x="805" y="1638"/>
      <point x="696" y="1638" type="curve" smooth="yes"/>
      <point x="526" y="1638"/>
      <point x="526" y="1781"/>
      <point x="410" y="1783" type="curve" smooth="yes"/>
      <point x="357" y="1784"/>
      <point x="301" y="1737"/>
    </contour>
  </outline>
</glyph>
<glyph name="ibreve" format="1">
  <advance width="655"/>
  <unicode hex="012D"/>
  <outline>
    <contour>
      <point x="136" y="121" type="curve" smooth="yes"/>
      <point x="154" y="281"/>
      <point x="202" y="596"/>
      <point x="255" y="980" type="curve"/>
      <point x="99" y="1031" type="line"/>
      <point x="117" y="1112" type="line"/>
      <point x="491" y="1163" type="line"/>
      <point x="543" y="1139" type="line"/>
      <point x="409" y="207" type="line" smooth="yes"/>
      <point x="402" y="158"/>
      <point x="412" y="131"/>
      <point x="438" y="131" type="curve" smooth="yes"/>
      <point x="460" y="131"/>
      <point x="486" y="144"/>
      <point x="537" y="188" type="curve"/>
      <point x="567" y="125" type="line"/>
      <point x="546" y="95"/>
      <point x="445" y="-20"/>
      <point x="297" y="-20" type="curve" smooth="yes"/>
      <point x="186" y="-20"/>
      <point x="126" y="29"/>
    </contour>
    <contour>
      <point x="433" y="1300" type="curve" smooth="yes"/>
      <point x="221" y="1300"/>
      <point x="132" y="1468"/>
      <point x="132" y="1623" type="curve" smooth="yes"/>
      <point x="132" y="1637"/>
      <point x="133" y="1652"/>
      <point x="135" y="1666" type="curve"/>
      <point x="280" y="1666" type="line"/>
      <point x="280" y="1655"/>
      <point x="280" y="1642"/>
      <point x="281" y="1628" type="curve" smooth="yes"/>
      <point x="289" y="1564"/>
      <point x="317" y="1482"/>
      <point x="438" y="1482" type="curve" smooth="yes"/>
      <point x="585" y="1482"/>
      <point x="617" y="1596"/>
      <point x="630" y="1666" type="curve"/>
      <point x="772" y="1666" type="line"/>
      <point x="772" y="1655"/>
      <point x="772" y="1644"/>
      <point x="771" y="1633" type="curve" smooth="yes"/>
      <point x="760" y="1476"/>
      <point x="643" y="1300"/>
    </contour>
  </outline>
</glyph>
<glyph name="Idotaccent" format="1">
  <advance width="745"/>
  <unicode hex="0130"/>
  <outline>
    <contour>
      <point x="6" y="0" type="line"/>
      <point x="17" y="96" type="line"/>
      <point x="166" y="126" type="line"/>
      <point x="329" y="1400" type="line"/>
      <point x="189" y="1425" type="line"/>
      <point x="201" y="1530" type="line"/>
      <point x="778" y="1530" type="line"/>
      <point x="767" y="1425" type="line"/>
      <point x="604" y="1400" type="line"/>
      <point x="441" y="126" type="line"/>
      <point x="607" y="97" type="line"/>
      <point x="600" y="0" type="line"/>
    </contour>
    <contour>
      <point x="520" y="1652" type="curve" smooth="yes"/>
      <point x="443" y="1652"/>
      <point x="374" y="1721"/>
      <point x="376" y="1795" type="curve" smooth="yes"/>
      <point x="379" y="1888"/>
      <point x="459" y="1965"/>
      <point x="552" y="1965" type="curve" smooth="yes"/>
      <point x="643" y="1965"/>
      <point x="706" y="1898"/>
      <point x="704" y="1826" type="curve" smooth="yes"/>
      <point x="701" y="1732"/>
      <point x="630" y="1652"/>
    </contour>
  </outline>
</glyph>
<glyph name="ij" format="1">
  <advance width="1303"/>
  <unicode hex="0133"/>
  <outline>
    <contour>
      <point x="805" y="65" type="curve" smooth="yes"/>
      <point x="906" y="980" type="line"/>
      <point x="745" y="1031" type="line"/>
      <point x="765" y="1112" type="line"/>
      <point x="1146" y="1163" type="line"/>
      <point x="1196" y="1139" type="line"/>
      <point x="1062" y="0" type="line" smooth="yes"/>
      <point x="1021" y="-344"/>
      <point x="817" y="-523"/>
      <point x="579" y="-523" type="curve" smooth="yes"/>
      <point x="507" y="-523"/>
      <point x="448" y="-511"/>
      <point x="423" y="-486" type="curve"/>
      <point x="460" y="-385" type="line"/>
      <point x="478" y="-392"/>
      <point x="521" y="-397"/>
      <point x="532" y="-397" type="curve" smooth="yes"/>
      <point x="724" y="-397"/>
      <point x="778" y="-173"/>
    </contour>
    <contour>
      <point x="136" y="121" type="curve" smooth="yes"/>
      <point x="154" y="281"/>
      <point x="202" y="596"/>
      <point x="255" y="980" type="curve"/>
      <point x="99" y="1031" type="line"/>
      <point x="117" y="1112" type="line"/>
      <point x="491" y="1163" type="line"/>
      <point x="543" y="1139" type="line"/>
      <point x="409" y="207" type="line" smooth="yes"/>
      <point x="402" y="158"/>
      <point x="412" y="131"/>
      <point x="438" y="131" type="curve" smooth="yes"/>
      <point x="460" y="131"/>
      <point x="486" y="144"/>
      <point x="537" y="188" type="curve"/>
      <point x="567" y="125" type="line"/>
      <point x="546" y="95"/>
      <point x="445" y="-20"/>
      <point x="297" y="-20" type="curve" smooth="yes"/>
      <point x="186" y="-20"/>
      <point x="126" y="29"/>
    </contour>
    <contour>
      <point x="435" y="1363" type="curve" smooth="yes"/>
      <point x="358" y="1363"/>
      <point x="294" y="1433"/>
      <point x="296" y="1507" type="curve" smooth="yes"/>
      <point x="299" y="1600"/>
      <point x="374" y="1676"/>
      <point x="467" y="1676" type="curve" smooth="yes"/>
      <point x="559" y="1676"/>
      <point x="616" y="1609"/>
      <point x="613" y="1538" type="curve" smooth="yes"/>
      <point x="610" y="1444"/>
      <point x="545" y="1363"/>
    </contour>
    <contour>
      <point x="1084" y="1363" type="curve" smooth="yes"/>
      <point x="1007" y="1363"/>
      <point x="943" y="1433"/>
      <point x="945" y="1507" type="curve" smooth="yes"/>
      <point x="948" y="1600"/>
      <point x="1023" y="1676"/>
      <point x="1116" y="1676" type="curve" smooth="yes"/>
      <point x="1208" y="1676"/>
      <point x="1265" y="1609"/>
      <point x="1262" y="1538" type="curve" smooth="yes"/>
      <point x="1259" y="1444"/>
      <point x="1194" y="1363"/>
    </contour>
  </outline>
</glyph>
<glyph name="Jcircumflex" format="1">
  <advance width="740"/>
  <unicode hex="0134"/>
  <outline>
    <contour>
      <point x="161" y="86" type="curve" smooth="yes"/>
      <point x="241" y="476"/>
      <point x="283" y="965"/>
      <point x="333" y="1400" type="curve"/>
      <point x="186" y="1425" type="line"/>
      <point x="200" y="1530" type="line"/>
      <point x="775" y="1530" type="line"/>
      <point x="764" y="1425" type="line"/>
      <point x="603" y="1401" type="line"/>
      <point x="532" y="785"/>
      <point x="464" y="170"/>
      <point x="432" y="75" type="curve" smooth="yes"/>
      <point x="348" y="-179"/>
      <point x="106" y="-309"/>
      <point x="-134" y="-345" type="curve"/>
      <point x="-178" y="-247" type="line"/>
      <point x="21" y="-188"/>
      <point x="134" y="-45"/>
    </contour>
    <contour>
      <point x="251" y="1607" type="line"/>
      <point x="167" y="1665" type="line"/>
      <point x="503" y="2007" type="line"/>
      <point x="681" y="2007" type="line"/>
      <point x="892" y="1665" type="line"/>
      <point x="796" y="1606" type="line"/>
      <point x="575" y="1824" type="line"/>
    </contour>
  </outline>
</glyph>
<glyph name="jcircumflex" format="1">
  <advance width="650"/>
  <unicode hex="0135"/>
  <outline>
    <contour>
      <point x="152" y="65" type="curve" smooth="yes"/>
      <point x="253" y="980" type="line"/>
      <point x="92" y="1031" type="line"/>
      <point x="112" y="1112" type="line"/>
      <point x="493" y="1163" type="line"/>
      <point x="543" y="1139" type="line"/>
      <point x="409" y="0" type="line" smooth="yes"/>
      <point x="368" y="-344"/>
      <point x="164" y="-523"/>
      <point x="-74" y="-523" type="curve" smooth="yes"/>
      <point x="-146" y="-523"/>
      <point x="-205" y="-511"/>
      <point x="-230" y="-486" type="curve"/>
      <point x="-193" y="-385" type="line"/>
      <point x="-175" y="-392"/>
      <point x="-132" y="-397"/>
      <point x="-121" y="-397" type="curve" smooth="yes"/>
      <point x="71" y="-397"/>
      <point x="125" y="-173"/>
    </contour>
    <contour>
      <point x="86" y="1229" type="line"/>
      <point x="4" y="1286" type="line"/>
      <point x="351" y="1660" type="line"/>
      <point x="529" y="1660" type="line"/>
      <point x="729" y="1286" type="line"/>
      <point x="630" y="1228" type="line"/>
      <point x="414" y="1462" type="line"/>
    </contour>
  </outline>
</glyph>
<glyph name="Kcommaaccent" format="1">
  <advance width="1414"/>
  <unicode hex="0136"/>
  <outline>
    <contour>
      <point x="573" y="-154" type="line"/>
      <point x="712" y="-42" type="line"/>
      <point x="802" y="-61"/>
      <point x="862" y="-157"/>
      <point x="857" y="-260" type="curve" smooth="yes"/>
      <point x="849" y="-421"/>
      <point x="719" y="-540"/>
      <point x="628" y="-558" type="curve"/>
      <point x="558" y="-503" type="line"/>
      <point x="561" y="-477" type="line"/>
      <point x="598" y="-451"/>
      <point x="631" y="-409"/>
      <point x="634" y="-337" type="curve" smooth="yes"/>
      <point x="637" y="-289"/>
      <point x="606" y="-234"/>
      <point x="565" y="-228" type="curve"/>
    </contour>
    <contour>
      <point x="-6" y="0" type="line"/>
      <point x="6" y="96" type="line"/>
      <point x="153" y="126" type="line"/>
      <point x="316" y="1400" type="line"/>
      <point x="177" y="1425" type="line"/>
      <point x="190" y="1530" type="line"/>
      <point x="769" y="1530" type="line"/>
      <point x="757" y="1425" type="line"/>
      <point x="591" y="1400" type="line"/>
      <point x="502" y="705" type="line"/>
      <point x="1119" y="1400" type="line"/>
      <point x="988" y="1425" type="line"/>
      <point x="999" y="1530" type="line"/>
      <point x="1466" y="1530" type="line"/>
      <point x="1455" y="1425" type="line"/>
      <point x="1335" y="1401" type="line"/>
      <point x="830" y="870" type="line"/>
      <point x="895" y="769"/>
      <point x="1013" y="552"/>
      <point x="1066" y="453" type="curve" smooth="yes"/>
      <point x="1170" y="257"/>
      <point x="1223" y="164"/>
      <point x="1267" y="139" type="curve"/>
      <point x="1396" y="100" type="line"/>
      <point x="1383" y="0" type="line"/>
      <point x="1030" y="0" type="line"/>
      <point x="974" y="7"/>
      <point x="937" y="99"/>
      <point x="854" y="281" type="curve" smooth="yes"/>
      <point x="803" y="394"/>
      <point x="721" y="575"/>
      <point x="660" y="691" type="curve"/>
      <point x="475" y="497" type="line"/>
      <point x="428" y="126" type="line"/>
      <point x="593" y="97" type="line"/>
      <point x="585" y="0" type="line"/>
    </contour>
  </outline>
</glyph>
<glyph name="kcommaaccent" format="1">
  <advance width="1119"/>
  <unicode hex="0137"/>
  <outline>
    <contour>
      <point x="410" y="-156" type="line"/>
      <point x="549" y="-44" type="line"/>
      <point x="639" y="-63"/>
      <point x="699" y="-159"/>
      <point x="694" y="-262" type="curve" smooth="yes"/>
      <point x="686" y="-423"/>
      <point x="556" y="-542"/>
      <point x="465" y="-560" type="curve"/>
      <point x="395" y="-505" type="line"/>
      <point x="398" y="-479" type="line"/>
      <point x="435" y="-453"/>
      <point x="468" y="-411"/>
      <point x="471" y="-339" type="curve" smooth="yes"/>
      <point x="474" y="-291"/>
      <point x="443" y="-236"/>
      <point x="402" y="-230" type="curve"/>
    </contour>
    <contour>
      <point x="89" y="0" type="line"/>
      <point x="283" y="1482" type="line"/>
      <point x="161" y="1525" type="line"/>
      <point x="177" y="1608" type="line"/>
      <point x="515" y="1650" type="line"/>
      <point x="568" y="1623" type="line"/>
      <point x="353" y="0" type="line"/>
    </contour>
    <contour>
      <point x="678" y="95" type="curve" smooth="yes"/>
      <point x="442" y="610" type="line"/>
      <point x="445" y="611" type="line"/>
      <point x="442" y="611" type="line"/>
      <point x="560" y="690"/>
      <point x="654" y="742"/>
      <point x="761" y="885" type="curve" smooth="yes"/>
      <point x="801" y="938"/>
      <point x="810" y="989"/>
      <point x="814" y="1042" type="curve" smooth="yes"/>
      <point x="821" y="1133"/>
      <point x="902" y="1163"/>
      <point x="964" y="1163" type="curve" smooth="yes"/>
      <point x="1035" y="1163"/>
      <point x="1081" y="1113"/>
      <point x="1082" y="1050" type="curve" smooth="yes"/>
      <point x="1083" y="997"/>
      <point x="1063" y="953"/>
      <point x="1036" y="915" type="curve" smooth="yes"/>
      <point x="953" y="801"/>
      <point x="787" y="699"/>
      <point x="669" y="639" type="curve"/>
      <point x="895" y="245" type="line" smooth="yes"/>
      <point x="929" y="187"/>
      <point x="975" y="152"/>
      <point x="1006" y="152" type="curve" smooth="yes"/>
      <point x="1031" y="152"/>
      <point x="1079" y="169"/>
      <point x="1120" y="204" type="curve"/>
      <point x="1154" y="138" type="line"/>
      <point x="1115" y="83"/>
      <point x="995" y="-20"/>
      <point x="854" y="-20" type="curve" smooth="yes"/>
      <point x="769" y="-20"/>
      <point x="712" y="20"/>
    </contour>
  </outline>
</glyph>
<glyph name="lacute" format="1">
  <advance width="620"/>
  <unicode hex="013A"/>
  <outline>
    <contour>
      <point x="109" y="115" type="curve" smooth="yes"/>
      <point x="109" y="127"/>
      <point x="115" y="184"/>
      <point x="116" y="192" type="curve" smooth="yes"/>
      <point x="284" y="1359" type="line"/>
      <point x="157" y="1402" type="line"/>
      <point x="177" y="1485" type="line"/>
      <point x="511" y="1527" type="line"/>
      <point x="561" y="1500" type="line"/>
      <point x="377" y="207" type="line"/>
      <point x="372" y="160"/>
      <point x="379" y="131"/>
      <point x="405" y="131" type="curve" smooth="yes"/>
      <point x="421" y="131"/>
      <point x="440" y="137"/>
      <point x="485" y="167" type="curve"/>
      <point x="514" y="105" type="line"/>
      <point x="496" y="80"/>
      <point x="405" y="-20"/>
      <point x="274" y="-20" type="curve" smooth="yes"/>
      <point x="180" y="-20"/>
      <point x="108" y="18"/>
    </contour>
    <contour>
      <point x="447" y="1592" type="curve"/>
      <point x="363" y="1665" type="line"/>
      <point x="639" y="2007" type="line"/>
      <point x="794" y="1846" type="line"/>
      <point x="742" y="1740"/>
      <point x="543" y="1628"/>
    </contour>
  </outline>
</glyph>
<glyph name="Lcaron" format="1">
  <advance width="1220"/>
  <unicode hex="013D"/>
  <outline>
    <contour>
      <point x="0" y="0" type="line"/>
      <point x="10" y="97" type="line"/>
      <point x="153" y="126" type="line"/>
      <point x="316" y="1400" type="line"/>
      <point x="176" y="1425" type="line"/>
      <point x="189" y="1530" type="line"/>
      <point x="787" y="1530" type="line"/>
      <point x="776" y="1425" type="line"/>
      <point x="591" y="1400" type="line"/>
      <point x="427" y="123" type="line"/>
      <point x="836" y="138" type="line"/>
      <point x="999" y="527" type="line"/>
      <point x="1148" y="504" type="line"/>
      <point x="1058" y="0" type="line"/>
    </contour>
    <contour>
      <point x="1022" y="1010" type="curve"/>
      <point x="927" y="1040" type="line"/>
      <point x="921" y="1065" type="line"/>
      <point x="943" y="1138"/>
      <point x="961" y="1249"/>
      <point x="967" y="1361" type="curve" smooth="yes"/>
      <point x="971" y="1436"/>
      <point x="960" y="1532"/>
      <point x="940" y="1562" type="curve"/>
      <point x="959" y="1604" type="line"/>
      <point x="1141" y="1650" type="line"/>
      <point x="1170" y="1618"/>
      <point x="1179" y="1529"/>
      <point x="1174" y="1441" type="curve" smooth="yes"/>
      <point x="1164" y="1275"/>
      <point x="1103" y="1101"/>
    </contour>
  </outline>
</glyph>
<glyph name="Ncommaaccent" format="1">
  <advance width="1531"/>
  <unicode hex="0145"/>
  <outline>
    <contour>
      <point x="555" y="-156" type="line"/>
      <point x="694" y="-44" type="line"/>
      <point x="784" y="-63"/>
      <point x="844" y="-159"/>
      <point x="839" y="-262" type="curve" smooth="yes"/>
      <point x="831" y="-423"/>
      <point x="701" y="-542"/>
      <point x="610" y="-560" type="curve"/>
      <point x="540" y="-505" type="line"/>
      <point x="543" y="-479" type="line"/>
      <point x="580" y="-453"/>
      <point x="613" y="-411"/>
      <point x="616" y="-339" type="curve" smooth="yes"/>
      <point x="619" y="-291"/>
      <point x="588" y="-236"/>
      <point x="547" y="-230" type="curve"/>
    </contour>
    <contour>
      <point x="1" y="0" type="line"/>
      <point x="9" y="96" type="line"/>
      <point x="151" y="125" type="line"/>
      <point x="329" y="1400" type="line"/>
      <point x="171" y="1425" type="line"/>
      <point x="187" y="1530" type="line"/>
      <point x="635" y="1530" type="line"/>
      <point x="1059" y="477" type="line"/>
      <point x="1128" y="265" type="line"/>
      <point x="1264" y="1401" type="line"/>
      <point x="1108" y="1425" type="line"/>
      <point x="1120" y="1530" type="line"/>
      <point x="1596" y="1530" type="line"/>
      <point x="1586" y="1425" type="line"/>
      <point x="1451" y="1400" type="line"/>
      <point x="1244" y="0" type="line"/>
      <point x="971" y="0" type="line"/>
      <point x="536" y="1062" type="line"/>
      <point x="469" y="1280" type="line"/>
      <point x="346" y="126" type="line"/>
      <point x="518" y="97" type="line"/>
      <point x="509" y="0" type="line"/>
    </contour>
  </outline>
</glyph>
<glyph name="Omacron" format="1">
  <advance width="1443"/>
  <unicode hex="014C"/>
  <outline>
    <contour>
      <point x="586" y="1718" type="line"/>
      <point x="588" y="1897" type="line"/>
      <point x="1128" y="1897" type="line"/>
      <point x="1126" y="1718" type="line"/>
    </contour>
    <contour>
      <point x="81" y="629" type="curve" smooth="yes"/>
      <point x="76" y="1127"/>
      <point x="363" y="1550"/>
      <point x="836" y="1550" type="curve" smooth="yes"/>
      <point x="1212" y="1550"/>
      <point x="1383" y="1247"/>
      <point x="1386" y="898" type="curve" smooth="yes"/>
      <point x="1390" y="411"/>
      <point x="1128" y="-20"/>
      <point x="639" y="-20" type="curve" smooth="yes"/>
      <point x="277" y="-20"/>
      <point x="85" y="242"/>
    </contour>
    <contour>
      <point x="668" y="101" type="curve" smooth="yes"/>
      <point x="936" y="100"/>
      <point x="1099" y="438"/>
      <point x="1095" y="873" type="curve" smooth="yes"/>
      <point x="1092" y="1224"/>
      <point x="1000" y="1426"/>
      <point x="805" y="1426" type="curve" smooth="yes"/>
      <point x="544" y="1426"/>
      <point x="370" y="1073"/>
      <point x="374" y="680" type="curve" smooth="yes"/>
      <point x="377" y="363"/>
      <point x="438" y="102"/>
    </contour>
  </outline>
</glyph>
<glyph name="Obreve" format="1">
  <advance width="1443"/>
  <unicode hex="014E"/>
  <outline>
    <contour>
      <point x="859" y="1631" type="curve" smooth="yes"/>
      <point x="647" y="1631"/>
      <point x="559" y="1799"/>
      <point x="559" y="1953" type="curve" smooth="yes"/>
      <point x="559" y="1968"/>
      <point x="560" y="1983"/>
      <point x="562" y="1997" type="curve"/>
      <point x="706" y="1997" type="line"/>
      <point x="708" y="1959" type="line"/>
      <point x="715" y="1894"/>
      <point x="743" y="1813"/>
      <point x="864" y="1813" type="curve" smooth="yes"/>
      <point x="1011" y="1813"/>
      <point x="1043" y="1927"/>
      <point x="1056" y="1997" type="curve"/>
      <point x="1198" y="1997" type="line"/>
      <point x="1199" y="1986"/>
      <point x="1198" y="1974"/>
      <point x="1197" y="1963" type="curve" smooth="yes"/>
      <point x="1186" y="1806"/>
      <point x="1069" y="1631"/>
    </contour>
    <contour>
      <point x="81" y="629" type="curve" smooth="yes"/>
      <point x="76" y="1127"/>
      <point x="363" y="1550"/>
      <point x="836" y="1550" type="curve" smooth="yes"/>
      <point x="1212" y="1550"/>
      <point x="1383" y="1247"/>
      <point x="1386" y="898" type="curve" smooth="yes"/>
      <point x="1390" y="411"/>
      <point x="1128" y="-20"/>
      <point x="639" y="-20" type="curve" smooth="yes"/>
      <point x="277" y="-20"/>
      <point x="85" y="242"/>
    </contour>
    <contour>
      <point x="668" y="101" type="curve" smooth="yes"/>
      <point x="936" y="100"/>
      <point x="1099" y="438"/>
      <point x="1095" y="873" type="curve" smooth="yes"/>
      <point x="1092" y="1224"/>
      <point x="1000" y="1426"/>
      <point x="805" y="1426" type="curve" smooth="yes"/>
      <point x="544" y="1426"/>
      <point x="370" y="1073"/>
      <point x="374" y="680" type="curve" smooth="yes"/>
      <point x="377" y="363"/>
      <point x="438" y="102"/>
    </contour>
  </outline>
</glyph>
<glyph name="obreve" format="1">
  <advance width="1170"/>
  <unicode hex="014F"/>
  <outline>
    <contour>
      <point x="74" y="439" type="curve"/>
      <point x="65" y="817"/>
      <point x="306" y="1163"/>
      <point x="670" y="1163" type="curve" smooth="yes"/>
      <point x="939" y="1163"/>
      <point x="1084" y="994"/>
      <point x="1091" y="703" type="curve" smooth="yes"/>
      <point x="1101" y="325"/>
      <point x="859" y="-20"/>
      <point x="494" y="-20" type="curve" smooth="yes"/>
      <point x="225" y="-20"/>
      <point x="82" y="148"/>
    </contour>
    <contour>
      <point x="534" y="105" type="curve" smooth="yes"/>
      <point x="738" y="105"/>
      <point x="813" y="446"/>
      <point x="807" y="705" type="curve"/>
      <point x="803" y="926"/>
      <point x="747" y="1033"/>
      <point x="635" y="1033" type="curve" smooth="yes"/>
      <point x="431" y="1033"/>
      <point x="350" y="693"/>
      <point x="356" y="438" type="curve" smooth="yes"/>
      <point x="361" y="216"/>
      <point x="414" y="105"/>
    </contour>
    <contour>
      <point x="685" y="1300" type="curve" smooth="yes"/>
      <point x="473" y="1300"/>
      <point x="384" y="1468"/>
      <point x="384" y="1623" type="curve" smooth="yes"/>
      <point x="384" y="1637"/>
      <point x="385" y="1652"/>
      <point x="387" y="1666" type="curve"/>
      <point x="532" y="1666" type="line"/>
      <point x="532" y="1655"/>
      <point x="532" y="1642"/>
      <point x="533" y="1628" type="curve" smooth="yes"/>
      <point x="541" y="1564"/>
      <point x="569" y="1482"/>
      <point x="690" y="1482" type="curve" smooth="yes"/>
      <point x="837" y="1482"/>
      <point x="869" y="1596"/>
      <point x="882" y="1666" type="curve"/>
      <point x="1024" y="1666" type="line"/>
      <point x="1024" y="1655"/>
      <point x="1024" y="1644"/>
      <point x="1023" y="1633" type="curve" smooth="yes"/>
      <point x="1012" y="1476"/>
      <point x="895" y="1300"/>
    </contour>
  </outline>
</glyph>
<glyph name="Ohungarumlaut" format="1">
  <advance width="1443"/>
  <unicode hex="0150"/>
  <outline>
    <contour>
      <point x="81" y="629" type="curve" smooth="yes"/>
      <point x="76" y="1127"/>
      <point x="363" y="1550"/>
      <point x="836" y="1550" type="curve" smooth="yes"/>
      <point x="1212" y="1550"/>
      <point x="1383" y="1247"/>
      <point x="1386" y="898" type="curve" smooth="yes"/>
      <point x="1390" y="411"/>
      <point x="1128" y="-20"/>
      <point x="639" y="-20" type="curve" smooth="yes"/>
      <point x="277" y="-20"/>
      <point x="85" y="242"/>
    </contour>
    <contour>
      <point x="668" y="101" type="curve" smooth="yes"/>
      <point x="936" y="100"/>
      <point x="1099" y="438"/>
      <point x="1095" y="873" type="curve" smooth="yes"/>
      <point x="1092" y="1224"/>
      <point x="1000" y="1426"/>
      <point x="805" y="1426" type="curve" smooth="yes"/>
      <point x="544" y="1426"/>
      <point x="370" y="1073"/>
      <point x="374" y="680" type="curve" smooth="yes"/>
      <point x="377" y="363"/>
      <point x="438" y="102"/>
    </contour>
    <contour>
      <point x="1050" y="1575" type="curve"/>
      <point x="974" y="1635" type="line"/>
      <point x="1271" y="2007" type="line"/>
      <point x="1418" y="1881" type="line"/>
      <point x="1350" y="1765"/>
      <point x="1173" y="1613"/>
    </contour>
    <contour>
      <point x="600" y="1575" type="curve"/>
      <point x="521" y="1635" type="line"/>
      <point x="818" y="2007" type="line"/>
      <point x="966" y="1882" type="line"/>
      <point x="915" y="1766"/>
      <point x="714" y="1612"/>
    </contour>
  </outline>
</glyph>
<glyph name="ohungarumlaut" format="1">
  <advance width="1170"/>
  <unicode hex="0151"/>
  <outline>
    <contour>
      <point x="879" y="1242" type="curve"/>
      <point x="795" y="1296" type="line"/>
      <point x="1051" y="1727" type="line"/>
      <point x="1206" y="1611" type="line"/>
      <point x="1179" y="1506"/>
      <point x="985" y="1284"/>
    </contour>
    <contour>
      <point x="424" y="1242" type="curve"/>
      <point x="341" y="1296" type="line"/>
      <point x="590" y="1727" type="line"/>
      <point x="748" y="1610" type="line"/>
      <point x="718" y="1497"/>
      <point x="531" y="1294"/>
    </contour>
    <contour>
      <point x="74" y="439" type="curve"/>
      <point x="65" y="817"/>
      <point x="306" y="1163"/>
      <point x="670" y="1163" type="curve" smooth="yes"/>
      <point x="939" y="1163"/>
      <point x="1084" y="994"/>
      <point x="1091" y="703" type="curve" smooth="yes"/>
      <point x="1101" y="325"/>
      <point x="859" y="-20"/>
      <point x="494" y="-20" type="curve" smooth="yes"/>
      <point x="225" y="-20"/>
      <point x="82" y="148"/>
    </contour>
    <contour>
      <point x="534" y="105" type="curve" smooth="yes"/>
      <point x="738" y="105"/>
      <point x="813" y="446"/>
      <point x="807" y="705" type="curve"/>
      <point x="803" y="926"/>
      <point x="747" y="1033"/>
      <point x="635" y="1033" type="curve" smooth="yes"/>
      <point x="431" y="1033"/>
      <point x="350" y="693"/>
      <point x="356" y="438" type="curve" smooth="yes"/>
      <point x="361" y="216"/>
      <point x="414" y="105"/>
    </contour>
  </outline>
</glyph>
<glyph name="scaron" format="1">
  <advance width="879"/>
  <unicode hex="0161"/>
  <outline>
    <contour>
      <point x="441" y="1247" type="line"/>
      <point x="224" y="1602" type="line"/>
      <point x="320" y="1660" type="line"/>
      <point x="544" y="1433" type="line"/>
      <point x="591" y="1473"/>
      <point x="818" y="1621"/>
      <point x="864" y="1660" type="curve"/>
      <point x="949" y="1603" type="line"/>
      <point x="617" y="1247" type="line"/>
    </contour>
    <contour>
      <point x="25" y="44" type="curve"/>
      <point x="67" y="220" type="line"/>
      <point x="111" y="185"/>
      <point x="215" y="125"/>
      <point x="335" y="125" type="curve" smooth="yes"/>
      <point x="413" y="125"/>
      <point x="513" y="146"/>
      <point x="513" y="258" type="curve" smooth="yes"/>
      <point x="513" y="354"/>
      <point x="435" y="415"/>
      <point x="335" y="487" type="curve" smooth="yes"/>
      <point x="254" y="546"/>
      <point x="133" y="659"/>
      <point x="133" y="833" type="curve" smooth="yes"/>
      <point x="133" y="1046"/>
      <point x="326" y="1163"/>
      <point x="559" y="1163" type="curve" smooth="yes"/>
      <point x="667" y="1163"/>
      <point x="784" y="1141"/>
      <point x="817" y="1126" type="curve"/>
      <point x="777" y="939" type="line"/>
      <point x="758" y="963"/>
      <point x="678" y="1027"/>
      <point x="561" y="1027" type="curve" smooth="yes"/>
      <point x="477" y="1027"/>
      <point x="395" y="994"/>
      <point x="388" y="901" type="curve" smooth="yes"/>
      <point x="382" y="808"/>
      <point x="452" y="738"/>
      <point x="557" y="660" type="curve" smooth="yes"/>
      <point x="662" y="581"/>
      <point x="770" y="479"/>
      <point x="770" y="310" type="curve" smooth="yes"/>
      <point x="770" y="82"/>
      <point x="558" y="-20"/>
      <point x="333" y="-20" type="curve" smooth="yes"/>
      <point x="208" y="-20"/>
      <point x="62" y="14"/>
    </contour>
  </outline>
</glyph>
<glyph name="uni0163" format="1">
  <advance width="730"/>
  <unicode hex="0163"/>
  <outline>
    <contour>
      <point x="128" y="159" type="curve" smooth="yes"/>
      <point x="128" y="172"/>
      <point x="128" y="195"/>
      <point x="148" y="345" type="curve" smooth="yes"/>
      <point x="234" y="1005" type="line"/>
      <point x="114" y="1005" type="line"/>
      <point x="136" y="1103" type="line"/>
      <point x="259" y="1150" type="line"/>
      <point x="311" y="1200"/>
      <point x="368" y="1321"/>
      <point x="406" y="1416" type="curve"/>
      <point x="548" y="1416" type="line"/>
      <point x="514" y="1155" type="line"/>
      <point x="749" y="1155" type="line"/>
      <point x="728" y="1005" type="line"/>
      <point x="495" y="1005" type="line"/>
      <point x="412" y="390" type="line" smooth="yes"/>
      <point x="403" y="320"/>
      <point x="396" y="268"/>
      <point x="396" y="232" type="curve" smooth="yes"/>
      <point x="396" y="168"/>
      <point x="415" y="145"/>
      <point x="475" y="145" type="curve" smooth="yes"/>
      <point x="526" y="145"/>
      <point x="609" y="178"/>
      <point x="655" y="215" type="curve"/>
      <point x="677" y="136" type="line"/>
      <point x="632" y="83"/>
      <point x="522" y="8"/>
      <point x="389" y="-14" type="curve"/>
      <point x="405" y="-66"/>
      <point x="413" y="-145"/>
      <point x="410" y="-212" type="curve"/>
      <point x="398" y="-399"/>
      <point x="310" y="-474"/>
      <point x="127" y="-474" type="curve" smooth="yes"/>
      <point x="74" y="-474"/>
      <point x="-19" y="-462"/>
      <point x="-41" y="-446" type="curve"/>
      <point x="-6" y="-304" type="line"/>
      <point x="11" y="-313"/>
      <point x="38" y="-319"/>
      <point x="69" y="-319" type="curve" smooth="yes"/>
      <point x="161" y="-319"/>
      <point x="234" y="-275"/>
      <point x="245" y="-137" type="curve" smooth="yes"/>
      <point x="249" y="-84"/>
      <point x="246" y="-42"/>
      <point x="242" y="-10" type="curve"/>
      <point x="177" y="8"/>
      <point x="128" y="57"/>
    </contour>
  </outline>
</glyph>
<glyph name="umacron" format="1">
  <advance width="1242"/>
  <unicode hex="016B"/>
  <outline>
    <contour>
      <point x="137" y="245" type="curve" smooth="yes"/>
      <point x="136" y="336"/>
      <point x="158" y="476"/>
      <point x="175" y="597" type="curve" smooth="yes"/>
      <point x="228" y="962" type="line"/>
      <point x="115" y="1032" type="line"/>
      <point x="132" y="1121" type="line"/>
      <point x="455" y="1163" type="line"/>
      <point x="505" y="1139" type="line"/>
      <point x="436" y="589" type="line" smooth="yes"/>
      <point x="421" y="470"/>
      <point x="402" y="364"/>
      <point x="402" y="284" type="curve" smooth="yes"/>
      <point x="402" y="167"/>
      <point x="445" y="133"/>
      <point x="521" y="133" type="curve" smooth="yes"/>
      <point x="607" y="133"/>
      <point x="691" y="187"/>
      <point x="747" y="247" type="curve"/>
      <point x="869" y="1155" type="line"/>
      <point x="1128" y="1155" type="line"/>
      <point x="1002" y="208" type="line" smooth="yes"/>
      <point x="995" y="156"/>
      <point x="1007" y="132"/>
      <point x="1033" y="132" type="curve" smooth="yes"/>
      <point x="1055" y="132"/>
      <point x="1076" y="143"/>
      <point x="1132" y="189" type="curve"/>
      <point x="1161" y="126" type="line"/>
      <point x="1143" y="95"/>
      <point x="1037" y="-19"/>
      <point x="898" y="-19" type="curve" smooth="yes"/>
      <point x="783" y="-19"/>
      <point x="736" y="43"/>
      <point x="751" y="135" type="curve"/>
      <point x="681" y="59"/>
      <point x="575" y="-20"/>
      <point x="410" y="-20" type="curve" smooth="yes"/>
      <point x="273" y="-20"/>
      <point x="138" y="44"/>
    </contour>
    <contour>
      <point x="402" y="1415" type="line"/>
      <point x="404" y="1594" type="line"/>
      <point x="944" y="1594" type="line"/>
      <point x="942" y="1415" type="line"/>
    </contour>
  </outline>
</glyph>
<glyph name="Uring" format="1">
  <advance width="1413"/>
  <unicode hex="016E"/>
  <outline>
    <contour>
      <point x="137" y="428" type="curve" smooth="yes"/>
      <point x="136" y="480"/>
      <point x="138" y="534"/>
      <point x="144" y="593" type="curve"/>
      <point x="248" y="1401" type="line"/>
      <point x="109" y="1425" type="line"/>
      <point x="122" y="1530" type="line"/>
      <point x="715" y="1530" type="line"/>
      <point x="705" y="1426" type="line"/>
      <point x="531" y="1400" type="line"/>
      <point x="430" y="617" type="line"/>
      <point x="422" y="540"/>
      <point x="416" y="472"/>
      <point x="416" y="420" type="curve" smooth="yes"/>
      <point x="418" y="217"/>
      <point x="507" y="97"/>
      <point x="680" y="97" type="curve" smooth="yes"/>
      <point x="916" y="97"/>
      <point x="1032" y="294"/>
      <point x="1073" y="626" type="curve"/>
      <point x="1177" y="1400" type="line"/>
      <point x="1026" y="1425" type="line"/>
      <point x="1037" y="1530" type="line"/>
      <point x="1495" y="1530" type="line"/>
      <point x="1482" y="1425" type="line"/>
      <point x="1356" y="1401" type="line"/>
      <point x="1255" y="627" type="line"/>
      <point x="1195" y="156"/>
      <point x="988" y="-20"/>
      <point x="634" y="-20" type="curve" smooth="yes"/>
      <point x="279" y="-20"/>
      <point x="139" y="166"/>
    </contour>
    <contour>
      <point x="880" y="1479" type="curve" smooth="yes"/>
      <point x="684" y="1479"/>
      <point x="571" y="1570"/>
      <point x="581" y="1731" type="curve" smooth="yes"/>
      <point x="593" y="1940"/>
      <point x="795" y="2007"/>
      <point x="948" y="2007" type="curve" smooth="yes"/>
      <point x="1129" y="2007"/>
      <point x="1245" y="1920"/>
      <point x="1236" y="1763" type="curve" smooth="yes"/>
      <point x="1225" y="1564"/>
      <point x="1050" y="1479"/>
    </contour>
    <contour>
      <point x="893" y="1592" type="curve" smooth="yes"/>
      <point x="982" y="1591"/>
      <point x="1062" y="1621"/>
      <point x="1069" y="1746" type="curve" smooth="yes"/>
      <point x="1075" y="1836"/>
      <point x="1010" y="1895"/>
      <point x="927" y="1895" type="curve" smooth="yes"/>
      <point x="839" y="1896"/>
      <point x="755" y="1859"/>
      <point x="748" y="1742" type="curve" smooth="yes"/>
      <point x="743" y="1656"/>
      <point x="812" y="1593"/>
    </contour>
  </outline>
</glyph>
<glyph name="uring" format="1">
  <advance width="1242"/>
  <unicode hex="016F"/>
  <outline>
    <contour>
      <point x="702" y="1253" type="curve" smooth="yes"/>
      <point x="506" y="1253"/>
      <point x="399" y="1351"/>
      <point x="409" y="1512" type="curve"/>
      <point x="420" y="1721"/>
      <point x="622" y="1795"/>
      <point x="775" y="1795" type="curve" smooth="yes"/>
      <point x="957" y="1795"/>
      <point x="1072" y="1702"/>
      <point x="1063" y="1544" type="curve" smooth="yes"/>
      <point x="1052" y="1345"/>
      <point x="872" y="1253"/>
    </contour>
    <contour>
      <point x="720" y="1368" type="curve" smooth="yes"/>
      <point x="810" y="1367"/>
      <point x="890" y="1402"/>
      <point x="897" y="1527" type="curve" smooth="yes"/>
      <point x="902" y="1617"/>
      <point x="838" y="1681"/>
      <point x="755" y="1681" type="curve" smooth="yes"/>
      <point x="667" y="1682"/>
      <point x="582" y="1641"/>
      <point x="576" y="1523" type="curve"/>
      <point x="570" y="1437"/>
      <point x="640" y="1369"/>
    </contour>
    <contour>
      <point x="137" y="245" type="curve" smooth="yes"/>
      <point x="136" y="336"/>
      <point x="158" y="476"/>
      <point x="175" y="597" type="curve" smooth="yes"/>
      <point x="228" y="962" type="line"/>
      <point x="115" y="1032" type="line"/>
      <point x="132" y="1121" type="line"/>
      <point x="455" y="1163" type="line"/>
      <point x="505" y="1139" type="line"/>
      <point x="436" y="589" type="line" smooth="yes"/>
      <point x="421" y="470"/>
      <point x="402" y="364"/>
      <point x="402" y="284" type="curve" smooth="yes"/>
      <point x="402" y="167"/>
      <point x="445" y="133"/>
      <point x="521" y="133" type="curve" smooth="yes"/>
      <point x="607" y="133"/>
      <point x="691" y="187"/>
      <point x="747" y="247" type="curve"/>
      <point x="869" y="1155" type="line"/>
      <point x="1128" y="1155" type="line"/>
      <point x="1002" y="208" type="line" smooth="yes"/>
      <point x="995" y="156"/>
      <point x="1007" y="132"/>
      <point x="1033" y="132" type="curve" smooth="yes"/>
      <point x="1055" y="132"/>
      <point x="1076" y="143"/>
      <point x="1132" y="189" type="curve"/>
      <point x="1161" y="126" type="line"/>
      <point x="1143" y="95"/>
      <point x="1037" y="-19"/>
      <point x="898" y="-19" type="curve" smooth="yes"/>
      <point x="783" y="-19"/>
      <point x="736" y="43"/>
      <point x="751" y="135" type="curve"/>
      <point x="681" y="59"/>
      <point x="575" y="-20"/>
      <point x="410" y="-20" type="curve" smooth="yes"/>
      <point x="273" y="-20"/>
      <point x="138" y="44"/>
    </contour>
  </outline>
</glyph>
<glyph name="Uhungarumlaut" format="1">
  <advance width="1413"/>
  <unicode hex="0170"/>
  <outline>
    <contour>
      <point x="137" y="428" type="curve" smooth="yes"/>
      <point x="136" y="480"/>
      <point x="138" y="534"/>
      <point x="144" y="593" type="curve"/>
      <point x="248" y="1401" type="line"/>
      <point x="109" y="1425" type="line"/>
      <point x="122" y="1530" type="line"/>
      <point x="715" y="1530" type="line"/>
      <point x="705" y="1426" type="line"/>
      <point x="531" y="1400" type="line"/>
      <point x="430" y="617" type="line"/>
      <point x="422" y="540"/>
      <point x="416" y="472"/>
      <point x="416" y="420" type="curve" smooth="yes"/>
      <point x="418" y="217"/>
      <point x="507" y="97"/>
      <point x="680" y="97" type="curve" smooth="yes"/>
      <point x="916" y="97"/>
      <point x="1032" y="294"/>
      <point x="1073" y="626" type="curve"/>
      <point x="1177" y="1400" type="line"/>
      <point x="1026" y="1425" type="line"/>
      <point x="1037" y="1530" type="line"/>
      <point x="1495" y="1530" type="line"/>
      <point x="1482" y="1425" type="line"/>
      <point x="1356" y="1401" type="line"/>
      <point x="1255" y="627" type="line"/>
      <point x="1195" y="156"/>
      <point x="988" y="-20"/>
      <point x="634" y="-20" type="curve" smooth="yes"/>
      <point x="279" y="-20"/>
      <point x="139" y="166"/>
    </contour>
    <contour>
      <point x="1078" y="1575" type="curve"/>
      <point x="1002" y="1635" type="line"/>
      <point x="1299" y="2007" type="line"/>
      <point x="1446" y="1881" type="line"/>
      <point x="1378" y="1765"/>
      <point x="1201" y="1613"/>
    </contour>
    <contour>
      <point x="628" y="1575" type="curve"/>
      <point x="549" y="1635" type="line"/>
      <point x="846" y="2007" type="line"/>
      <point x="994" y="1882" type="line"/>
      <point x="943" y="1766"/>
      <point x="742" y="1612"/>
    </contour>
  </outline>
</glyph>
<glyph name="uhungarumlaut" format="1">
  <advance width="1242"/>
  <unicode hex="0171"/>
  <outline>
    <contour>
      <point x="137" y="245" type="curve" smooth="yes"/>
      <point x="136" y="336"/>
      <point x="158" y="476"/>
      <point x="175" y="597" type="curve" smooth="yes"/>
      <point x="228" y="962" type="line"/>
      <point x="115" y="1032" type="line"/>
      <point x="132" y="1121" type="line"/>
      <point x="455" y="1163" type="line"/>
      <point x="505" y="1139" type="line"/>
      <point x="436" y="589" type="line" smooth="yes"/>
      <point x="421" y="470"/>
      <point x="402" y="364"/>
      <point x="402" y="284" type="curve" smooth="yes"/>
      <point x="402" y="167"/>
      <point x="445" y="133"/>
      <point x="521" y="133" type="curve" smooth="yes"/>
      <point x="607" y="133"/>
      <point x="691" y="187"/>
      <point x="747" y="247" type="curve"/>
      <point x="869" y="1155" type="line"/>
      <point x="1128" y="1155" type="line"/>
      <point x="1002" y="208" type="line" smooth="yes"/>
      <point x="995" y="156"/>
      <point x="1007" y="132"/>
      <point x="1033" y="132" type="curve" smooth="yes"/>
      <point x="1055" y="132"/>
      <point x="1076" y="143"/>
      <point x="1132" y="189" type="curve"/>
      <point x="1161" y="126" type="line"/>
      <point x="1143" y="95"/>
      <point x="1037" y="-19"/>
      <point x="898" y="-19" type="curve" smooth="yes"/>
      <point x="783" y="-19"/>
      <point x="736" y="43"/>
      <point x="751" y="135" type="curve"/>
      <point x="681" y="59"/>
      <point x="575" y="-20"/>
      <point x="410" y="-20" type="curve" smooth="yes"/>
      <point x="273" y="-20"/>
      <point x="138" y="44"/>
    </contour>
    <contour>
      <point x="895" y="1242" type="curve"/>
      <point x="811" y="1296" type="line"/>
      <point x="1067" y="1727" type="line"/>
      <point x="1222" y="1611" type="line"/>
      <point x="1195" y="1506"/>
      <point x="1001" y="1284"/>
    </contour>
    <contour>
      <point x="440" y="1242" type="curve"/>
      <point x="357" y="1296" type="line"/>
      <point x="606" y="1727" type="line"/>
      <point x="764" y="1610" type="line"/>
      <point x="734" y="1497"/>
      <point x="547" y="1294"/>
    </contour>
  </outline>
</glyph>
<glyph name="wcircumflex" format="1">
  <advance width="1720"/>
  <unicode hex="0175"/>
  <outline>
    <contour>
      <point x="724" y="1229" type="line"/>
      <point x="642" y="1286" type="line"/>
      <point x="989" y="1660" type="line"/>
      <point x="1167" y="1660" type="line"/>
      <point x="1367" y="1286" type="line"/>
      <point x="1268" y="1228" type="line"/>
      <point x="1052" y="1462" type="line"/>
    </contour>
    <contour>
      <point x="320" y="-20" type="line"/>
      <point x="251" y="355" type="line"/>
      <point x="147" y="945" type="line" smooth="yes"/>
      <point x="139" y="986"/>
      <point x="125" y="1000"/>
      <point x="105" y="1001" type="curve" smooth="yes"/>
      <point x="79" y="1002"/>
      <point x="57" y="988"/>
      <point x="36" y="973" type="curve"/>
      <point x="6" y="1043" type="line"/>
      <point x="23" y="1067"/>
      <point x="119" y="1163"/>
      <point x="240" y="1163" type="curve" smooth="yes"/>
      <point x="351" y="1163"/>
      <point x="396" y="1115"/>
      <point x="408" y="1026" type="curve"/>
      <point x="479" y="390" type="line"/>
      <point x="497" y="192" type="line"/>
      <point x="579" y="417" type="line"/>
      <point x="850" y="1155" type="line"/>
      <point x="1076" y="1155" type="line"/>
      <point x="1166" y="373" type="line"/>
      <point x="1189" y="192" type="line"/>
      <point x="1289" y="358" type="line"/>
      <point x="1339" y="443"/>
      <point x="1438" y="645"/>
      <point x="1445" y="837" type="curve"/>
      <point x="1447" y="922"/>
      <point x="1415" y="983"/>
      <point x="1415" y="1040" type="curve" smooth="yes"/>
      <point x="1415" y="1116"/>
      <point x="1462" y="1163"/>
      <point x="1542" y="1163" type="curve" smooth="yes"/>
      <point x="1659" y="1163"/>
      <point x="1689" y="1076"/>
      <point x="1690" y="950" type="curve" smooth="yes"/>
      <point x="1692" y="765"/>
      <point x="1513" y="467"/>
      <point x="1395" y="292" type="curve"/>
      <point x="1195" y="-8" type="line"/>
      <point x="982" y="-19" type="line"/>
      <point x="929" y="355" type="line"/>
      <point x="893" y="680" type="line"/>
      <point x="890" y="821" type="line"/>
      <point x="841" y="680" type="line"/>
      <point x="696" y="325" type="line"/>
      <point x="546" y="-6" type="line"/>
    </contour>
  </outline>
</glyph>
<glyph name="Ycircumflex" format="1">
  <advance width="1227"/>
  <unicode hex="0176"/>
  <outline>
    <contour>
      <point x="202" y="0" type="line"/>
      <point x="212" y="97" type="line"/>
      <point x="425" y="126" type="line"/>
      <point x="485" y="598" type="line"/>
      <point x="137" y="1400" type="line"/>
      <point x="30" y="1425" type="line"/>
      <point x="41" y="1530" type="line"/>
      <point x="627" y="1530" type="line"/>
      <point x="613" y="1425" type="line"/>
      <point x="442" y="1400" type="line"/>
      <point x="642" y="873" type="line"/>
      <point x="687" y="749" type="line"/>
      <point x="749" y="860" type="line"/>
      <point x="1066" y="1400" type="line"/>
      <point x="920" y="1425" type="line"/>
      <point x="930" y="1530" type="line"/>
      <point x="1403" y="1530" type="line"/>
      <point x="1390" y="1425" type="line"/>
      <point x="1277" y="1401" type="line"/>
      <point x="756" y="598" type="line"/>
      <point x="695" y="126" type="line"/>
      <point x="924" y="97" type="line"/>
      <point x="915" y="0" type="line"/>
    </contour>
    <contour>
      <point x="508" y="1607" type="line"/>
      <point x="424" y="1665" type="line"/>
      <point x="760" y="2007" type="line"/>
      <point x="938" y="2007" type="line"/>
      <point x="1149" y="1665" type="line"/>
      <point x="1053" y="1606" type="line"/>
      <point x="832" y="1824" type="line"/>
    </contour>
  </outline>
</glyph>
<glyph name="zacute" format="1">
  <advance width="1024"/>
  <unicode hex="017A"/>
  <outline>
    <contour>
      <point x="591" y="1241" type="curve"/>
      <point x="513" y="1312" type="line"/>
      <point x="830" y="1743" type="line"/>
      <point x="997" y="1566" type="line"/>
      <point x="961" y="1498"/>
      <point x="710" y="1287"/>
    </contour>
    <contour>
      <point x="-17" y="39" type="line"/>
      <point x="627" y="829" type="line"/>
      <point x="745" y="931" type="line"/>
      <point x="399" y="932" type="line" smooth="yes"/>
      <point x="299" y="932"/>
      <point x="230" y="863"/>
      <point x="220" y="776" type="curve"/>
      <point x="144" y="776" type="line"/>
      <point x="137" y="869"/>
      <point x="145" y="1104"/>
      <point x="218" y="1142" type="curve" smooth="yes"/>
      <point x="234" y="1151"/>
      <point x="269" y="1163"/>
      <point x="319" y="1163" type="curve" smooth="yes"/>
      <point x="472" y="1163"/>
      <point x="754" y="1128"/>
      <point x="877" y="1128" type="curve" smooth="yes"/>
      <point x="916" y="1128"/>
      <point x="960" y="1138"/>
      <point x="989" y="1161" type="curve"/>
      <point x="991" y="1163" type="line"/>
      <point x="1046" y="1103" type="line"/>
      <point x="397" y="298" type="line"/>
      <point x="292" y="205" type="line"/>
      <point x="667" y="205" type="line" smooth="yes"/>
      <point x="769" y="205"/>
      <point x="840" y="277"/>
      <point x="852" y="367" type="curve"/>
      <point x="925" y="367" type="line"/>
      <point x="931" y="274"/>
      <point x="922" y="45"/>
      <point x="850" y="-3" type="curve" smooth="yes"/>
      <point x="833" y="-15"/>
      <point x="798" y="-23"/>
      <point x="748" y="-23" type="curve" smooth="yes"/>
      <point x="595" y="-23"/>
      <point x="275" y="10"/>
      <point x="153" y="10" type="curve" smooth="yes"/>
      <point x="126" y="10"/>
      <point x="79" y="4"/>
      <point x="52" y="-18" type="curve"/>
      <point x="48" y="-23" type="line"/>
    </contour>
  </outline>
</glyph>
<glyph name="Zdotaccent" format="1">
  <advance width="1220"/>
  <unicode hex="017B"/>
  <outline>
    <contour>
      <point x="760" y="1652" type="curve" smooth="yes"/>
      <point x="683" y="1652"/>
      <point x="614" y="1721"/>
      <point x="616" y="1795" type="curve" smooth="yes"/>
      <point x="619" y="1888"/>
      <point x="699" y="1965"/>
      <point x="792" y="1965" type="curve" smooth="yes"/>
      <point x="883" y="1965"/>
      <point x="946" y="1898"/>
      <point x="944" y="1826" type="curve" smooth="yes"/>
      <point x="941" y="1732"/>
      <point x="870" y="1652"/>
    </contour>
    <contour>
      <point x="-2" y="0" type="line"/>
      <point x="-33" y="89" type="line"/>
      <point x="811" y="1261" type="line"/>
      <point x="957" y="1409" type="line"/>
      <point x="457" y="1397" type="line"/>
      <point x="335" y="1138" type="line"/>
      <point x="189" y="1161" type="line"/>
      <point x="242" y="1530" type="line"/>
      <point x="1231" y="1530" type="line"/>
      <point x="1259" y="1444" type="line"/>
      <point x="421" y="269" type="line"/>
      <point x="288" y="122" type="line"/>
      <point x="850" y="146" type="line"/>
      <point x="1005" y="438" type="line"/>
      <point x="1149" y="407" type="line"/>
      <point x="1058" y="0" type="line"/>
    </contour>
  </outline>
</glyph>
<glyph name="uni021A" format="1">
  <advance width="1323"/>
  <unicode hex="021A"/>
  <outline>
    <contour>
      <point x="458" y="-156" type="line"/>
      <point x="597" y="-44" type="line"/>
      <point x="687" y="-63"/>
      <point x="747" y="-159"/>
      <point x="742" y="-262" type="curve" smooth="yes"/>
      <point x="734" y="-423"/>
      <point x="604" y="-542"/>
      <point x="513" y="-560" type="curve"/>
      <point x="443" y="-505" type="line"/>
      <point x="446" y="-479" type="line"/>
      <point x="483" y="-453"/>
      <point x="516" y="-411"/>
      <point x="519" y="-339" type="curve" smooth="yes"/>
      <point x="522" y="-291"/>
      <point x="491" y="-236"/>
      <point x="450" y="-230" type="curve"/>
    </contour>
    <contour>
      <point x="204" y="0" type="line"/>
      <point x="215" y="100" type="line"/>
      <point x="462" y="126" type="line"/>
      <point x="634" y="1409" type="line"/>
      <point x="353" y="1382" type="line"/>
      <point x="233" y="1049" type="line"/>
      <point x="82" y="1048" type="line"/>
      <point x="160" y="1530" type="line"/>
      <point x="1415" y="1530" type="line"/>
      <point x="1355" y="1049" type="line"/>
      <point x="1210" y="1041" type="line"/>
      <point x="1187" y="1383" type="line"/>
      <point x="910" y="1409" type="line"/>
      <point x="737" y="126" type="line"/>
      <point x="1003" y="100" type="line"/>
      <point x="995" y="0" type="line"/>
    </contour>
  </outline>
</glyph>
<glyph name="uni021B" format="1">
  <advance width="730"/>
  <unicode hex="021B"/>
  <outline>
    <contour>
      <point x="207" y="-156" type="line"/>
      <point x="346" y="-44" type="line"/>
      <point x="436" y="-63"/>
      <point x="496" y="-159"/>
      <point x="491" y="-262" type="curve" smooth="yes"/>
      <point x="483" y="-423"/>
      <point x="353" y="-542"/>
      <point x="262" y="-560" type="curve"/>
      <point x="192" y="-505" type="line"/>
      <point x="195" y="-479" type="line"/>
      <point x="232" y="-453"/>
      <point x="265" y="-411"/>
      <point x="268" y="-339" type="curve" smooth="yes"/>
      <point x="271" y="-291"/>
      <point x="240" y="-236"/>
      <point x="199" y="-230" type="curve"/>
    </contour>
    <contour>
      <point x="128" y="159" type="curve" smooth="yes"/>
      <point x="128" y="172"/>
      <point x="128" y="195"/>
      <point x="148" y="345" type="curve" smooth="yes"/>
      <point x="234" y="1005" type="line"/>
      <point x="114" y="1005" type="line"/>
      <point x="136" y="1103" type="line"/>
      <point x="259" y="1150" type="line"/>
      <point x="311" y="1200"/>
      <point x="368" y="1321"/>
      <point x="406" y="1416" type="curve"/>
      <point x="548" y="1416" type="line"/>
      <point x="514" y="1155" type="line"/>
      <point x="749" y="1155" type="line"/>
      <point x="728" y="1005" type="line"/>
      <point x="495" y="1005" type="line"/>
      <point x="412" y="390" type="line" smooth="yes"/>
      <point x="403" y="320"/>
      <point x="396" y="268"/>
      <point x="396" y="232" type="curve" smooth="yes"/>
      <point x="396" y="168"/>
      <point x="415" y="145"/>
      <point x="475" y="145" type="curve" smooth="yes"/>
      <point x="526" y="145"/>
      <point x="609" y="178"/>
      <point x="655" y="215" type="curve"/>
      <point x="677" y="136" type="line"/>
      <point x="624" y="74"/>
      <point x="481" y="-20"/>
      <point x="316" y="-20" type="curve" smooth="yes"/>
      <point x="217" y="-20"/>
      <point x="128" y="22"/>
    </contour>
  </outline>
</glyph>
<glyph name="dotlessj" format="1">
  <advance width="650"/>
  <unicode hex="0237"/>
  <outline>
    <contour>
      <point x="152" y="65" type="curve" smooth="yes"/>
      <point x="253" y="980" type="line"/>
      <point x="92" y="1031" type="line"/>
      <point x="112" y="1112" type="line"/>
      <point x="493" y="1163" type="line"/>
      <point x="543" y="1139" type="line"/>
      <point x="409" y="0" type="line" smooth="yes"/>
      <point x="368" y="-344"/>
      <point x="164" y="-523"/>
      <point x="-74" y="-523" type="curve" smooth="yes"/>
      <point x="-146" y="-523"/>
      <point x="-205" y="-511"/>
      <point x="-230" y="-486" type="curve"/>
      <point x="-193" y="-385" type="line"/>
      <point x="-175" y="-392"/>
      <point x="-132" y="-397"/>
      <point x="-121" y="-397" type="curve" smooth="yes"/>
      <point x="71" y="-397"/>
      <point x="125" y="-173"/>
    </contour>
  </outline>
</glyph>
<glyph name="circumflex" format="1">
  <advance width="795"/>
  <unicode hex="02C6"/>
  <outline>
    <contour>
      <point x="132" y="1229" type="line"/>
      <point x="50" y="1286" type="line"/>
      <point x="397" y="1660" type="line"/>
      <point x="575" y="1660" type="line"/>
      <point x="775" y="1286" type="line"/>
      <point x="676" y="1228" type="line"/>
      <point x="460" y="1462" type="line"/>
    </contour>
  </outline>
</glyph>
<glyph name="breve" format="1">
  <advance width="717"/>
  <unicode hex="02D8"/>
  <outline>
    <contour>
      <point x="356" y="1300" type="curve" smooth="yes"/>
      <point x="144" y="1300"/>
      <point x="55" y="1468"/>
      <point x="55" y="1623" type="curve" smooth="yes"/>
      <point x="55" y="1637"/>
      <point x="56" y="1652"/>
      <point x="58" y="1666" type="curve"/>
      <point x="203" y="1666" type="line"/>
      <point x="203" y="1655"/>
      <point x="203" y="1642"/>
      <point x="204" y="1628" type="curve" smooth="yes"/>
      <point x="212" y="1564"/>
      <point x="240" y="1482"/>
      <point x="361" y="1482" type="curve" smooth="yes"/>
      <point x="508" y="1482"/>
      <point x="540" y="1596"/>
      <point x="553" y="1666" type="curve"/>
      <point x="695" y="1666" type="line"/>
      <point x="695" y="1655"/>
      <point x="695" y="1644"/>
      <point x="694" y="1633" type="curve" smooth="yes"/>
      <point x="683" y="1476"/>
      <point x="566" y="1300"/>
    </contour>
  </outline>
</glyph>
<glyph name="ring" format="1">
  <advance width="722"/>
  <unicode hex="02DA"/>
  <outline>
    <contour>
      <point x="368" y="1253" type="curve" smooth="yes"/>
      <point x="172" y="1253"/>
      <point x="65" y="1351"/>
      <point x="75" y="1512" type="curve"/>
      <point x="86" y="1721"/>
      <point x="288" y="1795"/>
      <point x="441" y="1795" type="curve" smooth="yes"/>
      <point x="623" y="1795"/>
      <point x="738" y="1702"/>
      <point x="729" y="1544" type="curve" smooth="yes"/>
      <point x="718" y="1345"/>
      <point x="538" y="1253"/>
    </contour>
    <contour>
      <point x="386" y="1368" type="curve" smooth="yes"/>
      <point x="476" y="1367"/>
      <point x="556" y="1402"/>
      <point x="563" y="1527" type="curve" smooth="yes"/>
      <point x="568" y="1617"/>
      <point x="504" y="1681"/>
      <point x="421" y="1681" type="curve" smooth="yes"/>
      <point x="333" y="1682"/>
      <point x="248" y="1641"/>
      <point x="242" y="1523" type="curve"/>
      <point x="236" y="1437"/>
      <point x="306" y="1369"/>
    </contour>
  </outline>
</glyph>
<glyph name="tilde" format="1">
  <advance width="816"/>
  <unicode hex="02DC"/>
  <outline>
    <contour>
      <point x="97" y="1392" type="curve"/>
      <point x="35" y="1496" type="line"/>
      <point x="77" y="1581"/>
      <point x="185" y="1665"/>
      <point x="287" y="1665" type="curve" smooth="yes"/>
      <point x="431" y="1665"/>
      <point x="460" y="1520"/>
      <point x="555" y="1520" type="curve" smooth="yes"/>
      <point x="629" y="1520"/>
      <point x="670" y="1577"/>
      <point x="708" y="1625" type="curve"/>
      <point x="781" y="1514" type="line"/>
      <point x="747" y="1420"/>
      <point x="639" y="1333"/>
      <point x="530" y="1333" type="curve" smooth="yes"/>
      <point x="360" y="1333"/>
      <point x="360" y="1476"/>
      <point x="244" y="1478" type="curve" smooth="yes"/>
      <point x="191" y="1479"/>
      <point x="135" y="1432"/>
    </contour>
  </outline>
</glyph>
<glyph name="hungarumlaut" format="1">
  <advance width="917"/>
  <unicode hex="02DD"/>
  <outline>
    <contour>
      <point x="540" y="1242" type="curve"/>
      <point x="456" y="1296" type="line"/>
      <point x="712" y="1727" type="line"/>
      <point x="867" y="1611" type="line"/>
      <point x="840" y="1506"/>
      <point x="646" y="1284"/>
    </contour>
    <contour>
      <point x="85" y="1242" type="curve"/>
      <point x="2" y="1296" type="line"/>
      <point x="251" y="1727" type="line"/>
      <point x="409" y="1610" type="line"/>
      <point x="379" y="1497"/>
      <point x="192" y="1294"/>
    </contour>
  </outline>
</glyph>
<glyph name="uni1E02" format="1">
  <advance width="1339"/>
  <unicode hex="1E02"/>
  <outline>
    <contour>
      <point x="737" y="1652" type="curve" smooth="yes"/>
      <point x="660" y="1652"/>
      <point x="591" y="1721"/>
      <point x="593" y="1795" type="curve" smooth="yes"/>
      <point x="596" y="1888"/>
      <point x="676" y="1965"/>
      <point x="769" y="1965" type="curve" smooth="yes"/>
      <point x="860" y="1965"/>
      <point x="923" y="1898"/>
      <point x="921" y="1826" type="curve" smooth="yes"/>
      <point x="918" y="1732"/>
      <point x="847" y="1652"/>
    </contour>
    <contour>
      <point x="0" y="0" type="line"/>
      <point x="9" y="96" type="line"/>
      <point x="153" y="126" type="line"/>
      <point x="317" y="1400" type="line"/>
      <point x="178" y="1425" type="line"/>
      <point x="191" y="1530" type="line"/>
      <point x="479" y="1530" type="line"/>
      <point x="584" y="1531"/>
      <point x="686" y="1546"/>
      <point x="802" y="1546" type="curve" smooth="yes"/>
      <point x="1153" y="1546"/>
      <point x="1258" y="1383"/>
      <point x="1263" y="1218" type="curve" smooth="yes"/>
      <point x="1269" y="1000"/>
      <point x="1146" y="869"/>
      <point x="926" y="807" type="curve"/>
      <point x="1123" y="797"/>
      <point x="1253" y="662"/>
      <point x="1255" y="495" type="curve" smooth="yes"/>
      <point x="1258" y="126"/>
      <point x="972" y="-17"/>
      <point x="554" y="-17" type="curve" smooth="yes"/>
      <point x="467" y="-17"/>
      <point x="347" y="0"/>
      <point x="266" y="0" type="curve" smooth="yes"/>
    </contour>
    <contour>
      <point x="513" y="855" type="line"/>
      <point x="562" y="852"/>
      <point x="611" y="854"/>
      <point x="663" y="854" type="curve" smooth="yes"/>
      <point x="849" y="854"/>
      <point x="1006" y="954"/>
      <point x="1000" y="1192" type="curve"/>
      <point x="995" y="1344"/>
      <point x="918" y="1424"/>
      <point x="740" y="1424" type="curve" smooth="yes"/>
      <point x="710" y="1424"/>
      <point x="632" y="1421"/>
      <point x="585" y="1412" type="curve"/>
    </contour>
    <contour>
      <point x="420" y="127" type="line"/>
      <point x="466" y="114"/>
      <point x="555" y="106"/>
      <point x="597" y="106" type="curve" smooth="yes"/>
      <point x="831" y="106"/>
      <point x="973" y="210"/>
      <point x="966" y="467" type="curve" smooth="yes"/>
      <point x="961" y="639"/>
      <point x="876" y="722"/>
      <point x="672" y="722" type="curve" smooth="yes"/>
      <point x="580" y="722"/>
      <point x="532" y="719"/>
      <point x="495" y="716" type="curve"/>
    </contour>
  </outline>
</glyph>
<glyph name="uni1E03" format="1">
  <advance width="1190"/>
  <unicode hex="1E03"/>
  <outline>
    <contour>
      <point x="93" y="-20" type="line"/>
      <point x="285" y="1484" type="line"/>
      <point x="186" y="1527" type="line"/>
      <point x="207" y="1611" type="line"/>
      <point x="508" y="1650" type="line"/>
      <point x="560" y="1623" type="line"/>
      <point x="482" y="1033" type="line"/>
      <point x="547" y="1101"/>
      <point x="647" y="1163"/>
      <point x="774" y="1163" type="curve" smooth="yes"/>
      <point x="1005" y="1163"/>
      <point x="1116" y="993"/>
      <point x="1116" y="730" type="curve" smooth="yes"/>
      <point x="1116" y="367"/>
      <point x="869" y="-20"/>
      <point x="456" y="-20" type="curve" smooth="yes"/>
      <point x="374" y="-20"/>
      <point x="277" y="3"/>
      <point x="215" y="24" type="curve"/>
    </contour>
    <contour>
      <point x="362" y="132" type="line"/>
      <point x="396" y="116"/>
      <point x="436" y="110"/>
      <point x="484" y="110" type="curve" smooth="yes"/>
      <point x="739" y="110"/>
      <point x="843" y="449"/>
      <point x="843" y="723" type="curve" smooth="yes"/>
      <point x="843" y="889"/>
      <point x="788" y="1004"/>
      <point x="687" y="1004" type="curve" smooth="yes"/>
      <point x="593" y="1004"/>
      <point x="511" y="933"/>
      <point x="459" y="864" type="curve"/>
    </contour>
    <contour>
      <point x="860" y="1363" type="curve" smooth="yes"/>
      <point x="783" y="1363"/>
      <point x="719" y="1433"/>
      <point x="721" y="1507" type="curve" smooth="yes"/>
      <point x="724" y="1600"/>
      <point x="799" y="1676"/>
      <point x="892" y="1676" type="curve" smooth="yes"/>
      <point x="984" y="1676"/>
      <point x="1041" y="1609"/>
      <point x="1038" y="1538" type="curve" smooth="yes"/>
      <point x="1035" y="1444"/>
      <point x="970" y="1363"/>
    </contour>
  </outline>
</glyph>
<glyph name="uni1E1F" format="1">
  <advance width="707"/>
  <unicode hex="1E1F"/>
  <outline>
    <contour>
      <point x="457" y="1668" type="curve" smooth="yes"/>
      <point x="380" y="1668"/>
      <point x="316" y="1738"/>
      <point x="318" y="1812" type="curve" smooth="yes"/>
      <point x="321" y="1905"/>
      <point x="396" y="1981"/>
      <point x="489" y="1981" type="curve" smooth="yes"/>
      <point x="581" y="1981"/>
      <point x="638" y="1914"/>
      <point x="635" y="1843" type="curve" smooth="yes"/>
      <point x="632" y="1749"/>
      <point x="567" y="1668"/>
    </contour>
    <contour>
      <point x="110" y="-145" type="curve"/>
      <point x="248" y="998" type="line"/>
      <point x="116" y="998" type="line"/>
      <point x="134" y="1087" type="line"/>
      <point x="276" y="1150" type="line"/>
      <point x="291" y="1237" type="line" smooth="yes"/>
      <point x="334" y="1484"/>
      <point x="508" y="1670"/>
      <point x="734" y="1670" type="curve" smooth="yes"/>
      <point x="788" y="1670"/>
      <point x="849" y="1666"/>
      <point x="902" y="1644" type="curve"/>
      <point x="841" y="1471" type="line"/>
      <point x="816" y="1489"/>
      <point x="773" y="1520"/>
      <point x="703" y="1519" type="curve" smooth="yes"/>
      <point x="599" y="1518"/>
      <point x="569" y="1436"/>
      <point x="546" y="1274" type="curve"/>
      <point x="530" y="1155" type="line"/>
      <point x="763" y="1155" type="line"/>
      <point x="744" y="998" type="line"/>
      <point x="509" y="998" type="line"/>
      <point x="384" y="-25" type="line"/>
      <point x="349" y="-296"/>
      <point x="202" y="-512"/>
      <point x="-52" y="-513" type="curve" smooth="yes"/>
      <point x="-123" y="-514"/>
      <point x="-198" y="-503"/>
      <point x="-229" y="-495" type="curve"/>
      <point x="-174" y="-319" type="line"/>
      <point x="-160" y="-325"/>
      <point x="-62" y="-363"/>
      <point x="-13" y="-362" type="curve"/>
      <point x="52" y="-362"/>
      <point x="92" y="-281"/>
    </contour>
  </outline>
</glyph>
<glyph name="uni1E61" format="1">
  <advance width="879"/>
  <unicode hex="1E61"/>
  <outline>
    <contour>
      <point x="25" y="44" type="curve"/>
      <point x="67" y="220" type="line"/>
      <point x="111" y="185"/>
      <point x="215" y="125"/>
      <point x="335" y="125" type="curve" smooth="yes"/>
      <point x="413" y="125"/>
      <point x="513" y="146"/>
      <point x="513" y="258" type="curve" smooth="yes"/>
      <point x="513" y="354"/>
      <point x="435" y="415"/>
      <point x="335" y="487" type="curve" smooth="yes"/>
      <point x="254" y="546"/>
      <point x="133" y="659"/>
      <point x="133" y="833" type="curve" smooth="yes"/>
      <point x="133" y="1046"/>
      <point x="326" y="1163"/>
      <point x="559" y="1163" type="curve" smooth="yes"/>
      <point x="667" y="1163"/>
      <point x="784" y="1141"/>
      <point x="817" y="1126" type="curve"/>
      <point x="777" y="939" type="line"/>
      <point x="758" y="963"/>
      <point x="678" y="1027"/>
      <point x="561" y="1027" type="curve" smooth="yes"/>
      <point x="477" y="1027"/>
      <point x="395" y="994"/>
      <point x="388" y="901" type="curve" smooth="yes"/>
      <point x="382" y="808"/>
      <point x="452" y="738"/>
      <point x="557" y="660" type="curve" smooth="yes"/>
      <point x="662" y="581"/>
      <point x="770" y="479"/>
      <point x="770" y="310" type="curve" smooth="yes"/>
      <point x="770" y="82"/>
      <point x="558" y="-20"/>
      <point x="333" y="-20" type="curve" smooth="yes"/>
      <point x="208" y="-20"/>
      <point x="62" y="14"/>
    </contour>
    <contour>
      <point x="560" y="1363" type="curve" smooth="yes"/>
      <point x="483" y="1363"/>
      <point x="419" y="1433"/>
      <point x="421" y="1507" type="curve" smooth="yes"/>
      <point x="424" y="1600"/>
      <point x="499" y="1676"/>
      <point x="592" y="1676" type="curve" smooth="yes"/>
      <point x="684" y="1676"/>
      <point x="741" y="1609"/>
      <point x="738" y="1538" type="curve" smooth="yes"/>
      <point x="735" y="1444"/>
      <point x="670" y="1363"/>
    </contour>
  </outline>
</glyph>
<glyph name="uni1E6B" format="1">
  <advance width="730"/>
  <unicode hex="1E6B"/>
  <outline>
    <contour>
      <point x="128" y="159" type="curve" smooth="yes"/>
      <point x="128" y="172"/>
      <point x="128" y="195"/>
      <point x="148" y="345" type="curve" smooth="yes"/>
      <point x="234" y="1005" type="line"/>
      <point x="114" y="1005" type="line"/>
      <point x="136" y="1103" type="line"/>
      <point x="259" y="1150" type="line"/>
      <point x="311" y="1200"/>
      <point x="368" y="1321"/>
      <point x="406" y="1416" type="curve"/>
      <point x="548" y="1416" type="line"/>
      <point x="514" y="1155" type="line"/>
      <point x="749" y="1155" type="line"/>
      <point x="728" y="1005" type="line"/>
      <point x="495" y="1005" type="line"/>
      <point x="412" y="390" type="line" smooth="yes"/>
      <point x="403" y="320"/>
      <point x="396" y="268"/>
      <point x="396" y="232" type="curve" smooth="yes"/>
      <point x="396" y="168"/>
      <point x="415" y="145"/>
      <point x="475" y="145" type="curve" smooth="yes"/>
      <point x="526" y="145"/>
      <point x="609" y="178"/>
      <point x="655" y="215" type="curve"/>
      <point x="677" y="136" type="line"/>
      <point x="624" y="74"/>
      <point x="481" y="-20"/>
      <point x="316" y="-20" type="curve" smooth="yes"/>
      <point x="217" y="-20"/>
      <point x="128" y="22"/>
    </contour>
    <contour>
      <point x="470" y="1485" type="curve" smooth="yes"/>
      <point x="393" y="1485"/>
      <point x="329" y="1555"/>
      <point x="331" y="1629" type="curve" smooth="yes"/>
      <point x="334" y="1722"/>
      <point x="409" y="1798"/>
      <point x="502" y="1798" type="curve" smooth="yes"/>
      <point x="594" y="1798"/>
      <point x="651" y="1731"/>
      <point x="648" y="1660" type="curve" smooth="yes"/>
      <point x="645" y="1566"/>
      <point x="580" y="1485"/>
    </contour>
  </outline>
</glyph>
<glyph name="Wgrave" format="1">
  <advance width="1887"/>
  <unicode hex="1E80"/>
  <outline>
    <contour>
      <point x="1153" y="1592" type="line"/>
      <point x="1057" y="1628"/>
      <point x="861" y="1739"/>
      <point x="809" y="1846" type="curve"/>
      <point x="969" y="2007" type="line"/>
      <point x="1239" y="1665" type="line"/>
    </contour>
    <contour>
      <point x="352" y="-10" type="line"/>
      <point x="137" y="1400" type="line"/>
      <point x="5" y="1425" type="line"/>
      <point x="18" y="1530" type="line"/>
      <point x="569" y="1530" type="line"/>
      <point x="559" y="1425" type="line"/>
      <point x="418" y="1400" type="line"/>
      <point x="535" y="473" type="line"/>
      <point x="564" y="236" type="line"/>
      <point x="629" y="439" type="line"/>
      <point x="956" y="1268" type="line"/>
      <point x="943" y="1402" type="line"/>
      <point x="804" y="1425" type="line"/>
      <point x="814" y="1530" type="line"/>
      <point x="1374" y="1530" type="line"/>
      <point x="1359" y="1425" type="line"/>
      <point x="1215" y="1401" type="line"/>
      <point x="1314" y="473" type="line"/>
      <point x="1323" y="236" type="line"/>
      <point x="1400" y="454" type="line"/>
      <point x="1793" y="1399" type="line"/>
      <point x="1615" y="1425" type="line"/>
      <point x="1625" y="1530" type="line"/>
      <point x="2133" y="1530" type="line"/>
      <point x="2120" y="1425" type="line"/>
      <point x="1981" y="1400" type="line"/>
      <point x="1361" y="-10" type="line"/>
      <point x="1100" y="-10" type="line"/>
      <point x="998" y="967" type="line"/>
      <point x="614" y="-10" type="line"/>
    </contour>
  </outline>
</glyph>
